<svg width="344" height="507" viewBox="0 0 344 507" fill="none" xmlns="http://www.w3.org/2000/svg">
<g clip-path="url(#clip0_3116_2383)">
<g opacity="0.38">
<mask id="mask0_3116_2383" style="mask-type:luminance" maskUnits="userSpaceOnUse" x="-130" y="0" width="532" height="616">
<path d="M401.325 0H-129.424V615.565H401.325V0Z" fill="white"/>
</mask>
<g mask="url(#mask0_3116_2383)">
<path d="M115.229 303.211C88.412 303.211 74.6055 289.856 74.6055 264.11V247.724C74.6055 222.102 88.412 208.623 115.368 208.623C142.185 208.623 155.991 222.102 155.991 247.724V264.11C155.991 289.856 142.185 303.211 115.229 303.211ZM115.229 281.353C122.68 281.353 126.74 276.864 126.74 266.903V244.931C126.74 234.97 122.68 230.48 115.229 230.48C107.778 230.48 103.856 234.97 103.856 244.931V266.903C103.856 276.864 107.778 281.353 115.229 281.353Z" stroke="black" stroke-width="2.75218" stroke-miterlimit="10"/>
<path d="M74.9627 161.02C77.2696 182.318 90.8915 193.335 115.229 193.335C139.693 193.335 153.326 182.318 155.633 161.02H126.475C125.483 168.188 121.584 171.478 115.229 171.478C108.873 171.478 105.067 168.198 104.098 161.02H74.9512H74.9627Z" stroke="black" stroke-width="2.75218" stroke-miterlimit="10"/>
<path d="M44.8812 161.029L63.6821 186.58H44.8812V262.372H13.0352V161.029H44.8812Z" stroke="black" stroke-width="2.75218" stroke-miterlimit="10"/>
<path d="M44.8812 277.662L63.6821 303.212H44.8812H13.0352V277.662H44.8812Z" stroke="black" stroke-width="2.75218" stroke-miterlimit="10"/>
<path d="M155.991 356.297V372.682C155.991 398.305 142.185 411.783 115.368 411.783C88.5504 411.783 74.6055 398.305 74.6055 372.682V356.297C74.6055 330.55 88.412 317.195 115.229 317.195C142.046 317.195 155.991 330.55 155.991 356.297ZM103.856 353.504V375.475C103.856 385.436 107.778 389.926 115.229 389.926C122.68 389.926 126.74 385.436 126.74 375.475V353.504C126.74 343.542 122.68 339.053 115.229 339.053C107.778 339.053 103.856 343.542 103.856 353.504Z" stroke="black" stroke-width="2.75218" stroke-miterlimit="10"/>
<path d="M104.11 459.388C105.079 452.219 108.874 448.93 115.241 448.93C121.608 448.93 125.495 452.209 126.487 459.388H155.645C153.338 438.089 139.705 427.072 115.241 427.072C90.7765 427.072 77.2699 438.089 74.9746 459.388H104.122H104.11Z" stroke="black" stroke-width="2.75218" stroke-miterlimit="10"/>
<path d="M44.8812 459.376L63.6821 433.826H44.8812V358.033H13.0352V459.376H44.8812Z" stroke="black" stroke-width="2.75218" stroke-miterlimit="10"/>
<path d="M44.8812 342.746L63.6821 317.195H44.8812H13.0352V342.746H44.8812Z" stroke="black" stroke-width="2.75218" stroke-miterlimit="10"/>
<path d="M74.9627 473.375C77.2696 494.674 90.8915 505.69 115.229 505.69C139.693 505.69 153.326 494.674 155.633 473.375H126.475C125.483 480.544 121.584 483.833 115.229 483.833C108.862 483.833 105.067 480.554 104.098 473.375H74.9512H74.9627Z" stroke="black" stroke-width="2.75218" stroke-miterlimit="10"/>
<path d="M44.8812 473.375L63.6821 498.925H44.8812V574.718H13.0352V473.375H44.8812Z" stroke="black" stroke-width="2.75218" stroke-miterlimit="10"/>
<path d="M155.991 43.9528V60.3381C155.991 85.9608 142.185 99.4394 115.368 99.4394C88.5504 99.4394 74.6055 85.9608 74.6055 60.3381V43.9528C74.6055 18.206 88.412 4.85156 115.229 4.85156C142.046 4.85156 155.991 18.206 155.991 43.9528ZM103.856 41.1599V63.1311C103.856 73.0926 107.778 77.582 115.229 77.582C122.68 77.582 126.74 73.0926 126.74 63.1311V41.1599C126.74 31.1984 122.68 26.709 115.229 26.709C107.778 26.709 103.856 31.1984 103.856 41.1599Z" stroke="black" stroke-width="2.75218" stroke-miterlimit="10"/>
<path d="M104.11 147.034C105.079 139.866 108.874 136.576 115.241 136.576C121.608 136.576 125.495 139.855 126.487 147.034H155.645C153.338 125.735 139.705 114.719 115.241 114.719C90.7765 114.719 77.2699 125.735 74.9746 147.034H104.122H104.11Z" stroke="black" stroke-width="2.75218" stroke-miterlimit="10"/>
<path d="M44.8812 147.034L63.6821 121.484H44.8812V45.6914H13.0352V147.034H44.8812Z" stroke="black" stroke-width="2.75218" stroke-miterlimit="10"/>
<path d="M44.8812 30.4024L63.6821 4.8418H44.8812H13.0352V30.4024H44.8812Z" stroke="black" stroke-width="2.75218" stroke-miterlimit="10"/>
<path d="M184.09 264.11V247.724C184.09 222.102 197.896 208.623 224.714 208.623C251.531 208.623 265.476 222.102 265.476 247.724V264.11C265.476 289.856 251.669 303.211 224.852 303.211C198.035 303.211 184.09 289.856 184.09 264.11ZM236.225 266.903V244.931C236.225 234.97 232.303 230.48 224.852 230.48C217.401 230.48 213.341 234.97 213.341 244.931V266.903C213.341 276.864 217.401 281.353 224.852 281.353C232.303 281.353 236.225 276.864 236.225 266.903Z" stroke="black" stroke-width="2.75218" stroke-miterlimit="10"/>
<path d="M235.971 161.02C235.002 168.188 231.207 171.478 224.84 171.478C218.473 171.478 214.586 168.198 213.594 161.02H184.436C186.742 182.318 200.376 193.335 224.84 193.335C249.304 193.335 262.811 182.318 265.106 161.02H235.959H235.971Z" stroke="black" stroke-width="2.75218" stroke-miterlimit="10"/>
<path d="M295.199 161.029L276.398 186.58H295.199V262.372H327.045V161.029H295.199Z" stroke="black" stroke-width="2.75218" stroke-miterlimit="10"/>
<path d="M295.199 277.662L276.398 303.212H295.199H327.045V277.662H295.199Z" stroke="black" stroke-width="2.75218" stroke-miterlimit="10"/>
<path d="M375.997 161.031L394.797 186.582H375.997V262.374H344.15V161.031H375.997Z" stroke="black" stroke-width="2.75218" stroke-miterlimit="10"/>
<path d="M376.008 277.662L394.797 303.212H376.008H344.15V277.662H376.008Z" stroke="black" stroke-width="2.75218" stroke-miterlimit="10"/>
<path d="M375.997 459.376L394.797 433.826H375.997V358.033H344.15V459.376H375.997Z" stroke="black" stroke-width="2.75218" stroke-miterlimit="10"/>
<path d="M376.008 342.746L394.797 317.195H376.008H344.15V342.746H376.008Z" stroke="black" stroke-width="2.75218" stroke-miterlimit="10"/>
<path d="M224.852 317.195C251.669 317.195 265.476 330.55 265.476 356.297V372.682C265.476 398.305 251.669 411.783 224.714 411.783C197.896 411.783 184.09 398.305 184.09 372.682V356.297C184.09 330.55 197.896 317.195 224.852 317.195ZM224.852 339.053C217.401 339.053 213.341 343.542 213.341 353.504V375.475C213.341 385.436 217.401 389.926 224.852 389.926C232.303 389.926 236.225 385.436 236.225 375.475V353.504C236.225 343.542 232.303 339.053 224.852 339.053Z" stroke="black" stroke-width="2.75218" stroke-miterlimit="10"/>
<path d="M265.118 459.388C262.811 438.089 249.189 427.072 224.852 427.072C200.388 427.072 186.754 438.089 184.447 459.388H213.606C214.598 452.219 218.496 448.93 224.852 448.93C231.219 448.93 235.013 452.209 235.982 459.388H265.129H265.118Z" stroke="black" stroke-width="2.75218" stroke-miterlimit="10"/>
<path d="M295.199 459.376L276.398 433.826H295.199V358.033H327.045V459.376H295.199Z" stroke="black" stroke-width="2.75218" stroke-miterlimit="10"/>
<path d="M295.199 342.746L276.398 317.195H295.199H327.045V342.746H295.199Z" stroke="black" stroke-width="2.75218" stroke-miterlimit="10"/>
<path d="M235.971 473.375C235.002 480.544 231.207 483.833 224.84 483.833C218.473 483.833 214.586 480.554 213.594 473.375H184.436C186.742 494.674 200.376 505.69 224.84 505.69C249.304 505.69 262.811 494.674 265.106 473.375H235.959H235.971Z" stroke="black" stroke-width="2.75218" stroke-miterlimit="10"/>
<path d="M295.199 473.375L276.398 498.925H295.199V574.718H327.045V473.375H295.199Z" stroke="black" stroke-width="2.75218" stroke-miterlimit="10"/>
<path d="M375.997 473.375L394.797 498.925H375.997V574.718H344.15V473.375H375.997Z" stroke="black" stroke-width="2.75218" stroke-miterlimit="10"/>
<path d="M375.997 147.034L394.797 121.484H375.997V45.6914H344.15V147.034H375.997Z" stroke="black" stroke-width="2.75218" stroke-miterlimit="10"/>
<path d="M376.008 30.4024L394.797 4.8418H376.008H344.15V30.4024H376.008Z" stroke="black" stroke-width="2.75218" stroke-miterlimit="10"/>
<path d="M224.852 4.8418C251.669 4.8418 265.476 18.1962 265.476 43.9431V60.3283C265.476 85.951 251.669 99.4296 224.714 99.4296C197.896 99.4296 184.09 85.951 184.09 60.3283V43.9431C184.09 18.1962 197.896 4.8418 224.852 4.8418ZM224.852 26.7095C217.401 26.7095 213.341 31.1989 213.341 41.1605V63.1316C213.341 73.0931 217.401 77.5825 224.852 77.5825C232.303 77.5825 236.225 73.0931 236.225 63.1316V41.1605C236.225 31.1989 232.303 26.7095 224.852 26.7095Z" stroke="black" stroke-width="2.75218" stroke-miterlimit="10"/>
<path d="M265.118 147.034C262.811 125.735 249.189 114.719 224.852 114.719C200.388 114.719 186.754 125.735 184.447 147.034H213.606C214.598 139.866 218.496 136.576 224.852 136.576C231.219 136.576 235.013 139.855 235.982 147.034H265.129H265.118Z" stroke="black" stroke-width="2.75218" stroke-miterlimit="10"/>
<path d="M295.199 147.034L276.398 121.484H295.199V45.6914H327.045V147.034H295.199Z" stroke="black" stroke-width="2.75218" stroke-miterlimit="10"/>
<path d="M295.199 30.4024L276.398 4.8418H295.199H327.045V30.4024H295.199Z" stroke="black" stroke-width="2.75218" stroke-miterlimit="10"/>
</g>
</g>
</g>
<defs>
<clipPath id="clip0_3116_2383">
<rect width="344" height="507" fill="white"/>
</clipPath>
</defs>
</svg>
