<svg width="337" height="507" viewBox="0 0 337 507" fill="none" xmlns="http://www.w3.org/2000/svg">
<g clip-path="url(#clip0_3348_6548)">
<path opacity="0.7376" d="M25.7511 496.287V578.045H14.1913V506.45H-4.26172V496.287H25.7511Z" fill="#595959"/>
<path opacity="0.7785" d="M112.658 483.295V591.036H97.423V496.687H73.1035V483.295H112.658Z" fill="#595959"/>
<path opacity="0.7625" d="M195.866 565.958C191.939 563.373 188.85 559.621 186.601 554.691C184.349 549.761 183.223 543.923 183.223 537.166C183.223 530.409 184.351 524.57 186.601 519.64C188.852 514.71 191.939 510.947 195.866 508.364C199.789 505.778 204.276 504.486 209.327 504.486C214.319 504.486 218.776 505.78 222.703 508.364C226.626 510.949 229.712 514.71 231.964 519.64C234.217 524.57 235.343 530.409 235.343 537.166C235.343 543.923 234.215 549.761 231.964 554.691C229.714 559.621 226.626 563.373 222.703 565.958C218.776 568.553 214.317 569.845 209.327 569.845C204.278 569.843 199.789 568.551 195.866 565.958ZM221.608 555.42C224.679 551.221 226.216 545.132 226.216 537.164C226.216 529.194 224.679 523.105 221.608 518.906C218.533 514.708 214.441 512.605 209.329 512.605C204.16 512.605 200.036 514.708 196.961 518.906C193.89 523.105 192.353 529.192 192.353 537.164C192.353 545.132 193.89 551.221 196.961 555.42C200.036 559.619 204.16 561.713 209.329 561.713C214.441 561.713 218.531 559.619 221.608 555.42Z" fill="#595959"/>
<path opacity="0.3644" d="M320.15 504.881V569.446H311.019V512.906H296.445V504.881H320.15Z" fill="#595959"/>
<path opacity="0.6916" d="M40.2716 12.5V114.928H25.7896V25.2319H2.66992V12.5H40.2716Z" fill="#595959"/>
<path opacity="0.981" d="M124.374 94.0113C120.241 91.2915 116.994 87.3408 114.624 82.1552C112.255 76.9678 111.068 70.8236 111.068 63.7151C111.068 56.6047 112.255 50.4605 114.624 45.2731C116.994 40.0876 120.241 36.1276 124.374 33.4078C128.502 30.6899 133.224 29.3281 138.536 29.3281C143.788 29.3281 148.48 30.6899 152.612 33.4078C156.739 36.1276 159.989 40.0876 162.357 45.2731C164.725 50.4605 165.912 56.6047 165.912 63.7151C165.912 70.8236 164.725 76.9678 162.357 82.1552C159.989 87.3408 156.739 91.2897 152.612 94.0113C148.48 96.7402 143.79 98.1002 138.536 98.1002C133.224 98.1002 128.502 96.7402 124.374 94.0113ZM151.458 82.9246C154.689 78.5064 156.307 72.1006 156.307 63.7151C156.307 55.3295 154.689 48.9221 151.458 44.5058C148.221 40.0894 143.917 37.8739 138.536 37.8739C133.095 37.8739 128.758 40.0894 125.521 44.5058C122.29 48.924 120.672 55.3295 120.672 63.7151C120.672 72.1006 122.29 78.5064 125.521 82.9246C128.758 87.3428 133.095 89.5473 138.536 89.5473C143.917 89.5473 148.221 87.3409 151.458 82.9246Z" fill="#595959"/>
<path opacity="0.7502" d="M249.593 113.712C242.776 109.222 237.412 102.707 233.503 94.148C229.595 85.5895 227.637 75.4501 227.637 63.7173C227.637 51.9844 229.595 41.8452 233.503 33.2867C237.412 24.7281 242.776 18.1938 249.593 13.7057C256.404 9.21568 264.199 6.97266 272.965 6.97266C281.634 6.97266 289.374 9.21752 296.192 13.7057C303.002 18.1938 308.366 24.7263 312.273 33.2867C316.181 41.8452 318.141 51.9844 318.141 63.7173C318.141 75.4501 316.183 85.5877 312.273 94.148C308.364 102.707 303.002 109.224 296.192 113.712C289.374 118.217 281.634 120.46 272.965 120.46C264.199 120.462 256.404 118.217 249.593 113.712ZM294.287 95.4176C299.62 88.127 302.29 77.5552 302.29 63.7173C302.29 49.8793 299.62 39.306 294.287 32.0153C288.949 24.7265 281.844 21.0737 272.965 21.0737C263.989 21.0737 256.829 24.7265 251.489 32.0153C246.156 39.306 243.486 49.8775 243.486 63.7173C243.486 77.5552 246.156 88.127 251.489 95.4176C256.829 102.706 263.989 106.344 272.965 106.344C281.844 106.344 288.949 102.706 294.287 95.4176Z" fill="#00A1FF"/>
<path opacity="0.5128" d="M78.6002 256.02V358.595H64.096V268.77H40.9414V256.02H78.6002Z" fill="#5FBBB1"/>
<path opacity="0.6276" d="M157.799 266.754V347.857H146.331V276.836H128.025V266.754H157.799Z" fill="#595959"/>
<path opacity="0.6456" d="M243.516 259.699V354.908H230.054V271.533H208.562V259.697L243.516 259.699Z" fill="#595959"/>
<path opacity="0.1566" d="M328.707 338.96C324.39 336.117 320.995 331.992 318.52 326.572C316.045 321.151 314.807 314.733 314.807 307.304C314.807 299.877 316.045 293.457 318.52 288.038C320.995 282.619 324.39 278.484 328.707 275.641C333.019 272.798 337.954 271.379 343.506 271.379C348.993 271.379 353.893 272.799 358.21 275.641C362.524 278.484 365.919 282.619 368.394 288.038C370.867 293.459 372.107 299.877 372.107 307.304C372.107 314.733 370.867 321.153 368.394 326.572C365.919 331.992 362.524 336.117 358.21 338.96C353.893 341.812 348.993 343.233 343.506 343.233C337.954 343.233 333.019 341.812 328.707 338.96ZM357.005 327.375C360.382 322.759 362.071 316.065 362.071 307.304C362.071 298.543 360.382 291.851 357.005 287.234C353.625 282.618 349.125 280.305 343.506 280.305C337.821 280.305 333.289 282.618 329.909 287.234C326.532 291.851 324.843 298.543 324.843 307.304C324.843 316.065 326.532 322.759 329.909 327.375C333.289 331.992 337.821 334.294 343.506 334.294C349.127 334.295 353.625 331.992 357.005 327.375Z" fill="#595959"/>
</g>
<defs>
<clipPath id="clip0_3348_6548">
<rect width="337" height="507" fill="white"/>
</clipPath>
</defs>
</svg>
