<svg width="49" height="50" viewBox="0 0 49 50" fill="none" xmlns="http://www.w3.org/2000/svg">
<g id="Capa_1" opacity="0.8" clip-path="url(#clip0_3086_710)">
<g id="Group">
<g id="Group_2">
<path id="Vector" d="M45.7724 0.637695H3.38113C1.62825 0.637695 0.201782 2.06416 0.201782 3.81704V46.2084C0.201782 47.9612 1.62825 49.3877 3.38113 49.3877H45.7724C47.5253 49.3877 48.9518 47.9612 48.9518 46.2084V3.81704C48.9518 2.06416 47.5253 0.637695 45.7724 0.637695ZM10.7996 2.75726H38.354V9.11596H10.7996V2.75726ZM2.32135 3.81704C2.32135 3.2331 2.79613 2.75726 3.38113 2.75726H8.68004V9.11596H2.32135V3.81704ZM46.8322 46.2084C46.8322 46.7923 46.3574 47.2681 45.7724 47.2681H3.38113C2.79613 47.2681 2.32135 46.7923 2.32135 46.2084V11.2355H46.8322V46.2084ZM46.8322 9.11596H40.4735V2.75726H45.7724C46.3574 2.75726 46.8322 3.2331 46.8322 3.81704V9.11596Z" fill="white"/>
</g>
</g>
<g id="Group_3">
<g id="Group_4">
<path id="Vector_2" d="M24.5785 17.5918C23.9924 17.5918 23.5187 18.0666 23.5187 18.6516V31.369C23.5187 31.954 23.9924 32.4288 24.5785 32.4288C25.1645 32.4288 25.6382 31.954 25.6382 31.369V18.6516C25.6382 18.0666 25.1645 17.5918 24.5785 17.5918Z" fill="white"/>
</g>
</g>
<g id="Group_5">
<g id="Group_6">
<path id="Vector_3" d="M24.5776 40.8993C25.7482 40.8993 26.6971 39.9503 26.6971 38.7797C26.6971 37.6091 25.7482 36.6602 24.5776 36.6602C23.407 36.6602 22.458 37.6091 22.458 38.7797C22.458 39.9503 23.407 40.8993 24.5776 40.8993Z" fill="white"/>
</g>
</g>
<g id="Group_7">
<g id="Group_8">
<path id="Vector_4" d="M42.3626 28.5887L33.8843 17.9898C33.5177 17.5331 32.8521 17.4578 32.3943 17.8245C31.9375 18.1901 31.8633 18.8567 32.229 19.3135L40.1784 29.25L32.229 39.1855C31.8633 39.6422 31.9386 40.3099 32.3943 40.6745C32.5903 40.8313 32.8235 40.9076 33.0556 40.9076C33.3672 40.9076 33.6745 40.772 33.8843 40.5102L42.3626 29.9124C42.6721 29.5256 42.6721 28.9755 42.3626 28.5887Z" fill="white"/>
</g>
</g>
<g id="Group_9">
<g id="Group_10">
<path id="Vector_5" d="M8.97771 29.2492L16.9271 19.3138C17.2928 18.8559 17.2186 18.1893 16.7618 17.8237C16.304 17.4581 15.6374 17.5333 15.2718 17.989L6.79349 28.5869C6.48404 28.9737 6.48404 29.5237 6.79349 29.9105L15.2718 40.5084C15.4816 40.7712 15.7889 40.9069 16.1005 40.9069C16.3326 40.9069 16.5658 40.8305 16.7618 40.6748C17.2186 40.3091 17.2928 39.6425 16.9271 39.1858L8.97771 29.2492Z" fill="white"/>
</g>
</g>
</g>
<defs>
<clipPath id="clip0_3086_710">
<rect width="48.75" height="48.75" fill="white" transform="translate(0.207886 0.625)"/>
</clipPath>
</defs>
</svg>
