<svg width="61" height="32" viewBox="0 0 61 32" fill="none" xmlns="http://www.w3.org/2000/svg">
<g id="&#60;Group&#62;">
<g id="&#60;Group&#62;_2">
<path id="&#60;Path&#62;" d="M53.6787 26.5449L49.3594 19.9902H54.3266V20.8001H50.828L54.359 26.1129L53.6787 26.5449Z" fill="white"/>
</g>
<path id="&#60;Compound Path&#62;" d="M60.999 0.552734V26.5444H53.6777V0.552734H60.999Z" fill="white"/>
<path id="&#60;Compound Path&#62;_2" d="M40.3642 9.49465V16.3624C40.3642 19.1484 39.3707 20.4118 37.5026 20.4118C35.6237 20.4118 34.6086 19.1484 34.6086 16.3624V10.1965C34.6086 7.41056 35.6237 6.14715 37.481 6.13635V0.0136719H37.4702C30.7212 0.0136719 27.2441 3.79311 27.2441 10.974V15.5741C27.2441 22.7983 30.7212 26.5453 37.5026 26.5453C44.2516 26.5453 47.7179 22.7983 47.7179 15.5741V9.49465H40.3642Z" fill="white"/>
<path id="&#60;Compound Path&#62;_3" fill-rule="evenodd" clip-rule="evenodd" d="M3.63867 15.5741V10.974C3.63867 3.79311 7.10495 0.0136719 13.8539 0.0136719C20.6353 0.0136719 24.1124 3.79311 24.1124 10.974V15.5741C24.1124 22.7983 20.6353 26.5453 13.8863 26.5453C7.10495 26.5453 3.63867 22.7983 3.63867 15.5741ZM16.7479 16.3624V10.1965C16.7479 7.39976 15.7653 6.13635 13.8863 6.13635C12.0182 6.13635 10.9924 7.39976 10.9924 10.1965V16.3624C10.9924 19.1484 12.0182 20.4118 13.8863 20.4118C15.7653 20.4118 16.7479 19.1484 16.7479 16.3624Z" fill="white"/>
<path id="&#60;Compound Path&#62;_4" d="M40.3642 9.49465V16.3624C40.3642 19.1484 39.3707 20.4118 37.5026 20.4118C35.6237 20.4118 34.6086 19.1484 34.6086 16.3624V10.1965C34.6086 7.41056 35.6237 6.14715 37.481 6.13635V0.0136719H37.4702C30.7212 0.0136719 27.2441 3.79311 27.2441 10.974V15.5741C27.2441 22.7983 30.7212 26.5453 37.5026 26.5453C44.2516 26.5453 47.7179 22.7983 47.7179 15.5741V9.49465H40.3642Z" fill="white"/>
<path id="&#60;Compound Path&#62;_5" d="M40.3642 9.49465V16.3624C40.3642 19.1484 39.3707 20.4118 37.5026 20.4118C35.6237 20.4118 34.6086 19.1484 34.6086 16.3624V10.1965C34.6086 7.41056 35.6237 6.14715 37.481 6.13635V0.0136719H37.4702C30.7212 0.0136719 27.2441 3.79311 27.2441 10.974V15.5741C27.2441 22.7983 30.7212 26.5453 37.5026 26.5453C44.2516 26.5453 47.7179 22.7983 47.7179 15.5741V9.49465H40.3642Z" fill="white"/>
<path id="&#60;Path&#62;_2" d="M5.18322 30.2499L0 25.0775L6.44663 18.6309L11.6299 23.8033L5.18322 30.2499Z" fill="white"/>
<g id="&#60;Group&#62;_3">
<g id="&#60;Group&#62;_4">
<g id="&#60;Group&#62;_5">
<g id="&#60;Group&#62;_6">
<path id="&#60;Path&#62;_3" d="M15.9506 31.0137H14.9355L15.8966 31.9747L16.9117 31.9855L15.9506 31.0137Z" fill="url(#paint0_linear_806_1566)"/>
</g>
</g>
<path id="&#60;Compound Path&#62;_6" d="M16.5559 30.4857V29.5246C16.5559 28.3908 16.0052 27.7969 14.9362 27.7969C13.8671 27.7969 13.3164 28.3908 13.3164 29.5246V30.2481C13.3164 31.3819 13.8671 31.9866 14.9362 31.9866V31.0148C14.6446 31.0148 14.4826 30.8204 14.4826 30.3777V29.4058C14.4826 28.9631 14.6446 28.7687 14.9362 28.7687C15.2385 28.7687 15.3897 28.9631 15.3897 29.4058V30.4857H16.5559Z" fill="white"/>
</g>
<path id="&#60;Path&#62;_4" d="M12.883 29.5246V30.0537H11.7168V29.4058C11.7168 28.9631 11.5656 28.7687 11.2633 28.7687C10.9717 28.7687 10.8097 28.9631 10.8097 29.4058V31.9866H9.6543V29.5246C9.6543 28.3908 10.1942 27.7969 11.2633 27.7969C12.3323 27.7969 12.883 28.3908 12.883 29.5246Z" fill="white"/>
<path id="&#60;Path&#62;_5" d="M11.9768 30.3574H10.8105L11.8148 31.9772H12.981L11.9768 30.3574Z" fill="white"/>
<path id="&#60;Path&#62;_6" d="M18.801 27.8613H18.002L18.6931 30.3018H19.4921L18.801 27.8613Z" fill="white"/>
<path id="&#60;Compound Path&#62;_7" fill-rule="evenodd" clip-rule="evenodd" d="M19.5671 30.0534L19.2539 28.952L19.783 27.8613H20.6361L19.5671 30.0534ZM19.8154 27.9369L19.3187 28.9628L19.5779 29.8698L20.5173 27.9369H19.8154Z" fill="white"/>
<path id="&#60;Path&#62;_7" d="M18.2713 27.8613V31.9755H17.375V27.8613H18.2713Z" fill="white"/>
<path id="&#60;Path&#62;_8" d="M20.6804 27.8613V31.9755H19.7949V27.8613H20.6804Z" fill="white"/>
</g>
<path id="&#60;Path&#62;_9" d="M37.4805 6.13635L43.5923 0.0244709L50.0066 0.0136719L43.8839 6.13635H37.4805Z" fill="url(#paint1_linear_806_1566)"/>
</g>
<defs>
<linearGradient id="paint0_linear_806_1566" x1="14.9363" y1="31.0146" x2="16.913" y2="31.0146" gradientUnits="userSpaceOnUse">
<stop stop-color="#62C4AA"/>
<stop offset="1" stop-color="#4C89D5"/>
</linearGradient>
<linearGradient id="paint1_linear_806_1566" x1="37.4837" y1="0.00967665" x2="50.0104" y2="0.00967665" gradientUnits="userSpaceOnUse">
<stop stop-color="#62C4AA"/>
<stop offset="1" stop-color="#4C89D5"/>
</linearGradient>
</defs>
</svg>
