<svg width="512" height="512" viewBox="0 0 512 512" fill="none" xmlns="http://www.w3.org/2000/svg">
<path d="M375.375 222.96C374.721 220.508 373.573 218.215 372.003 216.222C370.432 214.229 368.471 212.577 366.239 211.368L359.719 207.776C359.272 207.574 358.893 207.247 358.629 206.833C358.365 206.42 358.227 205.939 358.231 205.448C358.869 200.994 359.192 196.5 359.199 192C359.196 187.497 358.872 183.001 358.231 178.544C358.232 178.055 358.373 177.576 358.639 177.164C358.904 176.753 359.282 176.427 359.727 176.224L366.247 172.632C368.479 171.423 370.44 169.771 372.011 167.778C373.581 165.785 374.729 163.492 375.383 161.04C376.03 158.653 376.183 156.159 375.834 153.711C375.485 151.262 374.64 148.911 373.351 146.8L355.303 116.928C352.644 112.68 348.461 109.609 343.61 108.345C338.76 107.081 333.61 107.719 329.215 110.128L322.631 113.76C321.952 114.083 321.195 114.208 320.448 114.12C319.701 114.032 318.994 113.735 318.407 113.264C311.365 108.105 303.702 103.85 295.599 100.6C294.535 100.176 293.295 99.232 293.295 97.96V90.76C293.226 85.72 291.159 80.9136 287.549 77.3962C283.938 73.8788 279.08 71.938 274.039 72H237.959C232.922 71.9401 228.067 73.8808 224.458 77.3962C220.85 80.9116 218.783 85.7148 218.711 90.752V97.952C218.711 99.224 217.471 100.168 216.399 100.6C208.299 103.846 200.639 108.098 193.599 113.256C193.013 113.727 192.306 114.024 191.559 114.112C190.812 114.2 190.055 114.075 189.375 113.752L182.791 110.12C178.395 107.712 173.244 107.075 168.393 108.339C163.543 109.603 159.358 112.673 156.695 116.92L138.663 146.8C137.372 148.91 136.525 151.261 136.175 153.71C135.824 156.158 135.977 158.652 136.623 161.04C137.278 163.492 138.425 165.785 139.996 167.778C141.567 169.771 143.528 171.423 145.759 172.632L152.279 176.224C152.727 176.426 153.105 176.753 153.37 177.167C153.634 177.58 153.772 178.061 153.767 178.552C153.13 183.006 152.807 187.5 152.799 192C152.803 196.503 153.127 200.999 153.767 205.456C153.767 205.945 153.625 206.424 153.36 206.836C153.095 207.247 152.717 207.573 152.271 207.776L145.751 211.368C143.52 212.577 141.559 214.229 139.988 216.222C138.417 218.215 137.27 220.508 136.615 222.96C135.969 225.347 135.816 227.841 136.165 230.289C136.514 232.738 137.359 235.089 138.647 237.2L156.695 267.072C159.355 271.32 163.538 274.391 168.388 275.655C173.238 276.919 178.388 276.281 182.783 273.872L189.367 270.24C190.047 269.917 190.804 269.792 191.551 269.88C192.298 269.968 193.005 270.264 193.591 270.736C200.634 275.895 208.297 280.15 216.399 283.4C217.463 283.824 218.703 284.768 218.703 286.04V293.24C218.773 298.28 220.84 303.086 224.45 306.604C228.061 310.121 232.919 312.062 237.959 312H274.039C279.077 312.06 283.932 310.119 287.541 306.604C291.149 303.088 293.216 298.285 293.287 293.248V286.048C293.287 284.776 294.527 283.832 295.599 283.4C303.7 280.154 311.36 275.902 318.399 270.744C318.986 270.272 319.693 269.976 320.44 269.888C321.187 269.8 321.944 269.925 322.623 270.248L329.207 273.88C333.603 276.294 338.755 276.934 343.608 275.67C348.46 274.405 352.645 271.332 355.303 267.08L373.335 237.208C374.628 235.097 375.475 232.745 375.826 230.295C376.177 227.844 376.023 225.349 375.375 222.96ZM359.639 228.928L341.599 258.8C341.091 259.522 340.333 260.03 339.472 260.227C338.61 260.423 337.707 260.294 336.935 259.864L330.351 256.232C326.999 254.434 323.204 253.63 319.41 253.914C315.617 254.197 311.983 255.556 308.935 257.832C302.982 262.198 296.502 265.794 289.647 268.536C286.068 269.876 282.974 272.262 280.768 275.383C278.562 278.505 277.347 282.218 277.279 286.04V293.24C277.208 294.033 276.827 294.767 276.22 295.282C275.612 295.797 274.826 296.052 274.031 295.992H237.951C237.157 296.052 236.371 295.797 235.763 295.282C235.155 294.767 234.775 294.033 234.703 293.24V286.04C234.637 282.22 233.423 278.508 231.219 275.388C229.014 272.267 225.922 269.883 222.343 268.544C215.485 265.798 209.002 262.196 203.047 257.824C199.547 255.243 195.316 253.842 190.967 253.824C187.703 253.822 184.491 254.648 181.631 256.224L175.047 259.856C174.276 260.28 173.375 260.406 172.517 260.21C171.659 260.014 170.902 259.509 170.391 258.792L152.343 228.92C152.173 228.65 152.061 228.348 152.014 228.033C151.967 227.717 151.987 227.395 152.071 227.088C152.174 226.718 152.352 226.374 152.596 226.077C152.84 225.781 153.144 225.539 153.487 225.368L160.007 221.768C163.292 220.001 165.966 217.282 167.677 213.969C169.389 210.655 170.059 206.901 169.599 203.2C169.069 199.49 168.802 195.748 168.799 192C168.805 188.253 169.072 184.51 169.599 180.8C170.061 177.095 169.391 173.338 167.677 170.021C165.964 166.705 163.287 163.984 159.999 162.216L153.479 158.624C153.136 158.453 152.832 158.211 152.588 157.915C152.344 157.618 152.166 157.274 152.063 156.904C151.978 156.596 151.959 156.274 152.007 155.958C152.056 155.642 152.17 155.34 152.343 155.072L170.399 125.2C170.912 124.482 171.669 123.977 172.529 123.781C173.389 123.585 174.291 123.711 175.063 124.136L181.647 127.768C185 129.565 188.795 130.37 192.588 130.086C196.382 129.803 200.015 128.444 203.063 126.168C209.017 121.802 215.497 118.206 222.351 115.464C225.931 114.124 229.025 111.738 231.231 108.617C233.437 105.495 234.652 101.782 234.719 97.96V90.76C234.789 89.9666 235.168 89.2324 235.774 88.7159C236.38 88.1995 237.165 87.9423 237.959 88H274.039C274.834 87.94 275.62 88.1951 276.228 88.7101C276.835 89.2251 277.216 89.9585 277.287 90.752V97.952C277.354 101.772 278.568 105.484 280.772 108.604C282.977 111.724 286.069 114.109 289.647 115.448C296.506 118.194 302.989 121.796 308.943 126.168C311.991 128.444 315.625 129.803 319.418 130.086C323.212 130.37 327.007 129.565 330.359 127.768L336.943 124.136C337.714 123.707 338.616 123.578 339.476 123.774C340.336 123.971 341.092 124.479 341.599 125.2L359.647 155.072C359.818 155.342 359.93 155.644 359.977 155.959C360.024 156.275 360.004 156.597 359.919 156.904C359.817 157.274 359.638 157.618 359.394 157.915C359.15 158.211 358.847 158.453 358.503 158.624L351.983 162.224C348.699 163.993 346.026 166.713 344.316 170.028C342.605 173.343 341.937 177.098 342.399 180.8C342.93 184.51 343.197 188.252 343.199 192C343.194 195.747 342.927 199.49 342.399 203.2C341.938 206.904 342.608 210.662 344.322 213.979C346.035 217.295 348.711 220.016 351.999 221.784L358.519 225.376C358.863 225.547 359.166 225.789 359.41 226.085C359.654 226.382 359.833 226.726 359.935 227.096C360.018 227.405 360.035 227.728 359.984 228.044C359.933 228.359 359.815 228.661 359.639 228.928Z" fill="white"/>
<path d="M256 136C244.924 136 234.097 139.284 224.888 145.438C215.679 151.591 208.501 160.337 204.263 170.57C200.024 180.802 198.915 192.062 201.076 202.925C203.237 213.788 208.57 223.766 216.402 231.598C224.234 239.43 234.212 244.763 245.075 246.924C255.938 249.085 267.198 247.976 277.43 243.737C287.663 239.499 296.409 232.321 302.562 223.112C308.716 213.903 312 203.076 312 192C311.983 177.153 306.078 162.919 295.579 152.421C285.081 141.922 270.847 136.017 256 136ZM256 232C248.089 232 240.355 229.654 233.777 225.259C227.199 220.864 222.072 214.616 219.045 207.307C216.017 199.998 215.225 191.956 216.769 184.196C218.312 176.437 222.122 169.31 227.716 163.716C233.31 158.122 240.437 154.312 248.196 152.769C255.956 151.225 263.998 152.017 271.307 155.045C278.616 158.072 284.864 163.199 289.259 169.777C293.654 176.355 296 184.089 296 192C295.987 202.605 291.769 212.772 284.27 220.27C276.772 227.769 266.605 231.987 256 232Z" fill="white"/>
<path d="M240 496V384C239.999 381.878 239.156 379.844 237.656 378.344L221.656 362.344L210.344 373.656L224 387.312V496H240Z" fill="white"/>
<path d="M208 344C208 339.253 206.592 334.613 203.955 330.666C201.318 326.72 197.57 323.643 193.184 321.827C188.799 320.01 183.973 319.535 179.318 320.461C174.662 321.387 170.386 323.673 167.029 327.029C163.673 330.386 161.387 334.662 160.461 339.318C159.535 343.973 160.01 348.799 161.827 353.184C163.643 357.57 166.72 361.318 170.666 363.955C174.613 366.592 179.253 368 184 368C190.365 368 196.47 365.471 200.971 360.971C205.471 356.47 208 350.365 208 344ZM176 344C176 342.418 176.469 340.871 177.348 339.555C178.227 338.24 179.477 337.214 180.939 336.609C182.4 336.003 184.009 335.845 185.561 336.154C187.113 336.462 188.538 337.224 189.657 338.343C190.776 339.462 191.538 340.887 191.846 342.439C192.155 343.991 191.997 345.6 191.391 347.061C190.786 348.523 189.76 349.773 188.445 350.652C187.129 351.531 185.582 352 184 352C181.878 352 179.843 351.157 178.343 349.657C176.843 348.157 176 346.122 176 344Z" fill="white"/>
<path d="M104 400C104 404.747 105.408 409.387 108.045 413.334C110.682 417.28 114.43 420.357 118.816 422.173C123.201 423.99 128.027 424.465 132.682 423.539C137.338 422.613 141.614 420.327 144.971 416.971C148.327 413.614 150.613 409.338 151.539 404.682C152.465 400.027 151.99 395.201 150.173 390.816C148.357 386.43 145.28 382.682 141.334 380.045C137.387 377.408 132.747 376 128 376C121.635 376 115.53 378.529 111.029 383.029C106.529 387.53 104 393.635 104 400ZM136 400C136 401.582 135.531 403.129 134.652 404.445C133.773 405.76 132.523 406.786 131.061 407.391C129.6 407.997 127.991 408.155 126.439 407.846C124.887 407.538 123.462 406.776 122.343 405.657C121.224 404.538 120.462 403.113 120.154 401.561C119.845 400.009 120.003 398.4 120.609 396.939C121.214 395.477 122.24 394.227 123.555 393.348C124.871 392.469 126.418 392 128 392C130.122 392 132.157 392.843 133.657 394.343C135.157 395.843 136 397.878 136 400Z" fill="white"/>
<path d="M184 496V440C183.999 437.878 183.156 435.844 181.656 434.344L165.656 418.344L154.344 429.656L168 443.312V496H184Z" fill="white"/>
<path d="M274.344 378.344C272.844 379.844 272 381.878 272 384V496H288V387.312L301.656 373.656L290.344 362.344L274.344 378.344Z" fill="white"/>
<path d="M352 344C352 339.253 350.592 334.613 347.955 330.666C345.318 326.72 341.57 323.643 337.184 321.827C332.799 320.01 327.973 319.535 323.318 320.461C318.662 321.387 314.386 323.673 311.029 327.029C307.673 330.386 305.387 334.662 304.461 339.318C303.535 343.973 304.01 348.799 305.827 353.184C307.643 357.57 310.72 361.318 314.666 363.955C318.613 366.592 323.253 368 328 368C334.365 368 340.47 365.471 344.971 360.971C349.471 356.47 352 350.365 352 344ZM320 344C320 342.418 320.469 340.871 321.348 339.555C322.227 338.24 323.477 337.214 324.939 336.609C326.4 336.003 328.009 335.845 329.561 336.154C331.113 336.462 332.538 337.224 333.657 338.343C334.776 339.462 335.538 340.887 335.846 342.439C336.155 343.991 335.997 345.6 335.391 347.061C334.786 348.523 333.76 349.773 332.445 350.652C331.129 351.531 329.582 352 328 352C325.878 352 323.843 351.157 322.343 349.657C320.843 348.157 320 346.122 320 344Z" fill="white"/>
<path d="M384 424C388.747 424 393.387 422.592 397.334 419.955C401.28 417.318 404.357 413.57 406.173 409.184C407.99 404.799 408.465 399.973 407.539 395.318C406.613 390.662 404.327 386.386 400.971 383.029C397.614 379.673 393.338 377.387 388.682 376.461C384.027 375.535 379.201 376.01 374.816 377.827C370.43 379.643 366.682 382.72 364.045 386.666C361.408 390.613 360 395.253 360 400C360 406.365 362.529 412.47 367.029 416.971C371.53 421.471 377.635 424 384 424ZM384 392C385.582 392 387.129 392.469 388.445 393.348C389.76 394.227 390.786 395.477 391.391 396.939C391.997 398.4 392.155 400.009 391.846 401.561C391.538 403.113 390.776 404.538 389.657 405.657C388.538 406.776 387.113 407.538 385.561 407.846C384.009 408.155 382.4 407.997 380.939 407.391C379.477 406.786 378.227 405.76 377.348 404.445C376.469 403.129 376 401.582 376 400C376 397.878 376.843 395.843 378.343 394.343C379.843 392.843 381.878 392 384 392Z" fill="white"/>
<path d="M344 443.312L357.656 429.656L346.344 418.344L330.344 434.344C328.844 435.844 328 437.878 328 440V496H344V443.312Z" fill="white"/>
<path d="M20.2644 157.12L43.5604 169.432C32.3715 202.82 29.2458 238.383 34.4392 273.212C39.6326 308.04 52.9974 341.144 73.4404 369.816L86.4724 360.536C67.7493 334.283 55.4177 304.02 50.4606 272.157C45.5035 240.295 48.058 207.716 57.9204 177.016L76.8484 187.024C78.1288 187.7 79.5687 188.017 81.0147 187.939C82.4607 187.861 83.8586 187.393 85.0592 186.583C86.2597 185.773 87.218 184.653 87.8318 183.342C88.4456 182.03 88.6919 180.576 88.5444 179.136L82.9444 124.68C103.388 93.9651 131.639 69.2458 164.796 53.0609C197.952 36.876 234.82 29.8089 271.612 32.5854C308.403 35.362 343.792 47.8821 374.145 68.8599C404.497 89.8376 428.718 118.517 444.32 151.952L424.016 157.232C422.615 157.595 421.338 158.332 420.322 159.365C419.306 160.397 418.589 161.686 418.249 163.093C417.908 164.501 417.956 165.975 418.387 167.357C418.818 168.74 419.616 169.979 420.696 170.944L461.248 207.136C463.063 217.997 463.983 228.988 464 240C464.1 283.274 450.607 325.487 425.424 360.68L438.456 369.976C465.573 332.07 480.104 286.606 480 240C479.985 228.188 479.012 216.398 477.088 204.744L495.552 151.504C496.029 150.133 496.123 148.659 495.826 147.238C495.528 145.818 494.85 144.505 493.863 143.441C492.877 142.377 491.62 141.601 490.226 141.196C488.833 140.791 487.355 140.773 485.952 141.144L460.04 147.872C443.58 111.37 417.631 79.9518 384.897 56.8913C352.162 33.8307 313.842 19.9723 273.93 16.7605C234.018 13.5486 193.974 21.1009 157.974 38.6302C121.974 56.1595 91.3338 83.0241 69.2484 116.424L20.1844 143.008C18.9103 143.698 17.8475 144.721 17.1095 145.968C16.3715 147.215 15.9861 148.639 15.9943 150.088C16.0025 151.537 16.4041 152.956 17.1561 154.195C17.9082 155.433 18.9826 156.444 20.2644 157.12ZM475.536 160.384L465.472 189.424L442.528 168.96L475.536 160.384ZM68.0004 135.312L71.1284 165.888L40.9684 149.952L68.0004 135.312Z" fill="white"/>
</svg>
