<svg width="512" height="512" viewBox="0 0 512 512" fill="none" xmlns="http://www.w3.org/2000/svg">
<g clip-path="url(#clip0_2580_4630)">
<path d="M213.334 341.333H298.668C312.806 341.333 324.268 329.872 324.268 315.733V238.933C324.268 224.795 312.806 213.333 298.668 213.333V196.267C298.668 172.703 279.565 153.6 256.001 153.6C232.437 153.6 213.334 172.703 213.334 196.267V213.333C199.196 213.333 187.734 224.795 187.734 238.933V315.733C187.734 329.872 199.196 341.333 213.334 341.333ZM230.401 196.267C230.401 182.128 241.863 170.667 256.001 170.667C270.14 170.667 281.601 182.128 281.601 196.267V213.333H230.401V196.267ZM204.801 238.933C204.801 234.221 208.622 230.4 213.334 230.4H298.668C303.381 230.4 307.201 234.221 307.201 238.933V315.733C307.201 320.446 303.381 324.267 298.668 324.267H213.334C208.622 324.267 204.801 320.446 204.801 315.733V238.933Z" fill="white"/>
<path d="M247.468 297.097V298.667C247.468 303.38 251.288 307.2 256.001 307.2C260.714 307.2 264.534 303.38 264.534 298.667V297.097C276.289 292.941 283.341 280.92 281.232 268.632C279.124 256.343 268.469 247.361 256.001 247.361C243.533 247.361 232.878 256.343 230.77 268.632C228.661 280.92 235.712 292.941 247.468 297.097ZM256.001 264.534C260.714 264.534 264.534 268.354 264.534 273.067C264.534 277.78 260.714 281.6 256.001 281.6C251.288 281.6 247.468 277.78 247.468 273.067C247.468 268.354 251.288 264.534 256.001 264.534Z" fill="white"/>
<path d="M110.934 256C110.934 336.118 175.882 401.067 256 401.067C336.118 401.067 401.067 336.118 401.067 256C401.067 175.882 336.118 110.934 256 110.934C175.919 111.023 111.023 175.919 110.934 256ZM256 128C326.693 128 384 185.308 384 256C384 326.693 326.693 384 256 384C185.308 384 128 326.693 128 256C128.08 185.341 185.341 128.08 256 128Z" fill="white"/>
<path d="M426.668 443.733C411.151 443.792 397.625 454.309 393.746 469.333H332.801V417.749C351.88 408.768 369.215 396.475 384.001 381.44C386.187 379.273 387.037 376.098 386.225 373.129C385.413 370.16 383.065 367.859 380.081 367.106C377.097 366.353 373.938 367.265 371.815 369.493C357.327 384.306 340.128 396.198 321.153 404.523C320.007 404.978 318.976 405.68 318.132 406.579C318.038 406.682 317.987 406.818 317.893 406.938C317.269 407.632 316.765 408.425 316.4 409.284C316.233 409.82 316.121 410.372 316.067 410.931C315.909 411.414 315.797 411.912 315.734 412.416V412.57V469.333C315.734 478.759 323.375 486.4 332.801 486.4H393.746C398.211 503.532 415.051 514.39 432.498 511.387C449.946 508.384 462.186 492.52 460.666 474.881C459.146 457.243 444.371 443.707 426.668 443.733ZM426.668 494.933C417.242 494.933 409.601 487.292 409.601 477.867C409.601 468.441 417.242 460.8 426.668 460.8C436.093 460.8 443.734 468.441 443.734 477.867C443.734 487.292 436.093 494.933 426.668 494.933Z" fill="white"/>
<path d="M67.0558 349.867H108.289C108.357 349.867 108.417 349.824 108.494 349.824C109.343 349.786 110.18 349.616 110.977 349.321C111.375 349.19 111.763 349.031 112.137 348.843C112.231 348.792 112.342 348.775 112.436 348.715C112.53 348.655 112.675 348.476 112.812 348.382C113.586 347.905 114.272 347.299 114.843 346.59C114.943 346.458 115.037 346.322 115.124 346.181C115.677 345.403 116.092 344.538 116.353 343.621C116.353 343.493 116.404 343.365 116.43 343.237C116.636 342.62 116.768 341.981 116.822 341.334C116.778 341.011 116.713 340.692 116.626 340.378C116.626 340.267 116.626 340.165 116.566 340.045C116.421 339.044 116.095 338.078 115.602 337.195L115.559 337.058C106.809 321.954 100.578 305.526 97.1102 288.418C96.1677 283.8 91.6595 280.82 87.0409 281.762C82.4223 282.705 79.4423 287.213 80.3849 291.832C83.256 305.989 87.8409 319.743 94.0382 332.792H67.0558C62.7587 316.149 46.7569 305.298 29.7054 307.464C12.654 309.63 -0.126953 324.137 -0.126953 341.325C-0.126953 358.514 12.654 373.021 29.7054 375.186C46.7569 377.352 62.7587 366.51 67.0558 349.867ZM34.1342 358.4C24.7086 358.4 17.0676 350.759 17.0676 341.334C17.0676 331.908 24.7086 324.267 34.1342 324.267C43.5599 324.267 51.2009 331.908 51.2009 341.334C51.2009 350.759 43.5599 358.4 34.1342 358.4Z" fill="white"/>
<path d="M2.67537e-05 170.667C-0.0213207 187.834 12.7349 202.335 29.7647 204.502C46.7945 206.669 62.776 195.826 67.055 179.2H108.288H108.518C109.36 179.152 110.191 178.983 110.985 178.697C111.36 178.577 111.725 178.429 112.077 178.253C112.532 178.013 112.961 177.728 113.357 177.4C114.077 176.857 114.7 176.196 115.2 175.446C115.311 175.284 115.456 175.164 115.558 174.993C126.5 156.005 141.184 139.437 158.72 126.294C161.159 124.464 162.437 121.473 162.072 118.446C161.707 115.419 159.756 112.817 156.952 111.62C154.149 110.422 150.919 110.811 148.48 112.64C130.522 126.168 115.274 142.959 103.535 162.134H67.055C62.776 145.508 46.7945 134.665 29.7647 136.832C12.7349 138.999 -0.0213207 153.5 2.67537e-05 170.667ZM51.2001 170.667C51.2001 180.093 43.559 187.734 34.1334 187.734C24.7077 187.734 17.0667 180.093 17.0667 170.667C17.0667 161.241 24.7077 153.6 34.1334 153.6C38.6597 153.6 43.0007 155.398 46.2013 158.599C49.402 161.8 51.2001 166.141 51.2001 170.667Z" fill="white"/>
<path d="M477.868 307.2C462.351 307.258 448.825 317.776 444.946 332.8H417.955C424.158 319.754 428.743 305.999 431.608 291.84C432.551 287.219 429.569 282.709 424.948 281.767C420.327 280.824 415.817 283.806 414.875 288.427C411.413 305.534 405.187 321.962 396.443 337.067V337.178C395.933 338.08 395.597 339.07 395.453 340.096C395.453 340.19 395.453 340.276 395.393 340.369C395.305 340.687 395.234 341.009 395.18 341.334C395.231 342.004 395.363 342.666 395.572 343.305C395.572 343.416 395.572 343.527 395.64 343.638C395.905 344.558 396.33 345.424 396.895 346.198C396.98 346.326 397.048 346.454 397.142 346.573C397.72 347.285 398.412 347.896 399.19 348.382C399.327 348.476 399.412 348.621 399.557 348.706C399.702 348.792 399.762 348.783 399.856 348.834C400.235 349.028 400.629 349.191 401.034 349.321C401.827 349.607 402.658 349.774 403.5 349.816C403.576 349.816 403.636 349.858 403.713 349.858H444.946C449.407 366.992 466.247 377.855 483.696 374.855C501.145 371.854 513.388 355.989 511.868 338.35C510.349 320.71 495.573 307.173 477.868 307.2ZM477.868 358.4C468.442 358.4 460.801 350.759 460.801 341.334C460.801 331.908 468.442 324.267 477.868 324.267C487.293 324.267 494.934 331.908 494.934 341.334C494.934 350.759 487.293 358.4 477.868 358.4Z" fill="white"/>
<path d="M196.267 412.561V412.416C196.212 411.937 196.118 411.463 195.985 411C195.925 410.421 195.808 409.849 195.635 409.293C195.276 408.447 194.78 407.666 194.168 406.981C194.057 406.853 194.005 406.699 193.895 406.58C193.048 405.68 192.014 404.978 190.865 404.523C168.528 394.664 148.683 379.928 132.787 361.396C130.832 358.989 127.725 357.832 124.672 358.374C121.619 358.916 119.1 361.071 118.093 364.004C117.086 366.937 117.749 370.186 119.825 372.489C136.236 391.591 156.46 407.048 179.2 417.869V469.334H118.255C113.958 452.691 97.9561 441.84 80.9047 444.006C63.8532 446.172 51.0723 460.679 51.0723 477.867C51.0723 495.055 63.8532 509.563 80.9047 511.728C97.9561 513.894 113.958 503.043 118.255 486.4H179.2C188.626 486.4 196.267 478.759 196.267 469.334V412.561ZM85.3335 494.934C75.9078 494.934 68.2668 487.293 68.2668 477.867C68.2668 468.441 75.9078 460.8 85.3335 460.8C94.7591 460.8 102.4 468.441 102.4 477.867C102.4 487.293 94.7591 494.934 85.3335 494.934Z" fill="white"/>
<path d="M288.428 414.891C267.024 419.189 244.978 419.189 223.574 414.891C220.555 414.198 217.398 415.196 215.325 417.498C213.252 419.8 212.59 423.044 213.594 425.975C214.598 428.905 217.112 431.061 220.161 431.607C229.169 433.358 238.298 434.416 247.468 434.773V503.467C247.468 508.179 251.288 512 256.001 512C260.714 512 264.534 508.179 264.534 503.467V434.773C273.704 434.417 282.833 433.358 291.841 431.607C296.356 430.572 299.221 426.122 298.294 421.583C297.367 417.044 292.988 414.073 288.428 414.891Z" fill="white"/>
<path d="M179.2 25.6001H118.255C113.958 8.95747 97.9561 -1.89368 80.9047 0.272138C63.8532 2.43795 51.0723 16.945 51.0723 34.1334C51.0723 51.3218 63.8532 65.8289 80.9047 67.9947C97.9561 70.1605 113.958 59.3094 118.255 42.6668H179.2V99.6012C179.2 99.9425 179.362 100.275 179.405 100.617C179.494 101.5 179.722 102.364 180.079 103.177C180.434 103.937 180.906 104.637 181.479 105.25C181.764 105.56 182.076 105.845 182.409 106.104C182.826 106.446 183.275 106.748 183.748 107.008C184.143 107.227 184.554 107.415 184.977 107.571C185.587 107.765 186.217 107.891 186.855 107.947C187.135 108.023 187.42 108.083 187.708 108.126C188.931 108.1 190.133 107.809 191.232 107.273C201.627 102.765 212.467 99.3616 223.573 97.118C228.194 96.1754 231.176 91.6653 230.234 87.0443C229.291 82.4234 224.781 79.4415 220.16 80.3841C212.05 82.0434 204.066 84.2675 196.267 87.0401V42.6668C196.267 33.2411 188.626 25.6001 179.2 25.6001ZM85.3335 51.2001C75.9078 51.2001 68.2668 43.5591 68.2668 34.1334C68.2668 24.7078 75.9078 17.0668 85.3335 17.0668C94.7591 17.0668 102.4 24.7078 102.4 34.1334C102.4 38.6598 100.602 43.0008 97.4014 46.2014C94.2008 49.402 89.8598 51.2001 85.3335 51.2001Z" fill="white"/>
<path d="M393.746 42.6668C398.043 59.3094 414.045 70.1605 431.097 67.9947C448.148 65.8289 460.929 51.3218 460.929 34.1334C460.929 16.945 448.148 2.43795 431.097 0.272138C414.045 -1.89368 398.043 8.95747 393.746 25.6001H332.801C323.375 25.6001 315.734 33.2411 315.734 42.6668V99.422V99.5756C315.786 100.079 315.886 100.576 316.033 101.06C316.087 101.619 316.199 102.171 316.366 102.707C316.73 103.567 317.235 104.36 317.859 105.054C317.953 105.165 318.004 105.31 318.098 105.412C318.941 106.312 319.973 107.014 321.119 107.469C340.09 115.781 357.289 127.658 371.781 142.456C373.874 144.781 377.071 145.775 380.114 145.046C383.156 144.316 385.555 141.981 386.366 138.959C387.177 135.938 386.269 132.715 384.001 130.56C369.215 115.525 351.88 103.232 332.801 94.2508V42.6668H393.746ZM426.668 17.0668C436.093 17.0668 443.734 24.7078 443.734 34.1334C443.734 43.5591 436.093 51.2001 426.668 51.2001C417.242 51.2001 409.601 43.5591 409.601 34.1334C409.601 24.7078 417.242 17.0668 426.668 17.0668Z" fill="white"/>
<path d="M256 0C251.287 0 247.467 3.8205 247.467 8.53333V85.3333C247.467 90.0462 251.287 93.8667 256 93.8667C266.89 93.8644 277.753 94.9507 288.427 97.1093C288.988 97.2248 289.56 97.282 290.133 97.28C294.502 97.2633 298.152 93.9507 298.591 89.6048C299.03 85.2588 296.117 81.2829 291.84 80.3925C282.832 78.6417 273.703 77.5833 264.533 77.2267V8.53333C264.533 3.8205 260.713 0 256 0Z" fill="white"/>
<path d="M444.946 179.2C449.243 195.843 465.245 206.694 482.296 204.528C499.348 202.362 512.129 187.855 512.129 170.667C512.129 153.478 499.348 138.971 482.296 136.805C465.245 134.64 449.243 145.491 444.946 162.133H403.713C403.551 162.133 403.423 162.219 403.269 162.219C402.775 162.272 402.286 162.372 401.81 162.517C401.109 162.656 400.429 162.885 399.788 163.2C399.719 163.2 399.634 163.2 399.557 163.285C399.48 163.371 399.335 163.516 399.19 163.61C398.412 164.095 397.72 164.707 397.142 165.419C397.048 165.538 396.98 165.666 396.895 165.794C396.33 166.567 395.905 167.434 395.64 168.354C395.64 168.465 395.64 168.576 395.572 168.687C395.362 169.329 395.231 169.993 395.18 170.667C395.225 170.994 395.288 171.319 395.367 171.639C395.367 171.733 395.41 171.819 395.427 171.912C395.571 172.939 395.907 173.929 396.417 174.831V174.942C410.649 199.585 418.139 227.542 418.134 256C418.134 260.713 421.955 264.533 426.668 264.533H503.468C508.181 264.533 512.001 260.713 512.001 256C512.001 251.287 508.181 247.467 503.468 247.467H434.919C433.801 223.806 428 200.603 417.853 179.2H444.946ZM477.868 153.6C487.293 153.6 494.934 161.241 494.934 170.667C494.934 180.092 487.293 187.733 477.868 187.733C468.442 187.733 460.801 180.092 460.801 170.667C460.801 161.241 468.442 153.6 477.868 153.6Z" fill="white"/>
<path d="M8.53333 264.533H85.3333C90.0462 264.533 93.8667 260.713 93.8667 256C93.8486 238.758 96.5824 221.624 101.965 205.244C102.918 202.348 102.253 199.163 100.221 196.89C98.189 194.617 95.0988 193.6 92.1142 194.223C89.1296 194.846 86.7042 197.014 85.7515 199.91C80.7384 215.299 77.839 231.298 77.1328 247.467H8.53333C3.8205 247.467 0 251.287 0 256C0 260.713 3.8205 264.533 8.53333 264.533Z" fill="white"/>
</g>
<defs>
<clipPath id="clip0_2580_4630">
<rect width="512" height="512" fill="white"/>
</clipPath>
</defs>
</svg>
