<svg width="66" height="35" viewBox="0 0 66 35" fill="none" xmlns="http://www.w3.org/2000/svg">
<g id="logo" clip-path="url(#clip0_1699_1467)">
<g id="&#60;Group&#62;">
<path id="&#60;Path&#62;" d="M57.6886 28.6399L53.0781 21.6436H58.3801V22.508H54.6457L58.4147 28.1789L57.6886 28.6399Z" fill="#152A54"/>
</g>
<path id="&#60;Compound Path&#62;" d="M65.5003 0.895508V28.639H57.6855V0.895508H65.5003Z" fill="#152A54"/>
<path id="&#60;Compound Path&#62;_2" d="M43.4749 10.4393V17.7699C43.4749 20.7437 42.4145 22.0922 40.4205 22.0922C38.415 22.0922 37.3315 20.7437 37.3315 17.7699V11.1885C37.3315 8.21475 38.415 6.86619 40.3975 6.85466V0.319336H40.386C33.1821 0.319336 29.4707 4.35349 29.4707 12.0184V16.9285C29.4707 24.6395 33.1821 28.6391 40.4205 28.6391C47.6244 28.6391 51.3242 24.6395 51.3242 16.9285V10.4393H43.4749Z" fill="#152A54"/>
<path id="&#60;Compound Path&#62;_3" fill-rule="evenodd" clip-rule="evenodd" d="M4.27539 16.9285V12.0184C4.27539 4.35349 7.97527 0.319336 15.1791 0.319336C22.4175 0.319336 26.1289 4.35349 26.1289 12.0184V16.9285C26.1289 24.6395 22.4175 28.6391 15.2137 28.6391C7.97528 28.6391 4.27539 24.6395 4.27539 16.9285ZM18.2681 17.7699V11.1885C18.2681 8.20322 17.2192 6.85466 15.2137 6.85466C13.2197 6.85466 12.1247 8.20322 12.1247 11.1885V17.7699C12.1247 20.7437 13.2197 22.0922 15.2137 22.0922C17.2192 22.0922 18.2681 20.7437 18.2681 17.7699Z" fill="#152A54"/>
<path id="&#60;Compound Path&#62;_4" d="M43.4749 10.4393V17.7699C43.4749 20.7437 42.4145 22.0922 40.4205 22.0922C38.415 22.0922 37.3315 20.7437 37.3315 17.7699V11.1885C37.3315 8.21475 38.415 6.86619 40.3975 6.85466V0.319336H40.386C33.1821 0.319336 29.4707 4.35349 29.4707 12.0184V16.9285C29.4707 24.6395 33.1821 28.6391 40.4205 28.6391C47.6244 28.6391 51.3242 24.6395 51.3242 16.9285V10.4393H43.4749Z" fill="#152A54"/>
<path id="&#60;Compound Path&#62;_5" d="M43.4749 10.4393V17.7699C43.4749 20.7437 42.4145 22.0922 40.4205 22.0922C38.415 22.0922 37.3315 20.7437 37.3315 17.7699V11.1885C37.3315 8.21475 38.415 6.86619 40.3975 6.85466V0.319336H40.386C33.1821 0.319336 29.4707 4.35349 29.4707 12.0184V16.9285C29.4707 24.6395 33.1821 28.6391 40.4205 28.6391C47.6244 28.6391 51.3242 24.6395 51.3242 16.9285V10.4393H43.4749Z" fill="#152A54"/>
<path id="&#60;Path&#62;_2" d="M5.92317 32.5926L0.390625 27.0715L7.27172 20.1904L12.8043 25.7115L5.92317 32.5926Z" fill="#152A54"/>
<g id="&#60;Group&#62;_2">
<g id="&#60;Group&#62;_3">
<g id="&#60;Group&#62;_4">
<g id="&#60;Group&#62;_5">
<path id="&#60;Path&#62;_3" d="M17.4126 33.4092H16.3291L17.3549 34.435L18.4384 34.4465L17.4126 33.4092Z" fill="url(#paint0_linear_1699_1467)"/>
</g>
</g>
<path id="&#60;Compound Path&#62;_6" d="M18.0614 32.8436V31.8178C18.0614 30.6076 17.4735 29.9736 16.3324 29.9736C15.1913 29.9736 14.6035 30.6076 14.6035 31.8178V32.5901C14.6035 33.8003 15.1913 34.4458 16.3324 34.4458V33.4084C16.0212 33.4084 15.8483 33.201 15.8483 32.7284V31.691C15.8483 31.2185 16.0212 31.011 16.3324 31.011C16.6552 31.011 16.8165 31.2185 16.8165 31.691V32.8436H18.0614Z" fill="#152A54"/>
</g>
<path id="&#60;Path&#62;_4" d="M14.1416 31.8178V32.3826H12.8968V31.691C12.8968 31.2185 12.7354 31.011 12.4127 31.011C12.1015 31.011 11.9286 31.2185 11.9286 31.691V34.4458H10.6953V31.8178C10.6953 30.6076 11.2716 29.9736 12.4127 29.9736C13.5538 29.9736 14.1416 30.6076 14.1416 31.8178Z" fill="#152A54"/>
<path id="&#60;Path&#62;_5" d="M13.1745 32.7061H11.9297L13.0016 34.435H14.2464L13.1745 32.7061Z" fill="#152A54"/>
<path id="&#60;Path&#62;_6" d="M20.4584 30.0439H19.6055L20.3431 32.6489H21.1961L20.4584 30.0439Z" fill="#152A54"/>
<path id="&#60;Compound Path&#62;_7" fill-rule="evenodd" clip-rule="evenodd" d="M21.2757 32.3838L20.9414 31.2081L21.5062 30.0439H22.4168L21.2757 32.3838ZM21.5408 30.1246L21.0106 31.2196L21.2872 32.1878L22.29 30.1246H21.5408Z" fill="#152A54"/>
<path id="&#60;Path&#62;_7" d="M19.8922 30.0439V34.4354H18.9355V30.0439H19.8922Z" fill="#152A54"/>
<path id="&#60;Path&#62;_8" d="M22.4647 30.0449V34.4364H21.5195V30.0449H22.4647Z" fill="#152A54"/>
</g>
<path id="&#60;Path&#62;_9" d="M40.3965 6.85466L46.9203 0.330863L53.7668 0.319336L47.2315 6.85466H40.3965Z" fill="url(#paint1_linear_1699_1467)"/>
</g>
<defs>
<linearGradient id="paint0_linear_1699_1467" x1="16.3299" y1="33.4102" x2="18.4398" y2="33.4102" gradientUnits="userSpaceOnUse">
<stop stop-color="#62C4AA"/>
<stop offset="1" stop-color="#4C89D5"/>
</linearGradient>
<linearGradient id="paint1_linear_1699_1467" x1="40.3999" y1="0.315071" x2="53.7708" y2="0.315071" gradientUnits="userSpaceOnUse">
<stop stop-color="#62C4AA"/>
<stop offset="1" stop-color="#4C89D5"/>
</linearGradient>
<clipPath id="clip0_1699_1467">
<rect width="65.1096" height="34.1278" fill="white" transform="translate(0.390625 0.319336)"/>
</clipPath>
</defs>
</svg>
