<?xml version="1.0" encoding="UTF-8"?>
<svg id="Layer_1" xmlns="http://www.w3.org/2000/svg" xmlns:xlink="http://www.w3.org/1999/xlink" version="1.1" viewBox="0 0 63.21 63.18">
  <!-- Generator: Adobe Illustrator 29.0.1, SVG Export Plug-In . SVG Version: 2.1.0 Build 192)  -->
  <defs>
    <style>
      .st0 {
        fill: url(#linear-gradient2);
      }

      .st1 {
        fill: url(#linear-gradient1);
      }

      .st2 {
        fill: url(#linear-gradient3);
      }

      .st3 {
        fill: url(#linear-gradient);
      }
    </style>
    <linearGradient id="linear-gradient" x1="0" y1="31.59" x2="63.21" y2="31.59" gradientUnits="userSpaceOnUse">
      <stop offset="0" stop-color="#62c4aa"/>
      <stop offset="1" stop-color="#4c89d5"/>
    </linearGradient>
    <linearGradient id="linear-gradient1" x1="9.67" y1="31.51" x2="53.81" y2="31.51" xlink:href="#linear-gradient"/>
    <linearGradient id="linear-gradient2" x1="30.13" y1="18.13" x2="60.01" y2="18.13" xlink:href="#linear-gradient"/>
    <linearGradient id="linear-gradient3" x1="19.14" y1="31.47" x2="44.31" y2="31.47" xlink:href="#linear-gradient"/>
  </defs>
  <path class="st3" d="M33.59,0l4.47.66c.99.36,3.4.52,3.91,1.52.53,1.05-.2,2.41-1.39,2.38-.81-.02-2.75-.73-3.77-.92C14.34-.43-3.56,22.07,5.56,43.03c7.3,16.78,28.7,22.37,43.32,11.2,8.96-6.85,12.75-17.92,10.46-28.95-.15-.71-.74-2.26-.68-2.84.15-1.3,1.89-1.84,2.76-.84.69.81,1.37,4.68,1.52,5.88,2.89,22.38-17.83,40.45-39.64,34.59C11.2,58.8,1.94,48.28.29,35.83c-.1-.74-.07-1.55-.26-2.27.06-1.3-.08-2.66,0-3.95C.99,13.95,13.95.92,29.64,0h3.95Z"/>
  <path class="st1" d="M29.62,9.54c.92-.07,3.45-.19,4.18.19,1.08.56,1.28,2.16.15,2.79-.64.36-2.37.03-3.26.07-16.68.84-24.1,21.9-11.54,33.01,12.4,10.98,31.67,1.92,31.47-14.57,0-.33-.15-.63-.14-.98.04-1.97,2.96-2.3,3.22,0,.9,8.06-4.12,16.66-11.02,20.57-16.11,9.11-35.47-4.27-32.75-22.51,1.45-9.73,9.81-17.8,19.68-18.57Z"/>
  <path class="st0" d="M58.95,9.5c1.1.22,1.42,1.96.61,2.7-3.13,2.63-6.08,6.82-9.25,9.26-1.65,1.27-4.95.28-6.97.68l-10.43,10.42c-1.31,1.26-3.37-.08-2.62-1.76,3.4-3.82,7.21-7.27,10.77-10.95.41-2.01-.59-5.32.68-6.97,2.44-3.16,6.63-6.12,9.26-9.25.58-.56,1.67-.65,2.27-.08.09.08.43.63.43.68v5.06s.17.19.19.19h5.06ZM54.57,12.59h-2.78c-.29,0-1.17-.88-1.17-1.17v-2.78l-6.29,6.23v4.01h4.01l6.23-6.29Z"/>
  <path class="st2" d="M30.73,18.92c1.15-.08,2.53.04,2.57,1.52.05,1.79-1.77,1.5-2.84,1.66-9.23,1.39-11.23,13.73-2.94,17.84,5.86,2.91,12.62-.83,13.58-7.2.16-1.08-.15-2.79,1.58-2.84,1.97-.06,1.69,2.27,1.49,3.56-1.66,10.83-15.75,14.41-22.42,5.71-6.06-7.9-.94-19.54,8.98-20.26Z"/>
</svg>