<svg width="742" height="537" viewBox="0 0 742 537" fill="none" xmlns="http://www.w3.org/2000/svg">
<path d="M457.185 65.5977H406.868C399.634 65.5977 392.949 69.4571 389.331 75.7222L364.169 119.302C360.551 125.568 360.551 133.288 364.169 139.553L389.331 183.133C392.949 189.398 399.634 193.258 406.868 193.258H457.185C464.419 193.258 471.104 189.398 474.721 183.133L499.884 139.553C503.501 133.287 503.501 125.568 499.884 119.302L474.721 75.7222C471.104 69.4571 464.419 65.5977 457.185 65.5977Z" stroke="url(#paint0_linear_3444_4806)" stroke-width="0.5"/>
<path d="M575.784 0.507812H525.468C518.233 0.507812 511.548 4.36726 507.931 10.6324L482.768 54.2124C479.151 60.478 479.151 68.1976 482.768 74.4632L507.931 118.043C511.548 124.308 518.233 128.168 525.468 128.168H575.784C583.019 128.168 589.704 124.308 593.321 118.043L618.483 74.4632C622.101 68.1976 622.101 60.478 618.483 54.2124L593.321 10.6324C589.704 4.36724 583.019 0.507812 575.784 0.507812Z" stroke="url(#paint1_linear_3444_4806)" stroke-width="0.5"/>
<path d="M575.784 406.627H525.468C518.233 406.627 511.548 410.486 507.931 416.752L482.769 460.331C479.151 466.597 479.151 474.317 482.77 480.583L507.931 524.154C511.548 530.418 518.233 534.277 525.467 534.277H575.785C583.019 534.277 589.704 530.418 593.321 524.154L618.482 480.583C622.101 474.317 622.101 466.597 618.483 460.331L593.321 416.752C589.704 410.486 583.019 406.627 575.784 406.627Z" stroke="url(#paint2_linear_3444_4806)" stroke-width="0.5"/>
<path d="M216.503 201.098H166.186C158.952 201.098 152.267 204.957 148.65 211.222L123.488 254.801C119.87 261.067 119.87 268.788 123.488 275.053L148.649 318.624C152.267 324.889 158.952 328.748 166.185 328.748H216.504C223.738 328.748 230.422 324.889 234.04 318.624L259.201 275.053C262.819 268.788 262.82 261.067 259.202 254.801L234.04 211.222C230.422 204.957 223.737 201.098 216.503 201.098Z" stroke="url(#paint3_linear_3444_4806)" stroke-width="0.5"/>
<path d="M575.784 269.238H525.468C518.233 269.238 511.548 273.098 507.931 279.363L482.768 322.943C479.151 329.208 479.151 336.928 482.768 343.194L507.931 386.774C511.548 393.039 518.233 396.898 525.468 396.898H575.784C583.019 396.898 589.704 393.039 593.321 386.774L618.483 343.194C622.101 336.928 622.101 329.208 618.483 322.943L593.321 279.363C589.704 273.098 583.019 269.238 575.784 269.238Z" stroke="url(#paint4_linear_3444_4806)" stroke-width="0.5"/>
<path d="M335.593 408.547H285.27C278.034 408.547 271.349 412.407 267.732 418.674L242.576 462.254C238.96 468.518 238.96 476.236 242.576 482.5L267.732 526.08C271.349 532.347 278.034 536.207 285.27 536.207H335.593C342.829 536.207 349.514 532.347 353.131 526.08L378.287 482.5C381.903 476.236 381.903 468.518 378.287 462.254L353.131 418.674C349.514 412.407 342.829 408.547 335.593 408.547Z" stroke="url(#paint5_linear_3444_4806)" stroke-width="0.5"/>
<path d="M98.8839 408.547H48.5672C41.3328 408.547 34.6478 412.406 31.0305 418.671L5.86811 462.251C2.25047 468.517 2.25047 476.237 5.86812 482.502L31.0305 526.082C34.6479 532.347 41.3328 536.207 48.5672 536.207H98.8839C106.118 536.207 112.803 532.347 116.421 526.082L141.583 482.502C145.201 476.237 145.201 468.517 141.583 462.251L116.421 418.671C112.803 412.406 106.118 408.547 98.8839 408.547Z" stroke="url(#paint6_linear_3444_4806)" stroke-width="0.5"/>
<path d="M296.592 199.472L296.535 199.575C289.85 211.221 298.613 225.987 312.115 225.969C329.801 225.948 336.934 202.592 321.484 192.855C316.835 189.924 312.736 190.442 311.782 190.186C308.77 189.381 308.621 185.317 312.224 184.851C317.273 184.197 324.61 187.693 328.208 191.133C343.247 205.514 333.336 231.373 312.115 231.37C293.462 231.368 282.99 211.204 292.228 195.543C291.99 194.633 288.861 192.376 288.921 192.144L300.779 190.823L300.182 202.53L296.592 199.47V199.472Z" stroke="url(#paint7_linear_3444_4806)" stroke-width="1.5" stroke-linecap="round" stroke-linejoin="round"/>
<path d="M427.62 298.206C428.6 299.326 430.35 299.326 431.33 298.206L450.86 275.876C453.64 272.966 455.3 268.966 455.11 264.576C454.77 256.766 448.45 250.346 440.64 249.906C436.34 249.666 432.4 251.186 429.48 253.816C426.39 251.046 422.17 249.496 417.6 249.966C410.28 250.716 404.45 256.706 403.88 264.036C403.54 268.426 405.04 272.456 407.7 275.446L407.72 275.466C407.72 275.466 407.8 275.566 407.85 275.616L427.63 298.216L427.62 298.206Z" fill="white" stroke="white" stroke-width="3.06" stroke-linecap="round" stroke-linejoin="round"/>
<path d="M426.981 258.956C432.441 262.136 435.201 266.486 435.181 272.496C436.471 271.816 436.851 270.716 437.181 269.326C438.461 271.236 439.301 273.146 439.851 275.176C441.121 279.896 440.381 284.106 436.311 287.366C435.501 288.016 434.531 288.466 433.531 288.916C435.501 287.026 436.391 284.806 435.591 282.266C435.191 280.976 434.381 279.746 433.541 278.636C432.111 276.756 430.891 274.846 430.831 272.166C427.491 274.936 426.771 278.326 427.121 282.106C425.751 281.716 425.261 280.916 424.931 278.576C422.441 281.066 422.561 285.366 425.401 288.886C422.871 287.856 421.121 286.336 419.961 284.246C417.971 280.646 418.131 277.026 420.131 273.476C420.741 272.396 421.501 271.376 422.311 270.426C425.101 267.156 427.261 263.646 426.971 258.936L426.981 258.956Z" stroke="url(#paint8_linear_3444_4806)" stroke-width="1.5" stroke-linecap="round" stroke-linejoin="round"/>
<path d="M188.151 428.157C189.131 429.277 190.881 429.277 191.861 428.157L211.391 405.827C214.171 402.917 215.831 398.917 215.641 394.527C215.301 386.717 208.981 380.297 201.171 379.857C196.871 379.617 192.931 381.137 190.011 383.767C186.921 380.997 182.701 379.447 178.131 379.917C170.811 380.667 164.981 386.657 164.411 393.987C164.071 398.377 165.571 402.407 168.231 405.397L168.251 405.417C168.251 405.417 168.331 405.517 168.381 405.567L188.161 428.167L188.151 428.157Z" fill="white" stroke="white" stroke-width="3.06" stroke-linecap="round" stroke-linejoin="round"/>
<path d="M177.721 411.876L180.301 409.436L178.861 393.416C178.861 393.416 183.061 392.836 183.511 396.006C183.961 399.176 184.751 402.116 187.691 398.826C190.631 395.536 194.481 391.096 194.481 391.096C194.481 391.096 195.951 389.186 197.881 390.906C199.811 392.626 198.121 394.226 198.121 394.226L200.801 391.236C200.801 391.236 201.711 390.016 203.331 391.466C204.951 392.916 203.871 393.986 203.871 393.986L203.151 394.786C203.151 394.786 203.861 394.066 205.241 395.306C206.771 396.676 205.571 398.246 205.571 398.246L203.601 400.446C203.601 400.446 204.891 399.006 206.561 400.496C208.101 401.876 206.371 403.806 206.371 403.806L193.601 418.066C193.601 418.066 191.011 420.226 189.121 419.836L186.501 421.906" stroke="url(#paint9_linear_3444_4806)" stroke-width="1.5" stroke-linecap="round" stroke-linejoin="round"/>
<path d="M203.811 400.266L197.631 407.156" stroke="url(#paint10_linear_3444_4806)" stroke-width="1.5" stroke-linecap="round" stroke-linejoin="round"/>
<path d="M203.081 394.727L194.471 404.337" stroke="url(#paint11_linear_3444_4806)" stroke-width="1.5" stroke-linecap="round" stroke-linejoin="round"/>
<path d="M198.12 394.227L191.91 401.167" stroke="url(#paint12_linear_3444_4806)" stroke-width="1.5" stroke-linecap="round" stroke-linejoin="round"/>
<path d="M337.41 351.177L327.58 336.717C330.74 333.317 332.52 328.807 332.52 324.157C332.52 313.987 324.24 305.707 314.07 305.707C303.9 305.707 295.62 313.987 295.62 324.157C295.62 328.907 297.45 333.367 300.57 336.717L290.73 351.187C290.41 351.667 290.38 352.287 290.66 352.787C290.94 353.287 291.47 353.597 292.06 353.577L301.54 353.187L304.67 362.147C304.86 362.697 305.34 363.087 305.91 363.157C305.98 363.157 306.04 363.167 306.11 363.167C306.61 363.167 307.09 362.917 307.37 362.497L314.07 352.647L320.76 362.497C321.05 362.917 321.52 363.167 322.02 363.167C322.09 363.167 322.15 363.167 322.22 363.157C322.79 363.077 323.27 362.687 323.46 362.147L326.59 353.187L336.07 353.577C336.65 353.607 337.19 353.297 337.47 352.787C337.75 352.277 337.72 351.667 337.4 351.187L337.41 351.177Z" fill="white" stroke="white" stroke-width="3.06" stroke-linecap="round" stroke-linejoin="round"/>
<path d="M314.071 341.067C323.415 341.067 330.991 333.491 330.991 324.147C330.991 314.802 323.415 307.227 314.071 307.227C304.726 307.227 297.151 314.802 297.151 324.147C297.151 333.491 304.726 341.067 314.071 341.067Z" stroke="url(#paint13_linear_3444_4806)" stroke-width="1.5" stroke-linecap="round" stroke-linejoin="round"/>
<path d="M314.07 334.146C319.593 334.146 324.07 329.669 324.07 324.146C324.07 318.624 319.593 314.146 314.07 314.146C308.547 314.146 304.07 318.624 304.07 324.146C304.07 329.669 308.547 334.146 314.07 334.146Z" stroke="url(#paint14_linear_3444_4806)" stroke-width="1.5" stroke-linecap="round" stroke-linejoin="round"/>
<path d="M307.121 339.687L322.031 361.627L325.531 351.597L336.151 352.037L325.611 336.527" stroke="url(#paint15_linear_3444_4806)" stroke-width="1.5" stroke-linecap="round" stroke-linejoin="round"/>
<path d="M314.07 349.917L306.11 361.627L302.61 351.597L291.99 352.037L302.54 336.527" stroke="url(#paint16_linear_3444_4806)" stroke-width="1.5" stroke-linecap="round" stroke-linejoin="round"/>
<path d="M459.75 408.937V408.917C459.75 408.887 459.73 408.857 459.72 408.827C459.71 408.787 459.7 408.757 459.69 408.717L449.98 386.397C449.98 386.397 449.98 386.387 449.97 386.377C449.93 386.297 449.89 386.227 449.84 386.167C449.83 386.147 449.81 386.127 449.8 386.117C449.74 386.047 449.68 385.987 449.6 385.937C449.6 385.937 449.59 385.937 449.58 385.927C449.51 385.887 449.44 385.847 449.36 385.827C449.34 385.827 449.32 385.817 449.3 385.807C449.21 385.787 449.12 385.767 449.03 385.767H433.26C433.54 385.207 433.7 384.577 433.7 383.917C433.7 381.607 431.82 379.727 429.51 379.727C427.2 379.727 425.32 381.607 425.32 383.917C425.32 384.577 425.48 385.207 425.76 385.767H409.99C409.89 385.767 409.8 385.787 409.72 385.807C409.7 385.807 409.68 385.817 409.66 385.827C409.58 385.857 409.51 385.887 409.44 385.927C409.44 385.927 409.43 385.927 409.42 385.937C409.35 385.987 409.28 386.047 409.22 386.117C409.2 386.137 409.19 386.157 409.18 386.167C409.13 386.237 409.08 386.307 409.05 386.377C409.05 386.377 409.05 386.387 409.04 386.397L399.33 408.717C399.32 408.747 399.31 408.787 399.3 408.827C399.3 408.857 399.28 408.887 399.27 408.917C399.27 408.917 399.27 408.927 399.27 408.937C399.26 408.997 399.25 409.067 399.25 409.127C399.25 415.057 404.08 419.887 410.01 419.887C415.94 419.887 420.77 415.057 420.77 409.127C420.77 409.067 420.77 409.007 420.75 408.937V408.917C420.75 408.887 420.73 408.857 420.72 408.827C420.71 408.787 420.7 408.757 420.69 408.717L411.62 387.877H428.17C428.27 387.917 428.38 387.947 428.49 387.977V425.007H421.93C421.35 425.007 420.88 425.477 420.88 426.057C420.88 426.637 421.35 427.107 421.93 427.107H437.16C437.74 427.107 438.21 426.637 438.21 426.057C438.21 425.477 437.74 425.007 437.16 425.007H430.6V387.977C430.71 387.947 430.81 387.917 430.92 387.877H447.47L438.4 408.717C438.39 408.747 438.38 408.787 438.37 408.827C438.37 408.857 438.35 408.887 438.34 408.917C438.34 408.917 438.34 408.927 438.34 408.937C438.33 408.997 438.32 409.067 438.32 409.127C438.32 415.057 443.15 419.887 449.08 419.887C455.01 419.887 459.84 415.057 459.84 409.127C459.84 409.067 459.84 409.007 459.82 408.937H459.75Z" fill="white" stroke="white" stroke-width="3.06" stroke-linecap="round" stroke-linejoin="round"/>
<path d="M449.011 418.837C454.371 418.837 458.721 414.487 458.721 409.127H439.311C439.311 414.487 443.661 418.837 449.021 418.837H449.011Z" stroke="url(#paint17_linear_3444_4806)" stroke-width="1.5" stroke-linecap="round" stroke-linejoin="round"/>
<path d="M409.95 418.837C415.31 418.837 419.66 414.487 419.66 409.127H400.25C400.25 414.487 404.6 418.837 409.96 418.837H409.95Z" stroke="url(#paint18_linear_3444_4806)" stroke-width="1.5" stroke-linecap="round" stroke-linejoin="round"/>
<path d="M400.24 409.126L409.95 386.816L419.65 409.126" stroke="url(#paint19_linear_3444_4806)" stroke-width="1.5" stroke-linecap="round" stroke-linejoin="round"/>
<path d="M439.301 409.126L449.011 386.816L458.721 409.126" stroke="url(#paint20_linear_3444_4806)" stroke-width="1.5" stroke-linecap="round" stroke-linejoin="round"/>
<path d="M449.011 386.816H409.951" stroke="url(#paint21_linear_3444_4806)" stroke-width="1.5" stroke-linecap="round" stroke-linejoin="round"/>
<path d="M429.48 386.816V426.046" stroke="url(#paint22_linear_3444_4806)" stroke-width="1.5" stroke-linecap="round" stroke-linejoin="round"/>
<path d="M421.861 426.047H437.091" stroke="url(#paint23_linear_3444_4806)" stroke-width="1.5" stroke-linecap="round" stroke-linejoin="round"/>
<path d="M429.48 387.046C431.214 387.046 432.62 385.64 432.62 383.906C432.62 382.171 431.214 380.766 429.48 380.766C427.746 380.766 426.34 382.171 426.34 383.906C426.34 385.64 427.746 387.046 429.48 387.046Z" stroke="url(#paint24_linear_3444_4806)" stroke-width="1.5" stroke-linecap="round" stroke-linejoin="round"/>
<path d="M572.4 195.286L560.26 181.996C559.7 181.376 558.74 181.326 558.12 181.886L551.98 187.306L542.64 186.216L533.91 181.676C533.32 181.366 532.59 181.476 532.12 181.956L519.73 194.346C519.43 194.646 519.27 195.056 519.28 195.476C519.29 195.896 519.48 196.296 519.8 196.576L523.81 200.106C524.21 203.616 527.32 207.586 527.69 208.056C527.72 208.096 527.76 208.136 527.79 208.176L531.64 212.076C531.7 212.146 531.76 212.226 531.83 212.286L532.48 212.936L532 213.416C530.73 214.686 530.44 216.956 532.65 219.166C533.58 220.096 534.56 220.636 535.55 220.766C536.07 220.836 536.57 220.786 537.04 220.636L537.43 221.026C539.05 222.646 541.55 222.846 543.39 221.626L543.65 221.886C544.44 222.676 545.48 223.066 546.52 223.066C547.56 223.066 548.55 222.696 549.33 221.946L568.02 204.076C568.23 203.876 568.38 203.626 568.45 203.346L569.39 199.576L572.17 197.566C572.52 197.306 572.75 196.916 572.8 196.486C572.85 196.056 572.7 195.616 572.41 195.296L572.4 195.286Z" fill="white" stroke="white" stroke-width="3.06" stroke-linecap="round" stroke-linejoin="round"/>
<path d="M528.881 207.097C528.881 207.097 525.291 202.607 525.291 199.377L520.801 195.427L533.191 183.037L542.171 187.707L559.051 189.687C559.051 189.687 559.951 194.177 555.281 193.817L550.611 193.457C550.611 193.457 546.841 201.717 537.141 196.687" stroke="url(#paint25_linear_3444_4806)" stroke-width="1.5" stroke-linecap="round" stroke-linejoin="round"/>
<path d="M555.65 186.077L559.13 183.027" stroke="url(#paint26_linear_3444_4806)" stroke-width="1.5" stroke-linecap="round" stroke-linejoin="round"/>
<path d="M571.271 196.316L568.041 198.646L566.961 202.956L548.271 220.826C547.281 221.776 545.701 221.756 544.731 220.786L543.461 219.516L543.051 219.926C541.801 221.176 539.771 221.176 538.511 219.926L537.291 218.706C536.481 219.516 535.161 219.516 533.721 218.076C532.281 216.636 532.261 215.306 533.071 214.496L534.631 212.936L532.901 211.206C531.791 210.096 531.791 208.306 532.901 207.196L537.711 202.386" stroke="url(#paint27_linear_3444_4806)" stroke-width="1.5" stroke-linecap="round" stroke-linejoin="round"/>
<path d="M543.75 203.826L534 213.576" stroke="url(#paint28_linear_3444_4806)" stroke-width="1.5" stroke-linecap="round" stroke-linejoin="round"/>
<path d="M549.051 207.096L536.971 219.176" stroke="url(#paint29_linear_3444_4806)" stroke-width="1.5" stroke-linecap="round" stroke-linejoin="round"/>
<path d="M552.451 210.496L543.451 219.506" stroke="url(#paint30_linear_3444_4806)" stroke-width="1.5" stroke-linecap="round" stroke-linejoin="round"/>
<path d="M582.04 344.357L579.21 338.327C580.91 335.437 581.8 332.177 581.8 328.797C581.8 318.407 573.35 309.957 562.96 309.957C559.42 309.957 556.03 310.937 553.04 312.797C550.06 310.937 546.66 309.957 543.13 309.957C532.74 309.957 524.29 318.407 524.29 328.797C524.29 332.167 525.18 335.437 526.88 338.327L524.05 344.357C523.64 345.237 523.82 346.277 524.5 346.957C525.18 347.647 526.22 347.827 527.1 347.427L533.03 344.687C536.06 346.617 539.52 347.637 543.12 347.637C546.72 347.637 550.05 346.657 553.03 344.797C556.01 346.657 559.41 347.637 562.95 347.637C566.49 347.637 570.02 346.617 573.04 344.687L578.97 347.427C579.28 347.567 579.61 347.637 579.94 347.637C580.54 347.637 581.13 347.397 581.57 346.957C582.25 346.267 582.43 345.227 582.02 344.357H582.04Z" fill="url(#paint31_linear_3444_4806)" stroke="url(#paint32_linear_3444_4806)" stroke-width="0.6" stroke-linecap="round" stroke-linejoin="round"/>
<path d="M553.35 315.796C550.54 313.586 546.99 312.266 543.14 312.266C534.01 312.266 526.61 319.666 526.61 328.796C526.61 332.276 527.69 335.496 529.52 338.156L526.15 345.336L533.27 342.046C536.03 344.106 539.43 345.336 543.14 345.336C546.85 345.336 550.45 344.056 553.24 341.896" stroke="white" stroke-width="1.54" stroke-miterlimit="10"/>
<path d="M576.591 338.156C578.421 335.496 579.501 332.276 579.501 328.796C579.501 319.666 572.101 312.266 562.971 312.266C553.841 312.266 546.441 319.666 546.441 328.796C546.441 337.926 553.841 345.326 562.971 345.326C566.671 345.326 570.081 344.096 572.841 342.036L579.961 345.326L576.591 338.146V338.156ZM572.251 323.666L558.191 337.726C557.901 338.016 557.511 338.176 557.101 338.176C556.691 338.176 556.301 338.016 556.011 337.726L551.931 333.646C551.331 333.046 551.331 332.076 551.931 331.476C552.531 330.876 553.501 330.876 554.101 331.476L557.091 334.466L570.071 321.486C570.671 320.886 571.641 320.886 572.241 321.486C572.841 322.086 572.841 323.056 572.241 323.656L572.251 323.666Z" fill="white" stroke="white" stroke-width="1.54" stroke-miterlimit="10"/>
<path d="M428.574 122.254C428.627 122.242 428.68 122.23 428.734 122.218C429.16 122.133 429.594 122.076 430.026 122.065C439.558 121.787 440.741 135.941 431.292 137.239C421.748 138.552 419.167 124.383 428.571 122.251L428.574 122.254Z" fill="url(#paint33_linear_3444_4806)"/>
<path d="M428.571 122.251C419.167 124.383 421.748 138.552 431.292 137.239C440.741 135.941 439.558 121.787 430.026 122.065C429.594 122.076 429.16 122.133 428.734 122.218C428.68 122.23 428.627 122.242 428.574 122.254L428.571 122.251ZM428.571 122.251C428.624 122.239 428.677 122.227 428.731 122.215" stroke="url(#paint34_linear_3444_4806)" stroke-width="3.06" stroke-linecap="round" stroke-linejoin="round"/>
<path d="M466.39 129.58L446.718 129.746" stroke="url(#paint35_linear_3444_4806)" stroke-width="2.5" stroke-linecap="round" stroke-linejoin="round"/>
<path d="M456.657 134.688C454.428 145.793 446.827 153.402 435.885 156.132" stroke="url(#paint36_linear_3444_4806)" stroke-width="2.5" stroke-linecap="round" stroke-linejoin="round"/>
<path d="M435.711 103.424C446.488 105.296 454.727 113.935 456.649 124.64" stroke="url(#paint37_linear_3444_4806)" stroke-width="2.5" stroke-linecap="round" stroke-linejoin="round"/>
<path d="M430.246 146.279L430.255 165.059" stroke="url(#paint38_linear_3444_4806)" stroke-width="2.5" stroke-linecap="round" stroke-linejoin="round"/>
<path d="M430.246 93.8203L430.255 112.597" stroke="url(#paint39_linear_3444_4806)" stroke-width="2.5" stroke-linecap="round" stroke-linejoin="round"/>
<path d="M430.026 122.065C439.558 121.787 440.741 135.941 431.292 137.239C421.748 138.552 419.167 124.383 428.571 122.251C428.624 122.239 428.677 122.227 428.731 122.215C429.157 122.13 429.591 122.073 430.023 122.062L430.026 122.065Z" stroke="url(#paint40_linear_3444_4806)" stroke-width="2.5" stroke-linecap="round" stroke-linejoin="round"/>
<path d="M403.978 135.285C406.113 145.959 414.293 153.899 424.919 156.088" stroke="url(#paint41_linear_3444_4806)" stroke-width="2.5" stroke-linecap="round" stroke-linejoin="round"/>
<path d="M424.781 103.424C413.705 105.393 405.774 114.008 403.677 124.933" stroke="url(#paint42_linear_3444_4806)" stroke-width="2.5" stroke-linecap="round" stroke-linejoin="round"/>
<path d="M395 129.736H413.034" stroke="url(#paint43_linear_3444_4806)" stroke-width="2.5" stroke-linecap="round" stroke-linejoin="round"/>
<path d="M187.83 240.52C203.877 239.115 214.116 253.64 209.14 267.779C207.333 272.915 203.501 274.152 200.503 283.779C199.991 285.417 200.466 287.816 198.168 288.238C197.423 288.376 183.764 288.35 183.017 288.238C180.027 287.788 180.921 284.366 178.414 278.962C175.728 273.174 170.898 270.856 170.344 261.828C169.701 251.33 177.122 241.453 187.833 240.517L187.83 240.52Z" fill="url(#paint44_linear_3444_4806)"/>
<path d="M216.931 257.088H219.62" stroke="url(#paint45_linear_3444_4806)" stroke-width="3.5" stroke-linecap="round" stroke-linejoin="round"/>
<path d="M212.066 235.471L208.059 239.48" stroke="url(#paint46_linear_3444_4806)" stroke-width="3.5" stroke-linecap="round" stroke-linejoin="round"/>
<path d="M192.773 246.252C204.505 249.107 207.264 259.855 202.498 269.894" stroke="white" stroke-width="3.11615" stroke-linecap="round" stroke-linejoin="round"/>
<path d="M190.31 228.199V230.891" stroke="url(#paint47_linear_3444_4806)" stroke-width="3.5" stroke-linecap="round" stroke-linejoin="round"/>
<path d="M186.204 303.389H194.698" stroke="url(#paint48_linear_3444_4806)" stroke-width="3.5" stroke-linecap="round" stroke-linejoin="round"/>
<path d="M198.099 297.822L182.805 297.785" stroke="url(#paint49_linear_3444_4806)" stroke-width="3.5" stroke-linecap="round" stroke-linejoin="round"/>
<path d="M199.515 292.268L181.105 292.273" stroke="url(#paint50_linear_3444_4806)" stroke-width="3.5" stroke-linecap="round" stroke-linejoin="round"/>
<path d="M167.744 234.662L173.937 240.855" stroke="url(#paint51_linear_3444_4806)" stroke-width="3.5" stroke-linecap="round" stroke-linejoin="round"/>
<path d="M161 257.088H163.83" stroke="url(#paint52_linear_3444_4806)" stroke-width="3.5" stroke-linecap="round" stroke-linejoin="round"/>
<path d="M571.233 468.479C571.817 470.703 572.06 473.012 571.957 475.31C571.052 494.955 547.182 504.28 533.201 490.446C519.162 476.557 528.378 452.479 548.104 451.519C558.851 450.997 568.5 458.074 571.233 468.479Z" fill="#FAFDFF"/>
<path d="M545.706 477.015L533.645 476.971" stroke="url(#paint53_linear_3444_4806)" stroke-width="1.39263" stroke-linecap="round" stroke-linejoin="round"/>
<path d="M549.046 473.228L549.138 462.168" stroke="url(#paint54_linear_3444_4806)" stroke-width="1.39263" stroke-linecap="round" stroke-linejoin="round"/>
<path d="M549.048 473.229L549.185 473.355C555.46 477.474 549.243 483.059 545.827 477.167L545.704 477.013" stroke="url(#paint55_linear_3444_4806)" stroke-width="1.39263" stroke-linecap="round" stroke-linejoin="round"/>
<path d="M549.048 473.229L548.929 473.365L545.704 477.013" stroke="url(#paint56_linear_3444_4806)" stroke-width="1.39263" stroke-linecap="round" stroke-linejoin="round"/>
<path d="M548.102 451.517C558.849 450.995 568.498 458.072 571.231 468.477C571.815 470.701 572.058 473.01 571.955 475.309C571.05 494.953 547.18 504.278 533.199 490.444C519.16 476.555 528.376 452.477 548.102 451.517Z" stroke="url(#paint57_linear_3444_4806)" stroke-width="1.85684" stroke-linecap="round" stroke-linejoin="round"/>
<path d="M554.618 506.72C554.717 506.242 554.693 505.723 554.802 505.252C555 504.404 555.028 502.533 555.677 501.969C558.717 501.043 561.699 499.971 564.455 498.355C565.596 498.229 567.458 500.514 568.414 500.695C569.706 500.941 574.413 494.908 576.001 493.99L573.374 489.675C577.729 481.87 574.44 480.347 581.63 479.493V469.044C574.29 468.221 577.787 466.185 573.234 458.875L575.714 454.557C575.553 453.946 572.151 450.663 571.342 449.908C570.758 449.365 569.425 447.798 568.759 447.739C567.53 448.033 566.44 449.382 565.49 449.84C565.152 450.004 564.879 450.26 564.459 450.185C561.593 448.224 556.23 446.947 555.851 446.674C555 446.062 555.185 445.113 554.956 444.228C554.666 443.111 554.952 441.97 554.29 441.816H544.63C543.475 442.291 543.516 445.488 542.905 446.465C542.423 447.002 540.271 447.278 538.464 448.016C538.406 448.04 538.348 448.061 538.293 448.084C536.753 448.696 535.318 449.543 533.76 450.11C533.053 450.11 531.885 448.986 531.199 448.58C530.485 448.156 529.928 447.466 529.422 447.644C528.34 448.901 522.618 453.813 522.7 454.902C522.932 455.633 523.547 456.146 523.906 456.795C524.268 457.454 525.088 458.216 525.043 459.032C523.325 461.686 522.673 465.191 521.979 466.779C520.787 469.508 517.327 468.002 516.78 469.235V479.336C516.934 480.002 518.147 479.698 519.363 480.033C522.898 481.006 521.279 480.774 522.563 483.992C523.55 486.461 524.811 488.535 525.043 490.017L522.451 493.993C522.475 494.236 523.967 495.291 525.043 496.384C525.805 497.16 529.094 500.637 529.518 500.756L533.993 498.345C536.784 499.937 539.762 501.129 542.853 501.969C543.263 502.218 543.171 502.679 543.298 503.048C543.554 503.793 543.779 506.201 544.025 506.502C544.329 506.864 544.917 506.662 545.422 506.71C546.177 506.785 547.069 506.686 547.854 506.71C550.105 506.778 552.377 506.659 554.625 506.71L554.618 506.72Z" stroke="url(#paint58_linear_3444_4806)" stroke-width="1.85684" stroke-linecap="round" stroke-linejoin="round"/>
<path d="M318.96 476.276L318.27 476.136C316.94 475.866 315.26 475.296 314.74 474.096C314.62 473.826 314.4 473.626 314.12 473.536C313.84 473.446 313.54 473.486 313.3 473.636C311.22 474.916 308.99 474.916 306.91 473.636C306.67 473.486 306.37 473.446 306.1 473.536C305.83 473.616 305.6 473.816 305.48 474.066C305.04 475.016 303.78 475.706 301.74 476.116L301.05 476.256C295.02 477.476 288.18 478.856 288.08 490.036C288.08 490.396 288.26 490.726 288.57 490.906C290.32 491.946 295.92 494.376 310.1 494.376C324.28 494.376 329.81 491.696 331.5 490.546C331.78 490.356 331.94 490.036 331.94 489.696C331.7 478.826 324.94 477.456 318.97 476.256L318.96 476.276Z" fill="url(#paint59_linear_3444_4806)" stroke="url(#paint60_linear_3444_4806)" stroke-width="3.06" stroke-linecap="round" stroke-linejoin="round"/>
<path d="M310.091 474.227C311.911 474.227 313.731 473.217 315.391 471.257C315.461 471.167 315.521 471.097 315.601 471.007C318.131 467.847 319.711 463.007 319.711 458.387C319.711 451.457 315.931 446.967 310.091 446.967C304.251 446.967 300.471 451.447 300.471 458.387C300.471 466.527 305.141 474.227 310.091 474.227Z" fill="url(#paint61_linear_3444_4806)" stroke="url(#paint62_linear_3444_4806)" stroke-width="3.06" stroke-linecap="round" stroke-linejoin="round"/>
<path d="M301.47 458.387C301.47 452.057 304.85 447.967 310.09 447.967C315.33 447.967 318.71 452.057 318.71 458.387C318.71 463.007 317.08 467.567 314.82 470.387C314.76 470.457 314.69 470.537 314.6 470.647C313.24 472.247 311.67 473.227 310.09 473.227C305.74 473.227 301.47 465.877 301.47 458.387ZM310.09 493.397C295.83 493.397 290.45 490.887 289.07 490.067C289.16 479.687 295.31 478.457 301.25 477.257L301.94 477.117C304.34 476.627 305.79 475.767 306.38 474.507C307.53 475.207 308.77 475.607 310.09 475.607C311.41 475.607 312.67 475.197 313.82 474.487C314.37 475.757 315.79 476.637 318.07 477.107L318.76 477.247C324.64 478.427 330.71 479.657 330.93 489.727C329.63 490.607 324.41 493.387 310.09 493.387V493.397Z" stroke="white" stroke-width="1.54" stroke-miterlimit="10"/>
<defs>
<linearGradient id="paint0_linear_3444_4806" x1="432.026" y1="193.008" x2="432.026" y2="65.8477" gradientUnits="userSpaceOnUse">
<stop stop-color="#55A2C3"/>
<stop offset="1" stop-color="#152A54"/>
</linearGradient>
<linearGradient id="paint1_linear_3444_4806" x1="550.626" y1="127.918" x2="550.626" y2="0.757812" gradientUnits="userSpaceOnUse">
<stop stop-color="#55A2C3"/>
<stop offset="1" stop-color="#152A54"/>
</linearGradient>
<linearGradient id="paint2_linear_3444_4806" x1="550.626" y1="534.027" x2="550.626" y2="406.877" gradientUnits="userSpaceOnUse">
<stop stop-color="#55A2C3"/>
<stop offset="1" stop-color="#152A54"/>
</linearGradient>
<linearGradient id="paint3_linear_3444_4806" x1="191.345" y1="328.498" x2="191.345" y2="201.348" gradientUnits="userSpaceOnUse">
<stop stop-color="#55A2C3"/>
<stop offset="1" stop-color="#152A54"/>
</linearGradient>
<linearGradient id="paint4_linear_3444_4806" x1="550.626" y1="396.648" x2="550.626" y2="269.488" gradientUnits="userSpaceOnUse">
<stop stop-color="#55A2C3"/>
<stop offset="1" stop-color="#152A54"/>
</linearGradient>
<linearGradient id="paint5_linear_3444_4806" x1="310.431" y1="535.957" x2="310.431" y2="408.797" gradientUnits="userSpaceOnUse">
<stop stop-color="#55A2C3"/>
<stop offset="1" stop-color="#152A54"/>
</linearGradient>
<linearGradient id="paint6_linear_3444_4806" x1="73.7256" y1="535.957" x2="73.7256" y2="408.797" gradientUnits="userSpaceOnUse">
<stop stop-color="#55A2C3"/>
<stop offset="1" stop-color="#152A54"/>
</linearGradient>
<linearGradient id="paint7_linear_3444_4806" x1="312.125" y1="184.771" x2="312.125" y2="231.37" gradientUnits="userSpaceOnUse">
<stop stop-color="#395D6B"/>
<stop offset="1" stop-color="#6FB6D1"/>
</linearGradient>
<linearGradient id="paint8_linear_3444_4806" x1="429.482" y1="258.936" x2="429.482" y2="288.916" gradientUnits="userSpaceOnUse">
<stop stop-color="#395D6B"/>
<stop offset="1" stop-color="#6FB6D1"/>
</linearGradient>
<linearGradient id="paint9_linear_3444_4806" x1="192.46" y1="390.188" x2="192.46" y2="421.906" gradientUnits="userSpaceOnUse">
<stop stop-color="#395D6B"/>
<stop offset="1" stop-color="#6FB6D1"/>
</linearGradient>
<linearGradient id="paint10_linear_3444_4806" x1="200.721" y1="400.266" x2="200.721" y2="407.156" gradientUnits="userSpaceOnUse">
<stop stop-color="#395D6B"/>
<stop offset="1" stop-color="#6FB6D1"/>
</linearGradient>
<linearGradient id="paint11_linear_3444_4806" x1="198.776" y1="394.727" x2="198.776" y2="404.337" gradientUnits="userSpaceOnUse">
<stop stop-color="#395D6B"/>
<stop offset="1" stop-color="#6FB6D1"/>
</linearGradient>
<linearGradient id="paint12_linear_3444_4806" x1="195.015" y1="394.227" x2="195.015" y2="401.167" gradientUnits="userSpaceOnUse">
<stop stop-color="#395D6B"/>
<stop offset="1" stop-color="#6FB6D1"/>
</linearGradient>
<linearGradient id="paint13_linear_3444_4806" x1="314.071" y1="307.227" x2="314.071" y2="341.067" gradientUnits="userSpaceOnUse">
<stop stop-color="#395D6B"/>
<stop offset="1" stop-color="#6FB6D1"/>
</linearGradient>
<linearGradient id="paint14_linear_3444_4806" x1="314.07" y1="314.146" x2="314.07" y2="334.146" gradientUnits="userSpaceOnUse">
<stop stop-color="#395D6B"/>
<stop offset="1" stop-color="#6FB6D1"/>
</linearGradient>
<linearGradient id="paint15_linear_3444_4806" x1="321.636" y1="336.527" x2="321.636" y2="361.627" gradientUnits="userSpaceOnUse">
<stop stop-color="#395D6B"/>
<stop offset="1" stop-color="#6FB6D1"/>
</linearGradient>
<linearGradient id="paint16_linear_3444_4806" x1="303.03" y1="336.527" x2="303.03" y2="361.627" gradientUnits="userSpaceOnUse">
<stop stop-color="#395D6B"/>
<stop offset="1" stop-color="#6FB6D1"/>
</linearGradient>
<linearGradient id="paint17_linear_3444_4806" x1="449.016" y1="409.127" x2="449.016" y2="418.837" gradientUnits="userSpaceOnUse">
<stop stop-color="#395D6B"/>
<stop offset="1" stop-color="#6FB6D1"/>
</linearGradient>
<linearGradient id="paint18_linear_3444_4806" x1="409.955" y1="409.127" x2="409.955" y2="418.837" gradientUnits="userSpaceOnUse">
<stop stop-color="#395D6B"/>
<stop offset="1" stop-color="#6FB6D1"/>
</linearGradient>
<linearGradient id="paint19_linear_3444_4806" x1="409.945" y1="386.816" x2="409.945" y2="409.126" gradientUnits="userSpaceOnUse">
<stop stop-color="#395D6B"/>
<stop offset="1" stop-color="#6FB6D1"/>
</linearGradient>
<linearGradient id="paint20_linear_3444_4806" x1="449.011" y1="386.816" x2="449.011" y2="409.126" gradientUnits="userSpaceOnUse">
<stop stop-color="#395D6B"/>
<stop offset="1" stop-color="#6FB6D1"/>
</linearGradient>
<linearGradient id="paint21_linear_3444_4806" x1="429.481" y1="386.816" x2="429.481" y2="387.816" gradientUnits="userSpaceOnUse">
<stop stop-color="#395D6B"/>
<stop offset="1" stop-color="#6FB6D1"/>
</linearGradient>
<linearGradient id="paint22_linear_3444_4806" x1="429.98" y1="386.816" x2="429.98" y2="426.046" gradientUnits="userSpaceOnUse">
<stop stop-color="#395D6B"/>
<stop offset="1" stop-color="#6FB6D1"/>
</linearGradient>
<linearGradient id="paint23_linear_3444_4806" x1="429.476" y1="426.047" x2="429.476" y2="427.047" gradientUnits="userSpaceOnUse">
<stop stop-color="#395D6B"/>
<stop offset="1" stop-color="#6FB6D1"/>
</linearGradient>
<linearGradient id="paint24_linear_3444_4806" x1="429.48" y1="380.766" x2="429.48" y2="387.046" gradientUnits="userSpaceOnUse">
<stop stop-color="#395D6B"/>
<stop offset="1" stop-color="#6FB6D1"/>
</linearGradient>
<linearGradient id="paint25_linear_3444_4806" x1="539.961" y1="183.037" x2="539.961" y2="207.097" gradientUnits="userSpaceOnUse">
<stop stop-color="#395D6B"/>
<stop offset="1" stop-color="#6FB6D1"/>
</linearGradient>
<linearGradient id="paint26_linear_3444_4806" x1="557.39" y1="183.027" x2="557.39" y2="186.077" gradientUnits="userSpaceOnUse">
<stop stop-color="#395D6B"/>
<stop offset="1" stop-color="#6FB6D1"/>
</linearGradient>
<linearGradient id="paint27_linear_3444_4806" x1="551.67" y1="196.316" x2="551.67" y2="221.527" gradientUnits="userSpaceOnUse">
<stop stop-color="#395D6B"/>
<stop offset="1" stop-color="#6FB6D1"/>
</linearGradient>
<linearGradient id="paint28_linear_3444_4806" x1="538.875" y1="203.826" x2="538.875" y2="213.576" gradientUnits="userSpaceOnUse">
<stop stop-color="#395D6B"/>
<stop offset="1" stop-color="#6FB6D1"/>
</linearGradient>
<linearGradient id="paint29_linear_3444_4806" x1="543.011" y1="207.096" x2="543.011" y2="219.176" gradientUnits="userSpaceOnUse">
<stop stop-color="#395D6B"/>
<stop offset="1" stop-color="#6FB6D1"/>
</linearGradient>
<linearGradient id="paint30_linear_3444_4806" x1="547.951" y1="210.496" x2="547.951" y2="219.506" gradientUnits="userSpaceOnUse">
<stop stop-color="#395D6B"/>
<stop offset="1" stop-color="#6FB6D1"/>
</linearGradient>
<linearGradient id="paint31_linear_3444_4806" x1="553.035" y1="309.957" x2="553.035" y2="347.637" gradientUnits="userSpaceOnUse">
<stop stop-color="#395D6B"/>
<stop offset="1" stop-color="#6FB6D1"/>
</linearGradient>
<linearGradient id="paint32_linear_3444_4806" x1="553.035" y1="309.957" x2="553.035" y2="347.637" gradientUnits="userSpaceOnUse">
<stop stop-color="#395D6B"/>
<stop offset="1" stop-color="#6FB6D1"/>
</linearGradient>
<linearGradient id="paint33_linear_3444_4806" x1="430.247" y1="122.061" x2="430.247" y2="137.325" gradientUnits="userSpaceOnUse">
<stop stop-color="#395D6B"/>
<stop offset="1" stop-color="#6FB6D1"/>
</linearGradient>
<linearGradient id="paint34_linear_3444_4806" x1="430.247" y1="122.061" x2="430.247" y2="137.325" gradientUnits="userSpaceOnUse">
<stop stop-color="#395D6B"/>
<stop offset="1" stop-color="#6FB6D1"/>
</linearGradient>
<linearGradient id="paint35_linear_3444_4806" x1="456.554" y1="129.58" x2="456.554" y2="129.746" gradientUnits="userSpaceOnUse">
<stop stop-color="#395D6B"/>
<stop offset="1" stop-color="#6FB6D1"/>
</linearGradient>
<linearGradient id="paint36_linear_3444_4806" x1="446.271" y1="134.688" x2="446.271" y2="156.132" gradientUnits="userSpaceOnUse">
<stop stop-color="#395D6B"/>
<stop offset="1" stop-color="#6FB6D1"/>
</linearGradient>
<linearGradient id="paint37_linear_3444_4806" x1="446.18" y1="103.424" x2="446.18" y2="124.64" gradientUnits="userSpaceOnUse">
<stop stop-color="#395D6B"/>
<stop offset="1" stop-color="#6FB6D1"/>
</linearGradient>
<linearGradient id="paint38_linear_3444_4806" x1="430.251" y1="146.279" x2="430.251" y2="165.059" gradientUnits="userSpaceOnUse">
<stop stop-color="#395D6B"/>
<stop offset="1" stop-color="#6FB6D1"/>
</linearGradient>
<linearGradient id="paint39_linear_3444_4806" x1="430.251" y1="93.8203" x2="430.251" y2="112.597" gradientUnits="userSpaceOnUse">
<stop stop-color="#395D6B"/>
<stop offset="1" stop-color="#6FB6D1"/>
</linearGradient>
<linearGradient id="paint40_linear_3444_4806" x1="430.247" y1="122.061" x2="430.247" y2="137.325" gradientUnits="userSpaceOnUse">
<stop stop-color="#395D6B"/>
<stop offset="1" stop-color="#6FB6D1"/>
</linearGradient>
<linearGradient id="paint41_linear_3444_4806" x1="414.448" y1="135.285" x2="414.448" y2="156.088" gradientUnits="userSpaceOnUse">
<stop stop-color="#395D6B"/>
<stop offset="1" stop-color="#6FB6D1"/>
</linearGradient>
<linearGradient id="paint42_linear_3444_4806" x1="414.229" y1="103.424" x2="414.229" y2="124.933" gradientUnits="userSpaceOnUse">
<stop stop-color="#395D6B"/>
<stop offset="1" stop-color="#6FB6D1"/>
</linearGradient>
<linearGradient id="paint43_linear_3444_4806" x1="404.017" y1="129.736" x2="404.017" y2="130.736" gradientUnits="userSpaceOnUse">
<stop stop-color="#395D6B"/>
<stop offset="1" stop-color="#6FB6D1"/>
</linearGradient>
<linearGradient id="paint44_linear_3444_4806" x1="190.356" y1="240.426" x2="190.356" y2="288.332" gradientUnits="userSpaceOnUse">
<stop stop-color="#395D6B"/>
<stop offset="1" stop-color="#6FB6D1"/>
</linearGradient>
<linearGradient id="paint45_linear_3444_4806" x1="218.275" y1="257.088" x2="218.275" y2="258.088" gradientUnits="userSpaceOnUse">
<stop stop-color="#395D6B"/>
<stop offset="1" stop-color="#6FB6D1"/>
</linearGradient>
<linearGradient id="paint46_linear_3444_4806" x1="210.063" y1="235.471" x2="210.063" y2="239.48" gradientUnits="userSpaceOnUse">
<stop stop-color="#395D6B"/>
<stop offset="1" stop-color="#6FB6D1"/>
</linearGradient>
<linearGradient id="paint47_linear_3444_4806" x1="190.81" y1="228.199" x2="190.81" y2="230.891" gradientUnits="userSpaceOnUse">
<stop stop-color="#395D6B"/>
<stop offset="1" stop-color="#6FB6D1"/>
</linearGradient>
<linearGradient id="paint48_linear_3444_4806" x1="190.451" y1="303.389" x2="190.451" y2="304.389" gradientUnits="userSpaceOnUse">
<stop stop-color="#395D6B"/>
<stop offset="1" stop-color="#6FB6D1"/>
</linearGradient>
<linearGradient id="paint49_linear_3444_4806" x1="190.452" y1="297.785" x2="190.452" y2="297.822" gradientUnits="userSpaceOnUse">
<stop stop-color="#395D6B"/>
<stop offset="1" stop-color="#6FB6D1"/>
</linearGradient>
<linearGradient id="paint50_linear_3444_4806" x1="190.31" y1="292.268" x2="190.31" y2="292.273" gradientUnits="userSpaceOnUse">
<stop stop-color="#395D6B"/>
<stop offset="1" stop-color="#6FB6D1"/>
</linearGradient>
<linearGradient id="paint51_linear_3444_4806" x1="170.841" y1="234.662" x2="170.841" y2="240.855" gradientUnits="userSpaceOnUse">
<stop stop-color="#395D6B"/>
<stop offset="1" stop-color="#6FB6D1"/>
</linearGradient>
<linearGradient id="paint52_linear_3444_4806" x1="162.415" y1="257.088" x2="162.415" y2="258.088" gradientUnits="userSpaceOnUse">
<stop stop-color="#395D6B"/>
<stop offset="1" stop-color="#6FB6D1"/>
</linearGradient>
<linearGradient id="paint53_linear_3444_4806" x1="539.675" y1="476.971" x2="539.675" y2="477.015" gradientUnits="userSpaceOnUse">
<stop stop-color="#395D6B"/>
<stop offset="1" stop-color="#6FB6D1"/>
</linearGradient>
<linearGradient id="paint54_linear_3444_4806" x1="549.092" y1="462.168" x2="549.092" y2="473.228" gradientUnits="userSpaceOnUse">
<stop stop-color="#395D6B"/>
<stop offset="1" stop-color="#6FB6D1"/>
</linearGradient>
<linearGradient id="paint55_linear_3444_4806" x1="548.789" y1="473.229" x2="548.789" y2="479.724" gradientUnits="userSpaceOnUse">
<stop stop-color="#395D6B"/>
<stop offset="1" stop-color="#6FB6D1"/>
</linearGradient>
<linearGradient id="paint56_linear_3444_4806" x1="547.376" y1="473.229" x2="547.376" y2="477.013" gradientUnits="userSpaceOnUse">
<stop stop-color="#395D6B"/>
<stop offset="1" stop-color="#6FB6D1"/>
</linearGradient>
<linearGradient id="paint57_linear_3444_4806" x1="549.209" y1="451.49" x2="549.209" y2="497.035" gradientUnits="userSpaceOnUse">
<stop stop-color="#395D6B"/>
<stop offset="1" stop-color="#6FB6D1"/>
</linearGradient>
<linearGradient id="paint58_linear_3444_4806" x1="549.205" y1="441.816" x2="549.205" y2="506.739" gradientUnits="userSpaceOnUse">
<stop stop-color="#395D6B"/>
<stop offset="1" stop-color="#6FB6D1"/>
</linearGradient>
<linearGradient id="paint59_linear_3444_4806" x1="310.01" y1="473.488" x2="310.01" y2="494.376" gradientUnits="userSpaceOnUse">
<stop stop-color="#395D6B"/>
<stop offset="1" stop-color="#6FB6D1"/>
</linearGradient>
<linearGradient id="paint60_linear_3444_4806" x1="310.01" y1="473.488" x2="310.01" y2="494.376" gradientUnits="userSpaceOnUse">
<stop stop-color="#395D6B"/>
<stop offset="1" stop-color="#6FB6D1"/>
</linearGradient>
<linearGradient id="paint61_linear_3444_4806" x1="310.091" y1="446.967" x2="310.091" y2="474.227" gradientUnits="userSpaceOnUse">
<stop stop-color="#395D6B"/>
<stop offset="1" stop-color="#6FB6D1"/>
</linearGradient>
<linearGradient id="paint62_linear_3444_4806" x1="310.091" y1="446.967" x2="310.091" y2="474.227" gradientUnits="userSpaceOnUse">
<stop stop-color="#395D6B"/>
<stop offset="1" stop-color="#6FB6D1"/>
</linearGradient>
</defs>
</svg>
