<svg width="750" height="500" viewBox="0 0 750 500" fill="none" xmlns="http://www.w3.org/2000/svg">
<mask id="mask0_1942_1684" style="mask-type:luminance" maskUnits="userSpaceOnUse" x="0" y="0" width="750" height="500">
<path d="M750 0H0V500H750V0Z" fill="white"/>
</mask>
<g mask="url(#mask0_1942_1684)">
<path d="M559.221 37.0054C555.604 30.7403 548.919 26.8809 541.685 26.8809H491.368C484.134 26.8809 477.449 30.7403 473.831 37.0054L448.669 80.5854C445.051 86.851 445.051 94.5707 448.669 100.836L473.831 144.416C477.449 150.681 484.134 154.541 491.368 154.541H541.685C548.919 154.541 555.604 150.681 559.221 144.416L584.384 100.836C588.001 94.5707 588.001 86.851 584.384 80.5854L559.221 37.0054Z" stroke="url(#paint0_linear_1942_1684)" stroke-width="0.5"/>
<path d="M795.36 172.505C791.743 166.24 785.058 162.381 777.823 162.381H727.507C720.272 162.381 713.587 166.24 709.97 172.505L684.808 216.085C681.19 222.351 681.19 230.071 684.809 236.337L709.97 279.907C713.587 286.172 720.272 290.031 727.506 290.031H777.824C785.058 290.031 791.743 286.172 795.36 279.907L820.521 236.337C824.14 230.071 824.14 222.351 820.522 216.085L795.36 172.505Z" stroke="url(#paint1_linear_1942_1684)" stroke-width="0.5"/>
<path d="M677.821 -28.0844C674.204 -34.3496 667.519 -38.209 660.284 -38.209H609.968C602.733 -38.209 596.048 -34.3495 592.431 -28.0844L567.268 15.4956C563.651 21.7612 563.651 29.4809 567.268 35.7464L592.431 79.3264C596.048 85.5916 602.733 89.451 609.968 89.451H660.284C667.519 89.451 674.204 85.5916 677.821 79.3264L702.983 35.7464C706.601 29.4808 706.601 21.7612 702.983 15.4956L677.821 -28.0844Z" stroke="url(#paint2_linear_1942_1684)" stroke-width="0.5"/>
<path d="M795.36 35.8257C791.743 29.5606 785.058 25.7012 777.823 25.7012H727.507C720.272 25.7012 713.587 29.5606 709.97 35.8257L684.808 79.4058C681.19 85.6713 681.19 93.391 684.808 99.6566L709.97 143.237C713.587 149.502 720.272 153.361 727.507 153.361H777.823C785.058 153.361 791.743 149.502 795.36 143.237L820.522 99.6566C824.14 93.391 824.14 85.6713 820.522 79.4057L795.36 35.8257Z" stroke="url(#paint3_linear_1942_1684)" stroke-width="0.5"/>
<path d="M677.821 378.035C674.204 371.77 667.519 367.91 660.284 367.91H609.968C602.733 367.91 596.048 371.77 592.431 378.035L567.269 421.614C563.651 427.88 563.651 435.6 567.27 441.866L592.431 485.437C596.048 491.701 602.733 495.56 609.967 495.56H660.285C667.519 495.56 674.204 491.701 677.821 485.437L702.982 441.866C706.601 435.6 706.601 427.88 702.983 421.614L677.821 378.035Z" stroke="url(#paint4_linear_1942_1684)" stroke-width="0.5"/>
<path d="M318.54 172.505C314.922 166.24 308.237 162.381 301.003 162.381H250.686C243.452 162.381 236.767 166.24 233.15 172.505L207.988 216.085C204.37 222.351 204.37 230.071 207.988 236.337L233.149 279.907C236.767 286.172 243.452 290.031 250.685 290.031H301.004C308.238 290.031 314.922 286.172 318.54 279.907L343.701 236.337C347.319 230.071 347.32 222.351 343.702 216.085L318.54 172.505Z" stroke="url(#paint5_linear_1942_1684)" stroke-width="0.5"/>
<path d="M320.54 450.414C316.922 444.15 310.238 440.291 303.004 440.291H252.685C245.452 440.291 238.767 444.15 235.149 450.414L209.988 493.985C206.37 500.251 206.37 507.971 209.988 514.237L235.15 557.816C238.767 564.082 245.452 567.941 252.686 567.941H303.003C310.237 567.941 316.922 564.082 320.54 557.816L345.702 514.237C349.32 507.971 349.319 500.251 345.701 493.985L320.54 450.414Z" stroke="url(#paint6_linear_1942_1684)" stroke-width="0.5"/>
<path d="M559.221 446.205C555.604 439.94 548.919 436.08 541.685 436.08H491.368C484.134 436.08 477.449 439.94 473.831 446.205L448.669 489.785C445.051 496.05 445.051 503.77 448.669 510.035L473.831 553.616C477.449 559.881 484.134 563.74 491.368 563.74H541.685C548.919 563.74 555.604 559.881 559.221 553.616L584.384 510.035C588.001 503.77 588.001 496.05 584.384 489.785L559.221 446.205Z" stroke="url(#paint7_linear_1942_1684)" stroke-width="0.5"/>
<path d="M677.821 240.646C674.204 234.381 667.519 230.521 660.284 230.521H609.968C602.733 230.521 596.048 234.381 592.431 240.646L567.268 284.226C563.651 290.492 563.651 298.211 567.268 304.477L592.431 348.057C596.048 354.322 602.733 358.181 609.968 358.181H660.284C667.519 358.181 674.204 354.322 677.821 348.057L702.983 304.477C706.601 298.211 706.601 290.492 702.983 284.226L677.821 240.646Z" stroke="url(#paint8_linear_1942_1684)" stroke-width="0.5"/>
<path d="M795.36 449.703C791.743 443.439 785.058 439.58 777.824 439.58H727.506C720.272 439.58 713.587 443.439 709.97 449.703L684.809 493.274C681.19 499.54 681.19 507.26 684.808 513.526L709.97 557.105C713.587 563.371 720.272 567.23 727.507 567.23H777.823C785.058 567.23 791.743 563.371 795.36 557.106L820.522 513.526C824.14 507.26 824.14 499.54 820.521 493.274L795.36 449.703Z" stroke="url(#paint9_linear_1942_1684)" stroke-width="0.5"/>
<path d="M437.631 379.957C434.014 373.69 427.329 369.83 420.093 369.83H369.77C362.534 369.83 355.849 373.69 352.232 379.957L327.076 423.537C323.46 429.801 323.46 437.519 327.076 443.783L352.232 487.363C355.849 493.63 362.534 497.49 369.77 497.49H420.093C427.329 497.49 434.014 493.63 437.631 487.363L462.787 443.783C466.403 437.519 466.403 429.801 462.787 423.537L437.631 379.957Z" stroke="url(#paint10_linear_1942_1684)" stroke-width="0.5"/>
<path d="M200.921 379.955C197.303 373.69 190.618 369.83 183.384 369.83H133.067C125.833 369.83 119.148 373.69 115.53 379.955L90.3681 423.535C86.7505 429.8 86.7505 437.52 90.3681 443.786L115.53 487.366C119.148 493.631 125.833 497.49 133.067 497.49H183.384C190.618 497.49 197.303 493.631 200.921 487.366L226.083 443.786C229.701 437.52 229.701 429.8 226.083 423.535L200.921 379.955Z" stroke="url(#paint11_linear_1942_1684)" stroke-width="0.5"/>
</g>
<path d="M396.431 137.34C386.091 137.34 377.711 145.72 377.711 156.06C377.711 163.39 381.931 169.74 388.071 172.81V182.31C388.071 185.86 390.241 188.9 393.321 190.18H393.021V192.99H400.181V190.04C403.101 188.69 405.131 185.74 405.131 182.31V172.64C411.091 169.51 415.161 163.26 415.161 156.06C415.161 145.72 406.781 137.34 396.441 137.34H396.431Z" fill="white" stroke="white" stroke-width="3.51" stroke-linecap="round" stroke-linejoin="round"/>
<path d="M381.092 160.754L381.035 160.857C374.35 172.503 383.113 187.269 396.614 187.251C414.3 187.229 421.434 163.873 405.984 154.137C401.335 151.206 397.236 151.724 396.282 151.468C393.27 150.663 393.121 146.599 396.724 146.133C401.773 145.479 409.109 148.974 412.708 152.415C427.747 166.796 417.835 192.654 396.614 192.652C377.962 192.65 367.49 172.486 376.728 156.825C376.489 155.915 373.361 153.658 373.42 153.426L385.279 152.105L384.682 163.812L381.092 160.752V160.754Z" stroke="url(#paint12_linear_1942_1684)" stroke-width="1.5" stroke-linecap="round" stroke-linejoin="round"/>
<path d="M512.12 259.489C513.1 260.609 514.85 260.609 515.83 259.489L535.36 237.159C538.14 234.249 539.8 230.249 539.61 225.859C539.27 218.049 532.95 211.629 525.14 211.189C520.84 210.949 516.9 212.469 513.98 215.099C510.89 212.329 506.67 210.779 502.1 211.249C494.78 211.999 488.95 217.989 488.38 225.319C488.04 229.709 489.54 233.739 492.2 236.729L492.22 236.749C492.22 236.749 492.3 236.849 492.35 236.899L512.13 259.499L512.12 259.489Z" fill="white" stroke="white" stroke-width="3.06" stroke-linecap="round" stroke-linejoin="round"/>
<path d="M511.481 220.239C516.941 223.419 519.701 227.769 519.681 233.779C520.971 233.099 521.351 231.999 521.681 230.609C522.961 232.519 523.801 234.429 524.351 236.459C525.621 241.179 524.881 245.389 520.811 248.649C520.001 249.299 519.031 249.749 518.031 250.199C520.001 248.309 520.891 246.089 520.091 243.549C519.691 242.259 518.881 241.029 518.041 239.919C516.611 238.039 515.391 236.129 515.331 233.449C511.991 236.219 511.271 239.609 511.621 243.389C510.251 242.999 509.761 242.199 509.431 239.859C506.941 242.349 507.061 246.649 509.901 250.169C507.371 249.139 505.621 247.619 504.461 245.529C502.471 241.929 502.631 238.309 504.631 234.759C505.241 233.679 506.001 232.659 506.811 231.709C509.601 228.439 511.761 224.929 511.471 220.219L511.481 220.239Z" stroke="url(#paint13_linear_1942_1684)" stroke-width="1.5" stroke-linecap="round" stroke-linejoin="round"/>
<path d="M272.651 389.44C273.631 390.56 275.381 390.56 276.361 389.44L295.891 367.11C298.671 364.2 300.331 360.2 300.141 355.81C299.801 348 293.481 341.58 285.671 341.14C281.371 340.9 277.431 342.42 274.511 345.05C271.421 342.28 267.201 340.73 262.631 341.2C255.311 341.95 249.481 347.94 248.911 355.27C248.571 359.66 250.071 363.69 252.731 366.68L252.751 366.7C252.751 366.7 252.831 366.8 252.881 366.85L272.661 389.45L272.651 389.44Z" fill="white" stroke="white" stroke-width="3.06" stroke-linecap="round" stroke-linejoin="round"/>
<path d="M262.221 373.159L264.801 370.719L263.361 354.699C263.361 354.699 267.561 354.119 268.011 357.289C268.461 360.459 269.251 363.399 272.191 360.109C275.131 356.819 278.981 352.379 278.981 352.379C278.981 352.379 280.451 350.469 282.381 352.189C284.311 353.909 282.621 355.509 282.621 355.509L285.301 352.519C285.301 352.519 286.211 351.299 287.831 352.749C289.451 354.199 288.371 355.269 288.371 355.269L287.651 356.069C287.651 356.069 288.361 355.349 289.741 356.589C291.271 357.959 290.071 359.529 290.071 359.529L288.101 361.729C288.101 361.729 289.391 360.289 291.061 361.779C292.601 363.159 290.871 365.089 290.871 365.089L278.101 379.349C278.101 379.349 275.511 381.509 273.621 381.119L271.001 383.189" stroke="url(#paint14_linear_1942_1684)" stroke-width="1.5" stroke-linecap="round" stroke-linejoin="round"/>
<path d="M288.311 361.549L282.131 368.439" stroke="url(#paint15_linear_1942_1684)" stroke-width="1.5" stroke-linecap="round" stroke-linejoin="round"/>
<path d="M287.581 356.01L278.971 365.62" stroke="url(#paint16_linear_1942_1684)" stroke-width="1.5" stroke-linecap="round" stroke-linejoin="round"/>
<path d="M282.62 355.51L276.41 362.45" stroke="url(#paint17_linear_1942_1684)" stroke-width="1.5" stroke-linecap="round" stroke-linejoin="round"/>
<path d="M421.91 312.46L412.08 298C415.24 294.6 417.02 290.09 417.02 285.44C417.02 275.27 408.74 266.99 398.57 266.99C388.4 266.99 380.12 275.27 380.12 285.44C380.12 290.19 381.95 294.65 385.07 298L375.23 312.47C374.91 312.95 374.88 313.57 375.16 314.07C375.44 314.57 375.97 314.88 376.56 314.86L386.04 314.47L389.17 323.43C389.36 323.98 389.84 324.37 390.41 324.44C390.48 324.44 390.54 324.45 390.61 324.45C391.11 324.45 391.59 324.2 391.87 323.78L398.57 313.93L405.26 323.78C405.55 324.2 406.02 324.45 406.52 324.45C406.59 324.45 406.65 324.45 406.72 324.44C407.29 324.36 407.77 323.97 407.96 323.43L411.09 314.47L420.57 314.86C421.15 314.89 421.69 314.58 421.97 314.07C422.25 313.56 422.22 312.95 421.9 312.47L421.91 312.46Z" fill="white" stroke="white" stroke-width="3.06" stroke-linecap="round" stroke-linejoin="round"/>
<path d="M398.57 302.35C407.915 302.35 415.49 294.774 415.49 285.43C415.49 276.085 407.915 268.51 398.57 268.51C389.226 268.51 381.65 276.085 381.65 285.43C381.65 294.774 389.226 302.35 398.57 302.35Z" stroke="url(#paint18_linear_1942_1684)" stroke-width="1.5" stroke-linecap="round" stroke-linejoin="round"/>
<path d="M398.57 295.43C404.093 295.43 408.57 290.953 408.57 285.43C408.57 279.907 404.093 275.43 398.57 275.43C393.047 275.43 388.57 279.907 388.57 285.43C388.57 290.953 393.047 295.43 398.57 295.43Z" stroke="url(#paint19_linear_1942_1684)" stroke-width="1.5" stroke-linecap="round" stroke-linejoin="round"/>
<path d="M391.621 300.971L406.531 322.911L410.031 312.881L420.651 313.321L410.111 297.811" stroke="url(#paint20_linear_1942_1684)" stroke-width="1.5" stroke-linecap="round" stroke-linejoin="round"/>
<path d="M398.57 311.201L390.61 322.911L387.11 312.881L376.49 313.321L387.04 297.811" stroke="url(#paint21_linear_1942_1684)" stroke-width="1.5" stroke-linecap="round" stroke-linejoin="round"/>
<path d="M544.25 370.22V370.2C544.25 370.17 544.23 370.14 544.22 370.11C544.21 370.07 544.2 370.04 544.19 370L534.48 347.68C534.48 347.68 534.48 347.67 534.47 347.66C534.43 347.58 534.39 347.51 534.34 347.45C534.33 347.43 534.31 347.41 534.3 347.4C534.24 347.33 534.18 347.27 534.1 347.22C534.1 347.22 534.09 347.22 534.08 347.21C534.01 347.17 533.94 347.13 533.86 347.11C533.84 347.11 533.82 347.1 533.8 347.09C533.71 347.07 533.62 347.05 533.53 347.05H517.76C518.04 346.49 518.2 345.86 518.2 345.2C518.2 342.89 516.32 341.01 514.01 341.01C511.7 341.01 509.82 342.89 509.82 345.2C509.82 345.86 509.98 346.49 510.26 347.05H494.49C494.39 347.05 494.3 347.07 494.22 347.09C494.2 347.09 494.18 347.1 494.16 347.11C494.08 347.14 494.01 347.17 493.94 347.21C493.94 347.21 493.93 347.21 493.92 347.22C493.85 347.27 493.78 347.33 493.72 347.4C493.7 347.42 493.69 347.44 493.68 347.45C493.63 347.52 493.58 347.59 493.55 347.66C493.55 347.66 493.55 347.67 493.54 347.68L483.83 370C483.82 370.03 483.81 370.07 483.8 370.11C483.8 370.14 483.78 370.17 483.77 370.2C483.77 370.2 483.77 370.21 483.77 370.22C483.76 370.28 483.75 370.35 483.75 370.41C483.75 376.34 488.58 381.17 494.51 381.17C500.44 381.17 505.27 376.34 505.27 370.41C505.27 370.35 505.27 370.29 505.25 370.22V370.2C505.25 370.17 505.23 370.14 505.22 370.11C505.21 370.07 505.2 370.04 505.19 370L496.12 349.16H512.67C512.77 349.2 512.88 349.23 512.99 349.26V386.29H506.43C505.85 386.29 505.38 386.76 505.38 387.34C505.38 387.92 505.85 388.39 506.43 388.39H521.66C522.24 388.39 522.71 387.92 522.71 387.34C522.71 386.76 522.24 386.29 521.66 386.29H515.1V349.26C515.21 349.23 515.31 349.2 515.42 349.16H531.97L522.9 370C522.89 370.03 522.88 370.07 522.87 370.11C522.87 370.14 522.85 370.17 522.84 370.2C522.84 370.2 522.84 370.21 522.84 370.22C522.83 370.28 522.82 370.35 522.82 370.41C522.82 376.34 527.65 381.17 533.58 381.17C539.51 381.17 544.34 376.34 544.34 370.41C544.34 370.35 544.34 370.29 544.32 370.22H544.25Z" fill="white" stroke="white" stroke-width="3.06" stroke-linecap="round" stroke-linejoin="round"/>
<path d="M533.511 380.12C538.871 380.12 543.221 375.77 543.221 370.41H523.811C523.811 375.77 528.161 380.12 533.521 380.12H533.511Z" stroke="url(#paint22_linear_1942_1684)" stroke-width="1.5" stroke-linecap="round" stroke-linejoin="round"/>
<path d="M494.45 380.12C499.81 380.12 504.16 375.77 504.16 370.41H484.75C484.75 375.77 489.1 380.12 494.46 380.12H494.45Z" stroke="url(#paint23_linear_1942_1684)" stroke-width="1.5" stroke-linecap="round" stroke-linejoin="round"/>
<path d="M484.74 370.41L494.45 348.1L504.15 370.41" stroke="url(#paint24_linear_1942_1684)" stroke-width="1.5" stroke-linecap="round" stroke-linejoin="round"/>
<path d="M523.801 370.41L533.511 348.1L543.221 370.41" stroke="url(#paint25_linear_1942_1684)" stroke-width="1.5" stroke-linecap="round" stroke-linejoin="round"/>
<path d="M533.511 348.1H494.451" stroke="url(#paint26_linear_1942_1684)" stroke-width="1.5" stroke-linecap="round" stroke-linejoin="round"/>
<path d="M513.98 348.1V387.33" stroke="url(#paint27_linear_1942_1684)" stroke-width="1.5" stroke-linecap="round" stroke-linejoin="round"/>
<path d="M506.361 387.33H521.591" stroke="url(#paint28_linear_1942_1684)" stroke-width="1.5" stroke-linecap="round" stroke-linejoin="round"/>
<path d="M513.98 348.329C515.714 348.329 517.12 346.923 517.12 345.189C517.12 343.455 515.714 342.049 513.98 342.049C512.246 342.049 510.84 343.455 510.84 345.189C510.84 346.923 512.246 348.329 513.98 348.329Z" stroke="url(#paint29_linear_1942_1684)" stroke-width="1.5" stroke-linecap="round" stroke-linejoin="round"/>
<path d="M656.9 156.569L644.76 143.279C644.2 142.659 643.24 142.609 642.62 143.169L636.48 148.589L627.14 147.499L618.41 142.959C617.82 142.649 617.09 142.759 616.62 143.239L604.23 155.629C603.93 155.929 603.77 156.339 603.78 156.759C603.79 157.179 603.98 157.579 604.3 157.859L608.31 161.389C608.71 164.899 611.82 168.869 612.19 169.339C612.22 169.379 612.26 169.419 612.29 169.459L616.14 173.359C616.2 173.429 616.26 173.509 616.33 173.569L616.98 174.219L616.5 174.699C615.23 175.969 614.94 178.239 617.15 180.449C618.08 181.379 619.06 181.919 620.05 182.049C620.57 182.119 621.07 182.069 621.54 181.919L621.93 182.309C623.55 183.929 626.05 184.129 627.89 182.909L628.15 183.169C628.94 183.959 629.98 184.349 631.02 184.349C632.06 184.349 633.05 183.979 633.83 183.229L652.52 165.359C652.73 165.159 652.88 164.909 652.95 164.629L653.89 160.859L656.67 158.849C657.02 158.589 657.25 158.199 657.3 157.769C657.35 157.339 657.2 156.899 656.91 156.579L656.9 156.569Z" fill="white" stroke="white" stroke-width="3.06" stroke-linecap="round" stroke-linejoin="round"/>
<path d="M613.381 168.38C613.381 168.38 609.791 163.89 609.791 160.66L605.301 156.71L617.691 144.32L626.671 148.99L643.551 150.97C643.551 150.97 644.451 155.46 639.781 155.1L635.111 154.74C635.111 154.74 631.341 163 621.641 157.97" stroke="url(#paint30_linear_1942_1684)" stroke-width="1.5" stroke-linecap="round" stroke-linejoin="round"/>
<path d="M640.15 147.361L643.63 144.311" stroke="url(#paint31_linear_1942_1684)" stroke-width="1.5" stroke-linecap="round" stroke-linejoin="round"/>
<path d="M655.771 157.6L652.541 159.93L651.461 164.24L632.771 182.11C631.781 183.06 630.201 183.04 629.231 182.07L627.961 180.8L627.551 181.21C626.301 182.46 624.271 182.46 623.011 181.21L621.791 179.99C620.981 180.8 619.661 180.8 618.221 179.36C616.781 177.92 616.761 176.59 617.571 175.78L619.131 174.22L617.401 172.49C616.291 171.38 616.291 169.59 617.401 168.48L622.211 163.67" stroke="url(#paint32_linear_1942_1684)" stroke-width="1.5" stroke-linecap="round" stroke-linejoin="round"/>
<path d="M628.25 165.109L618.5 174.859" stroke="url(#paint33_linear_1942_1684)" stroke-width="1.5" stroke-linecap="round" stroke-linejoin="round"/>
<path d="M633.551 168.379L621.471 180.459" stroke="url(#paint34_linear_1942_1684)" stroke-width="1.5" stroke-linecap="round" stroke-linejoin="round"/>
<path d="M636.951 171.779L627.951 180.789" stroke="url(#paint35_linear_1942_1684)" stroke-width="1.5" stroke-linecap="round" stroke-linejoin="round"/>
<path d="M666.54 305.64L663.71 299.61C665.41 296.72 666.3 293.46 666.3 290.08C666.3 279.69 657.85 271.24 647.46 271.24C643.92 271.24 640.53 272.22 637.54 274.08C634.56 272.22 631.16 271.24 627.63 271.24C617.24 271.24 608.79 279.69 608.79 290.08C608.79 293.45 609.68 296.72 611.38 299.61L608.55 305.64C608.14 306.52 608.32 307.56 609 308.24C609.68 308.93 610.72 309.11 611.6 308.71L617.53 305.97C620.56 307.9 624.02 308.92 627.62 308.92C631.22 308.92 634.55 307.94 637.53 306.08C640.51 307.94 643.91 308.92 647.45 308.92C650.99 308.92 654.52 307.9 657.54 305.97L663.47 308.71C663.78 308.85 664.11 308.92 664.44 308.92C665.04 308.92 665.63 308.68 666.07 308.24C666.75 307.55 666.93 306.51 666.52 305.64H666.54Z" fill="url(#paint36_linear_1942_1684)" stroke="url(#paint37_linear_1942_1684)" stroke-width="0.6" stroke-linecap="round" stroke-linejoin="round"/>
<path d="M637.85 277.079C635.04 274.869 631.49 273.549 627.64 273.549C618.51 273.549 611.11 280.949 611.11 290.079C611.11 293.559 612.19 296.779 614.02 299.439L610.65 306.619L617.77 303.329C620.53 305.389 623.93 306.619 627.64 306.619C631.35 306.619 634.95 305.339 637.74 303.179" stroke="white" stroke-width="1.54" stroke-miterlimit="10"/>
<path d="M661.091 299.439C662.921 296.779 664.001 293.559 664.001 290.079C664.001 280.949 656.601 273.549 647.471 273.549C638.341 273.549 630.941 280.949 630.941 290.079C630.941 299.209 638.341 306.609 647.471 306.609C651.171 306.609 654.581 305.379 657.341 303.319L664.461 306.609L661.091 299.429V299.439ZM656.751 284.949L642.691 299.009C642.401 299.299 642.011 299.459 641.601 299.459C641.191 299.459 640.801 299.299 640.511 299.009L636.431 294.929C635.831 294.329 635.831 293.359 636.431 292.759C637.031 292.159 638.001 292.159 638.601 292.759L641.591 295.749L654.571 282.769C655.171 282.169 656.141 282.169 656.741 282.769C657.341 283.369 657.341 284.339 656.741 284.939L656.751 284.949Z" fill="white" stroke="white" stroke-width="1.54" stroke-miterlimit="10"/>
<path d="M513.073 83.5361C513.126 83.5243 513.179 83.5124 513.233 83.5006C513.659 83.4148 514.093 83.3586 514.525 83.3468C524.057 83.0688 525.24 97.2231 515.791 98.5214C506.247 99.8345 503.666 85.6654 513.07 83.5331L513.073 83.5361Z" fill="url(#paint38_linear_1942_1684)"/>
<path d="M513.07 83.5331C503.666 85.6654 506.247 99.8345 515.791 98.5214C525.24 97.2231 524.057 83.0688 514.525 83.3468C514.093 83.3586 513.659 83.4148 513.233 83.5006C513.179 83.5124 513.126 83.5243 513.073 83.5361L513.07 83.5331ZM513.07 83.5331C513.123 83.5213 513.176 83.5095 513.23 83.4976" stroke="url(#paint39_linear_1942_1684)" stroke-width="3.06" stroke-linecap="round" stroke-linejoin="round"/>
<path d="M550.889 90.8618L531.217 91.0274" stroke="url(#paint40_linear_1942_1684)" stroke-width="2.5" stroke-linecap="round" stroke-linejoin="round"/>
<path d="M541.157 95.9702C538.928 107.075 531.327 114.685 520.385 117.415" stroke="url(#paint41_linear_1942_1684)" stroke-width="2.5" stroke-linecap="round" stroke-linejoin="round"/>
<path d="M520.211 64.7065C530.988 66.5786 539.227 75.2173 541.149 85.9232" stroke="url(#paint42_linear_1942_1684)" stroke-width="2.5" stroke-linecap="round" stroke-linejoin="round"/>
<path d="M514.746 107.562L514.755 126.342" stroke="url(#paint43_linear_1942_1684)" stroke-width="2.5" stroke-linecap="round" stroke-linejoin="round"/>
<path d="M514.746 55.103L514.755 73.8798" stroke="url(#paint44_linear_1942_1684)" stroke-width="2.5" stroke-linecap="round" stroke-linejoin="round"/>
<path d="M514.525 83.3468C524.057 83.0688 525.24 97.2231 515.791 98.5214C506.247 99.8345 503.666 85.6654 513.07 83.5331C513.123 83.5213 513.176 83.5095 513.23 83.4976C513.656 83.4119 514.09 83.3557 514.522 83.3439L514.525 83.3468Z" stroke="url(#paint45_linear_1942_1684)" stroke-width="2.5" stroke-linecap="round" stroke-linejoin="round"/>
<path d="M488.477 96.5669C490.612 107.24 498.792 115.181 509.418 117.369" stroke="url(#paint46_linear_1942_1684)" stroke-width="2.5" stroke-linecap="round" stroke-linejoin="round"/>
<path d="M509.28 64.7065C498.204 66.6762 490.273 75.2912 488.176 86.216" stroke="url(#paint47_linear_1942_1684)" stroke-width="2.5" stroke-linecap="round" stroke-linejoin="round"/>
<path d="M479.5 91.0181H497.534" stroke="url(#paint48_linear_1942_1684)" stroke-width="2.5" stroke-linecap="round" stroke-linejoin="round"/>
<path d="M272.329 201.804C288.376 200.399 298.615 214.924 293.639 229.063C291.832 234.2 288 235.436 285.002 245.063C284.49 246.701 284.965 249.101 282.667 249.522C281.922 249.66 268.263 249.634 267.516 249.522C264.526 249.072 265.42 245.65 262.913 240.247C260.227 234.458 255.397 232.14 254.844 223.112C254.2 212.614 261.621 202.737 272.332 201.802L272.329 201.804Z" fill="url(#paint49_linear_1942_1684)"/>
<path d="M301.43 218.371H304.119" stroke="url(#paint50_linear_1942_1684)" stroke-width="3.5" stroke-linecap="round" stroke-linejoin="round"/>
<path d="M296.565 196.754L292.559 200.764" stroke="url(#paint51_linear_1942_1684)" stroke-width="3.5" stroke-linecap="round" stroke-linejoin="round"/>
<path d="M277.273 207.535C289.005 210.39 291.764 221.138 286.998 231.178" stroke="white" stroke-width="3.11615" stroke-linecap="round" stroke-linejoin="round"/>
<path d="M274.809 189.483V192.175" stroke="url(#paint52_linear_1942_1684)" stroke-width="3.5" stroke-linecap="round" stroke-linejoin="round"/>
<path d="M270.703 264.673H279.197" stroke="url(#paint53_linear_1942_1684)" stroke-width="3.5" stroke-linecap="round" stroke-linejoin="round"/>
<path d="M282.599 259.106L267.305 259.07" stroke="url(#paint54_linear_1942_1684)" stroke-width="3.5" stroke-linecap="round" stroke-linejoin="round"/>
<path d="M284.016 253.551L265.605 253.556" stroke="url(#paint55_linear_1942_1684)" stroke-width="3.5" stroke-linecap="round" stroke-linejoin="round"/>
<path d="M252.244 195.946L258.437 202.139" stroke="url(#paint56_linear_1942_1684)" stroke-width="3.5" stroke-linecap="round" stroke-linejoin="round"/>
<path d="M245.5 218.371H248.33" stroke="url(#paint57_linear_1942_1684)" stroke-width="3.5" stroke-linecap="round" stroke-linejoin="round"/>
<path d="M655.733 429.761C656.317 431.985 656.56 434.294 656.457 436.593C655.552 456.237 631.682 465.562 617.701 451.728C603.662 437.839 612.878 413.761 632.604 412.802C643.351 412.279 653 419.356 655.733 429.761Z" fill="#FAFDFF"/>
<path d="M630.206 438.298L618.145 438.253" stroke="url(#paint58_linear_1942_1684)" stroke-width="1.39263" stroke-linecap="round" stroke-linejoin="round"/>
<path d="M633.547 434.512L633.639 423.451" stroke="url(#paint59_linear_1942_1684)" stroke-width="1.39263" stroke-linecap="round" stroke-linejoin="round"/>
<path d="M633.549 434.512L633.686 434.638C639.961 438.758 633.744 444.342 630.328 438.45L630.205 438.296" stroke="url(#paint60_linear_1942_1684)" stroke-width="1.39263" stroke-linecap="round" stroke-linejoin="round"/>
<path d="M633.549 434.512L633.43 434.648L630.205 438.296" stroke="url(#paint61_linear_1942_1684)" stroke-width="1.39263" stroke-linecap="round" stroke-linejoin="round"/>
<path d="M632.604 412.801C643.351 412.278 653 419.356 655.733 429.76C656.317 431.984 656.56 434.293 656.457 436.592C655.552 456.236 631.682 465.561 617.701 451.727C603.662 437.839 612.878 413.76 632.604 412.801Z" stroke="url(#paint62_linear_1942_1684)" stroke-width="1.85684" stroke-linecap="round" stroke-linejoin="round"/>
<path d="M639.119 468.003C639.218 467.525 639.194 467.006 639.303 466.534C639.501 465.687 639.529 463.815 640.178 463.252C643.218 462.326 646.2 461.253 648.956 459.638C650.097 459.511 651.959 461.797 652.915 461.978C654.207 462.224 658.914 456.191 660.502 455.272L657.875 450.958C662.23 443.153 658.941 441.63 666.131 440.776V430.327C658.791 429.503 662.288 427.468 657.735 420.158L660.215 415.84C660.054 415.229 656.652 411.946 655.843 411.191C655.259 410.648 653.926 409.08 653.26 409.022C652.031 409.316 650.941 410.665 649.991 411.123C649.653 411.287 649.38 411.543 648.96 411.468C646.094 409.507 640.731 408.23 640.352 407.956C639.501 407.345 639.686 406.395 639.457 405.511C639.166 404.394 639.453 403.253 638.791 403.099H629.131C627.976 403.574 628.017 406.771 627.406 407.748C626.924 408.284 624.772 408.561 622.965 409.299C622.907 409.323 622.849 409.343 622.794 409.367C621.254 409.979 619.819 410.826 618.261 411.393C617.554 411.393 616.386 410.269 615.7 409.862C614.986 409.439 614.429 408.749 613.923 408.927C612.84 410.184 607.119 415.095 607.201 416.185C607.433 416.916 608.048 417.428 608.407 418.077C608.769 418.737 609.589 419.498 609.544 420.315C607.826 422.969 607.174 426.474 606.48 428.062C605.288 430.791 601.828 429.285 601.281 430.518V440.618C601.435 441.285 602.648 440.981 603.864 441.315C607.399 442.289 605.78 442.057 607.064 445.274C608.051 447.744 609.312 449.817 609.544 451.3L606.952 455.276C606.975 455.518 608.468 456.574 609.544 457.667C610.306 458.442 613.595 461.92 614.019 462.039L618.494 459.628C621.284 461.219 624.263 462.411 627.354 463.252C627.764 463.501 627.672 463.962 627.799 464.331C628.055 465.076 628.28 467.484 628.526 467.784C628.83 468.147 629.418 467.945 629.923 467.993C630.678 468.068 631.57 467.969 632.355 467.993C634.606 468.061 636.878 467.942 639.126 467.993L639.119 468.003Z" stroke="url(#paint63_linear_1942_1684)" stroke-width="1.85684" stroke-linecap="round" stroke-linejoin="round"/>
<path d="M403.46 437.559L402.77 437.419C401.44 437.149 399.76 436.579 399.24 435.379C399.12 435.109 398.9 434.909 398.62 434.819C398.34 434.729 398.04 434.769 397.8 434.919C395.72 436.199 393.49 436.199 391.41 434.919C391.17 434.769 390.87 434.729 390.6 434.819C390.33 434.899 390.1 435.099 389.98 435.349C389.54 436.299 388.28 436.989 386.24 437.399L385.55 437.539C379.52 438.759 372.68 440.139 372.58 451.319C372.58 451.679 372.76 452.009 373.07 452.189C374.82 453.229 380.42 455.659 394.6 455.659C408.78 455.659 414.31 452.979 416 451.829C416.28 451.639 416.44 451.319 416.44 450.979C416.2 440.109 409.44 438.739 403.47 437.539L403.46 437.559Z" fill="url(#paint64_linear_1942_1684)" stroke="url(#paint65_linear_1942_1684)" stroke-width="3.06" stroke-linecap="round" stroke-linejoin="round"/>
<path d="M394.591 435.51C396.411 435.51 398.231 434.5 399.891 432.54C399.961 432.45 400.021 432.38 400.101 432.29C402.631 429.13 404.211 424.29 404.211 419.67C404.211 412.74 400.431 408.25 394.591 408.25C388.751 408.25 384.971 412.73 384.971 419.67C384.971 427.81 389.641 435.51 394.591 435.51Z" fill="url(#paint66_linear_1942_1684)" stroke="url(#paint67_linear_1942_1684)" stroke-width="3.06" stroke-linecap="round" stroke-linejoin="round"/>
<path d="M385.97 419.67C385.97 413.34 389.35 409.25 394.59 409.25C399.83 409.25 403.21 413.34 403.21 419.67C403.21 424.29 401.58 428.85 399.32 431.67C399.26 431.74 399.19 431.82 399.1 431.93C397.74 433.53 396.17 434.51 394.59 434.51C390.24 434.51 385.97 427.16 385.97 419.67ZM394.59 454.68C380.33 454.68 374.95 452.17 373.57 451.35C373.66 440.97 379.81 439.74 385.75 438.54L386.44 438.4C388.84 437.91 390.29 437.05 390.88 435.79C392.03 436.49 393.27 436.89 394.59 436.89C395.91 436.89 397.17 436.48 398.32 435.77C398.87 437.04 400.29 437.92 402.57 438.39L403.26 438.53C409.14 439.71 415.21 440.94 415.43 451.01C414.13 451.89 408.91 454.67 394.59 454.67V454.68Z" stroke="white" stroke-width="1.54" stroke-miterlimit="10"/>
<defs>
<linearGradient id="paint0_linear_1942_1684" x1="516.526" y1="154.291" x2="516.526" y2="27.1309" gradientUnits="userSpaceOnUse">
<stop stop-color="#55A2C3"/>
<stop offset="1" stop-color="#152A54"/>
</linearGradient>
<linearGradient id="paint1_linear_1942_1684" x1="752.665" y1="289.781" x2="752.665" y2="162.631" gradientUnits="userSpaceOnUse">
<stop stop-color="#55A2C3"/>
<stop offset="1" stop-color="#152A54"/>
</linearGradient>
<linearGradient id="paint2_linear_1942_1684" x1="635.126" y1="89.201" x2="635.126" y2="-37.959" gradientUnits="userSpaceOnUse">
<stop stop-color="#55A2C3"/>
<stop offset="1" stop-color="#152A54"/>
</linearGradient>
<linearGradient id="paint3_linear_1942_1684" x1="752.665" y1="153.111" x2="752.665" y2="25.9512" gradientUnits="userSpaceOnUse">
<stop stop-color="#55A2C3"/>
<stop offset="1" stop-color="#152A54"/>
</linearGradient>
<linearGradient id="paint4_linear_1942_1684" x1="635.126" y1="495.31" x2="635.126" y2="368.16" gradientUnits="userSpaceOnUse">
<stop stop-color="#55A2C3"/>
<stop offset="1" stop-color="#152A54"/>
</linearGradient>
<linearGradient id="paint5_linear_1942_1684" x1="275.845" y1="289.781" x2="275.845" y2="162.631" gradientUnits="userSpaceOnUse">
<stop stop-color="#55A2C3"/>
<stop offset="1" stop-color="#152A54"/>
</linearGradient>
<linearGradient id="paint6_linear_1942_1684" x1="277.845" y1="567.691" x2="277.845" y2="440.541" gradientUnits="userSpaceOnUse">
<stop stop-color="#55A2C3"/>
<stop offset="1" stop-color="#152A54"/>
</linearGradient>
<linearGradient id="paint7_linear_1942_1684" x1="516.526" y1="563.49" x2="516.526" y2="436.33" gradientUnits="userSpaceOnUse">
<stop stop-color="#55A2C3"/>
<stop offset="1" stop-color="#152A54"/>
</linearGradient>
<linearGradient id="paint8_linear_1942_1684" x1="635.126" y1="357.931" x2="635.126" y2="230.771" gradientUnits="userSpaceOnUse">
<stop stop-color="#55A2C3"/>
<stop offset="1" stop-color="#152A54"/>
</linearGradient>
<linearGradient id="paint9_linear_1942_1684" x1="752.665" y1="566.98" x2="752.665" y2="439.83" gradientUnits="userSpaceOnUse">
<stop stop-color="#55A2C3"/>
<stop offset="1" stop-color="#152A54"/>
</linearGradient>
<linearGradient id="paint10_linear_1942_1684" x1="394.931" y1="497.24" x2="394.931" y2="370.08" gradientUnits="userSpaceOnUse">
<stop stop-color="#55A2C3"/>
<stop offset="1" stop-color="#152A54"/>
</linearGradient>
<linearGradient id="paint11_linear_1942_1684" x1="158.226" y1="497.24" x2="158.226" y2="370.08" gradientUnits="userSpaceOnUse">
<stop stop-color="#55A2C3"/>
<stop offset="1" stop-color="#152A54"/>
</linearGradient>
<linearGradient id="paint12_linear_1942_1684" x1="396.625" y1="146.053" x2="396.625" y2="192.652" gradientUnits="userSpaceOnUse">
<stop stop-color="#395D6B"/>
<stop offset="1" stop-color="#6FB6D1"/>
</linearGradient>
<linearGradient id="paint13_linear_1942_1684" x1="513.982" y1="220.219" x2="513.982" y2="250.199" gradientUnits="userSpaceOnUse">
<stop stop-color="#395D6B"/>
<stop offset="1" stop-color="#6FB6D1"/>
</linearGradient>
<linearGradient id="paint14_linear_1942_1684" x1="276.96" y1="351.471" x2="276.96" y2="383.189" gradientUnits="userSpaceOnUse">
<stop stop-color="#395D6B"/>
<stop offset="1" stop-color="#6FB6D1"/>
</linearGradient>
<linearGradient id="paint15_linear_1942_1684" x1="285.221" y1="361.549" x2="285.221" y2="368.439" gradientUnits="userSpaceOnUse">
<stop stop-color="#395D6B"/>
<stop offset="1" stop-color="#6FB6D1"/>
</linearGradient>
<linearGradient id="paint16_linear_1942_1684" x1="283.276" y1="356.01" x2="283.276" y2="365.62" gradientUnits="userSpaceOnUse">
<stop stop-color="#395D6B"/>
<stop offset="1" stop-color="#6FB6D1"/>
</linearGradient>
<linearGradient id="paint17_linear_1942_1684" x1="279.515" y1="355.51" x2="279.515" y2="362.45" gradientUnits="userSpaceOnUse">
<stop stop-color="#395D6B"/>
<stop offset="1" stop-color="#6FB6D1"/>
</linearGradient>
<linearGradient id="paint18_linear_1942_1684" x1="398.57" y1="268.51" x2="398.57" y2="302.35" gradientUnits="userSpaceOnUse">
<stop stop-color="#395D6B"/>
<stop offset="1" stop-color="#6FB6D1"/>
</linearGradient>
<linearGradient id="paint19_linear_1942_1684" x1="398.57" y1="275.43" x2="398.57" y2="295.43" gradientUnits="userSpaceOnUse">
<stop stop-color="#395D6B"/>
<stop offset="1" stop-color="#6FB6D1"/>
</linearGradient>
<linearGradient id="paint20_linear_1942_1684" x1="406.136" y1="297.811" x2="406.136" y2="322.911" gradientUnits="userSpaceOnUse">
<stop stop-color="#395D6B"/>
<stop offset="1" stop-color="#6FB6D1"/>
</linearGradient>
<linearGradient id="paint21_linear_1942_1684" x1="387.53" y1="297.811" x2="387.53" y2="322.911" gradientUnits="userSpaceOnUse">
<stop stop-color="#395D6B"/>
<stop offset="1" stop-color="#6FB6D1"/>
</linearGradient>
<linearGradient id="paint22_linear_1942_1684" x1="533.516" y1="370.41" x2="533.516" y2="380.12" gradientUnits="userSpaceOnUse">
<stop stop-color="#395D6B"/>
<stop offset="1" stop-color="#6FB6D1"/>
</linearGradient>
<linearGradient id="paint23_linear_1942_1684" x1="494.455" y1="370.41" x2="494.455" y2="380.12" gradientUnits="userSpaceOnUse">
<stop stop-color="#395D6B"/>
<stop offset="1" stop-color="#6FB6D1"/>
</linearGradient>
<linearGradient id="paint24_linear_1942_1684" x1="494.445" y1="348.1" x2="494.445" y2="370.41" gradientUnits="userSpaceOnUse">
<stop stop-color="#395D6B"/>
<stop offset="1" stop-color="#6FB6D1"/>
</linearGradient>
<linearGradient id="paint25_linear_1942_1684" x1="533.511" y1="348.1" x2="533.511" y2="370.41" gradientUnits="userSpaceOnUse">
<stop stop-color="#395D6B"/>
<stop offset="1" stop-color="#6FB6D1"/>
</linearGradient>
<linearGradient id="paint26_linear_1942_1684" x1="513.981" y1="348.1" x2="513.981" y2="349.1" gradientUnits="userSpaceOnUse">
<stop stop-color="#395D6B"/>
<stop offset="1" stop-color="#6FB6D1"/>
</linearGradient>
<linearGradient id="paint27_linear_1942_1684" x1="514.48" y1="348.1" x2="514.48" y2="387.33" gradientUnits="userSpaceOnUse">
<stop stop-color="#395D6B"/>
<stop offset="1" stop-color="#6FB6D1"/>
</linearGradient>
<linearGradient id="paint28_linear_1942_1684" x1="513.976" y1="387.33" x2="513.976" y2="388.33" gradientUnits="userSpaceOnUse">
<stop stop-color="#395D6B"/>
<stop offset="1" stop-color="#6FB6D1"/>
</linearGradient>
<linearGradient id="paint29_linear_1942_1684" x1="513.98" y1="342.049" x2="513.98" y2="348.329" gradientUnits="userSpaceOnUse">
<stop stop-color="#395D6B"/>
<stop offset="1" stop-color="#6FB6D1"/>
</linearGradient>
<linearGradient id="paint30_linear_1942_1684" x1="624.461" y1="144.32" x2="624.461" y2="168.38" gradientUnits="userSpaceOnUse">
<stop stop-color="#395D6B"/>
<stop offset="1" stop-color="#6FB6D1"/>
</linearGradient>
<linearGradient id="paint31_linear_1942_1684" x1="641.89" y1="144.311" x2="641.89" y2="147.361" gradientUnits="userSpaceOnUse">
<stop stop-color="#395D6B"/>
<stop offset="1" stop-color="#6FB6D1"/>
</linearGradient>
<linearGradient id="paint32_linear_1942_1684" x1="636.17" y1="157.6" x2="636.17" y2="182.81" gradientUnits="userSpaceOnUse">
<stop stop-color="#395D6B"/>
<stop offset="1" stop-color="#6FB6D1"/>
</linearGradient>
<linearGradient id="paint33_linear_1942_1684" x1="623.375" y1="165.109" x2="623.375" y2="174.859" gradientUnits="userSpaceOnUse">
<stop stop-color="#395D6B"/>
<stop offset="1" stop-color="#6FB6D1"/>
</linearGradient>
<linearGradient id="paint34_linear_1942_1684" x1="627.511" y1="168.379" x2="627.511" y2="180.459" gradientUnits="userSpaceOnUse">
<stop stop-color="#395D6B"/>
<stop offset="1" stop-color="#6FB6D1"/>
</linearGradient>
<linearGradient id="paint35_linear_1942_1684" x1="632.451" y1="171.779" x2="632.451" y2="180.789" gradientUnits="userSpaceOnUse">
<stop stop-color="#395D6B"/>
<stop offset="1" stop-color="#6FB6D1"/>
</linearGradient>
<linearGradient id="paint36_linear_1942_1684" x1="637.535" y1="271.24" x2="637.535" y2="308.92" gradientUnits="userSpaceOnUse">
<stop stop-color="#395D6B"/>
<stop offset="1" stop-color="#6FB6D1"/>
</linearGradient>
<linearGradient id="paint37_linear_1942_1684" x1="637.535" y1="271.24" x2="637.535" y2="308.92" gradientUnits="userSpaceOnUse">
<stop stop-color="#395D6B"/>
<stop offset="1" stop-color="#6FB6D1"/>
</linearGradient>
<linearGradient id="paint38_linear_1942_1684" x1="514.746" y1="83.3428" x2="514.746" y2="98.6072" gradientUnits="userSpaceOnUse">
<stop stop-color="#395D6B"/>
<stop offset="1" stop-color="#6FB6D1"/>
</linearGradient>
<linearGradient id="paint39_linear_1942_1684" x1="514.746" y1="83.3428" x2="514.746" y2="98.6072" gradientUnits="userSpaceOnUse">
<stop stop-color="#395D6B"/>
<stop offset="1" stop-color="#6FB6D1"/>
</linearGradient>
<linearGradient id="paint40_linear_1942_1684" x1="541.053" y1="90.8618" x2="541.053" y2="91.0274" gradientUnits="userSpaceOnUse">
<stop stop-color="#395D6B"/>
<stop offset="1" stop-color="#6FB6D1"/>
</linearGradient>
<linearGradient id="paint41_linear_1942_1684" x1="530.771" y1="95.9702" x2="530.771" y2="117.415" gradientUnits="userSpaceOnUse">
<stop stop-color="#395D6B"/>
<stop offset="1" stop-color="#6FB6D1"/>
</linearGradient>
<linearGradient id="paint42_linear_1942_1684" x1="530.68" y1="64.7065" x2="530.68" y2="85.9232" gradientUnits="userSpaceOnUse">
<stop stop-color="#395D6B"/>
<stop offset="1" stop-color="#6FB6D1"/>
</linearGradient>
<linearGradient id="paint43_linear_1942_1684" x1="514.751" y1="107.562" x2="514.751" y2="126.342" gradientUnits="userSpaceOnUse">
<stop stop-color="#395D6B"/>
<stop offset="1" stop-color="#6FB6D1"/>
</linearGradient>
<linearGradient id="paint44_linear_1942_1684" x1="514.751" y1="55.103" x2="514.751" y2="73.8798" gradientUnits="userSpaceOnUse">
<stop stop-color="#395D6B"/>
<stop offset="1" stop-color="#6FB6D1"/>
</linearGradient>
<linearGradient id="paint45_linear_1942_1684" x1="514.746" y1="83.3428" x2="514.746" y2="98.6072" gradientUnits="userSpaceOnUse">
<stop stop-color="#395D6B"/>
<stop offset="1" stop-color="#6FB6D1"/>
</linearGradient>
<linearGradient id="paint46_linear_1942_1684" x1="498.947" y1="96.5669" x2="498.947" y2="117.369" gradientUnits="userSpaceOnUse">
<stop stop-color="#395D6B"/>
<stop offset="1" stop-color="#6FB6D1"/>
</linearGradient>
<linearGradient id="paint47_linear_1942_1684" x1="498.728" y1="64.7065" x2="498.728" y2="86.216" gradientUnits="userSpaceOnUse">
<stop stop-color="#395D6B"/>
<stop offset="1" stop-color="#6FB6D1"/>
</linearGradient>
<linearGradient id="paint48_linear_1942_1684" x1="488.517" y1="91.0181" x2="488.517" y2="92.0181" gradientUnits="userSpaceOnUse">
<stop stop-color="#395D6B"/>
<stop offset="1" stop-color="#6FB6D1"/>
</linearGradient>
<linearGradient id="paint49_linear_1942_1684" x1="274.855" y1="201.71" x2="274.855" y2="249.616" gradientUnits="userSpaceOnUse">
<stop stop-color="#395D6B"/>
<stop offset="1" stop-color="#6FB6D1"/>
</linearGradient>
<linearGradient id="paint50_linear_1942_1684" x1="302.774" y1="218.371" x2="302.774" y2="219.371" gradientUnits="userSpaceOnUse">
<stop stop-color="#395D6B"/>
<stop offset="1" stop-color="#6FB6D1"/>
</linearGradient>
<linearGradient id="paint51_linear_1942_1684" x1="294.562" y1="196.754" x2="294.562" y2="200.764" gradientUnits="userSpaceOnUse">
<stop stop-color="#395D6B"/>
<stop offset="1" stop-color="#6FB6D1"/>
</linearGradient>
<linearGradient id="paint52_linear_1942_1684" x1="275.309" y1="189.483" x2="275.309" y2="192.175" gradientUnits="userSpaceOnUse">
<stop stop-color="#395D6B"/>
<stop offset="1" stop-color="#6FB6D1"/>
</linearGradient>
<linearGradient id="paint53_linear_1942_1684" x1="274.95" y1="264.673" x2="274.95" y2="265.673" gradientUnits="userSpaceOnUse">
<stop stop-color="#395D6B"/>
<stop offset="1" stop-color="#6FB6D1"/>
</linearGradient>
<linearGradient id="paint54_linear_1942_1684" x1="274.952" y1="259.07" x2="274.952" y2="259.106" gradientUnits="userSpaceOnUse">
<stop stop-color="#395D6B"/>
<stop offset="1" stop-color="#6FB6D1"/>
</linearGradient>
<linearGradient id="paint55_linear_1942_1684" x1="274.811" y1="253.551" x2="274.811" y2="253.556" gradientUnits="userSpaceOnUse">
<stop stop-color="#395D6B"/>
<stop offset="1" stop-color="#6FB6D1"/>
</linearGradient>
<linearGradient id="paint56_linear_1942_1684" x1="255.341" y1="195.946" x2="255.341" y2="202.139" gradientUnits="userSpaceOnUse">
<stop stop-color="#395D6B"/>
<stop offset="1" stop-color="#6FB6D1"/>
</linearGradient>
<linearGradient id="paint57_linear_1942_1684" x1="246.915" y1="218.371" x2="246.915" y2="219.371" gradientUnits="userSpaceOnUse">
<stop stop-color="#395D6B"/>
<stop offset="1" stop-color="#6FB6D1"/>
</linearGradient>
<linearGradient id="paint58_linear_1942_1684" x1="624.175" y1="438.253" x2="624.175" y2="438.298" gradientUnits="userSpaceOnUse">
<stop stop-color="#395D6B"/>
<stop offset="1" stop-color="#6FB6D1"/>
</linearGradient>
<linearGradient id="paint59_linear_1942_1684" x1="633.593" y1="423.451" x2="633.593" y2="434.512" gradientUnits="userSpaceOnUse">
<stop stop-color="#395D6B"/>
<stop offset="1" stop-color="#6FB6D1"/>
</linearGradient>
<linearGradient id="paint60_linear_1942_1684" x1="633.29" y1="434.512" x2="633.29" y2="441.007" gradientUnits="userSpaceOnUse">
<stop stop-color="#395D6B"/>
<stop offset="1" stop-color="#6FB6D1"/>
</linearGradient>
<linearGradient id="paint61_linear_1942_1684" x1="631.877" y1="434.512" x2="631.877" y2="438.296" gradientUnits="userSpaceOnUse">
<stop stop-color="#395D6B"/>
<stop offset="1" stop-color="#6FB6D1"/>
</linearGradient>
<linearGradient id="paint62_linear_1942_1684" x1="633.711" y1="412.773" x2="633.711" y2="458.318" gradientUnits="userSpaceOnUse">
<stop stop-color="#395D6B"/>
<stop offset="1" stop-color="#6FB6D1"/>
</linearGradient>
<linearGradient id="paint63_linear_1942_1684" x1="633.706" y1="403.099" x2="633.706" y2="468.022" gradientUnits="userSpaceOnUse">
<stop stop-color="#395D6B"/>
<stop offset="1" stop-color="#6FB6D1"/>
</linearGradient>
<linearGradient id="paint64_linear_1942_1684" x1="394.51" y1="434.771" x2="394.51" y2="455.659" gradientUnits="userSpaceOnUse">
<stop stop-color="#395D6B"/>
<stop offset="1" stop-color="#6FB6D1"/>
</linearGradient>
<linearGradient id="paint65_linear_1942_1684" x1="394.51" y1="434.771" x2="394.51" y2="455.659" gradientUnits="userSpaceOnUse">
<stop stop-color="#395D6B"/>
<stop offset="1" stop-color="#6FB6D1"/>
</linearGradient>
<linearGradient id="paint66_linear_1942_1684" x1="394.591" y1="408.25" x2="394.591" y2="435.51" gradientUnits="userSpaceOnUse">
<stop stop-color="#395D6B"/>
<stop offset="1" stop-color="#6FB6D1"/>
</linearGradient>
<linearGradient id="paint67_linear_1942_1684" x1="394.591" y1="408.25" x2="394.591" y2="435.51" gradientUnits="userSpaceOnUse">
<stop stop-color="#395D6B"/>
<stop offset="1" stop-color="#6FB6D1"/>
</linearGradient>
</defs>
</svg>
