<?xml version="1.0" encoding="UTF-8"?>
<svg id="Layer_1" xmlns="http://www.w3.org/2000/svg" xmlns:xlink="http://www.w3.org/1999/xlink" version="1.1" viewBox="0 0 68.8 45.58">
  <!-- Generator: Adobe Illustrator 29.0.1, SVG Export Plug-In . SVG Version: 2.1.0 Build 192)  -->
  <defs>
    <style>
      .st0 {
        fill: url(#linear-gradient2);
      }

      .st1 {
        fill: url(#linear-gradient1);
      }

      .st2 {
        fill: url(#linear-gradient);
      }
    </style>
    <linearGradient id="linear-gradient" x1="0" y1="22.79" x2="68.8" y2="22.79" gradientUnits="userSpaceOnUse">
      <stop offset="0" stop-color="#62c4aa"/>
      <stop offset="1" stop-color="#4c89d5"/>
    </linearGradient>
    <linearGradient id="linear-gradient1" x1="19.22" y1="22.77" x2="49.58" y2="22.77" xlink:href="#linear-gradient"/>
    <linearGradient id="linear-gradient2" x1="28.6" y1="22.79" x2="40.17" y2="22.79" xlink:href="#linear-gradient"/>
  </defs>
  <path class="st2" d="M68.61,21.63c-.93-1.71-2.28-3.3-3.47-4.65-3.01-3.42-7.88-8.27-14.04-11.93C45.01,1.44,38.99-.25,33.21.03c-5.55.27-11.67,2.53-17.71,6.52-5.11,3.39-10.01,7.91-13.78,12.75-.09.12-.19.24-.29.36-.71.86-1.78,2.16-1.33,4,.23.94,1.15,2.13,2.76,4,.09.11.17.2.24.28,2.73,3.19,7.24,7.8,13.24,11.64,5.75,3.68,11.38,5.69,16.73,5.97.45.02.9.04,1.36.04,5.39,0,10.97-1.69,16.6-5.03,6.18-3.66,11.08-8.52,14.1-11.96,1.19-1.36,2.54-2.95,3.47-4.65l.2-.36v-1.59l-.2-.36ZM62.73,26.47c-4.4,5.01-16.08,16.58-29.48,15.87-10.51-.56-21.2-8.88-27.7-16.49-.07-.08-.16-.18-.25-.3-1.22-1.41-1.92-2.31-2.08-2.69-.03-.23.16-.52.7-1.17.11-.14.23-.28.34-.42C10.97,12.68,22.58,3.76,33.37,3.24c13.34-.65,24.97,10.88,29.36,15.87.98,1.12,2.07,2.4,2.84,3.68-.77,1.29-1.86,2.57-2.84,3.68Z"/>
  <path class="st1" d="M47.31,14.89c-3.01-4.88-8.42-7.61-14.11-7.13-5.45.46-10.27,3.83-12.59,8.8-2.26,4.86-1.76,10.37,1.33,14.75,2.9,4.1,7.57,6.51,12.57,6.51.17,0,.34,0,.52,0,5.14-.17,9.63-2.78,12.31-7.16,1.53-2.5,2.3-5.32,2.23-8.17-.06-2.66-.85-5.29-2.27-7.6ZM44.61,28.99c-2.1,3.44-5.63,5.49-9.68,5.62-4.12.14-7.98-1.79-10.36-5.15-2.42-3.43-2.81-7.74-1.05-11.54,1.85-3.98,5.57-6.58,9.95-6.95,4.55-.38,8.7,1.71,11.1,5.61,2.4,3.88,2.41,8.52.03,12.41Z"/>
  <path class="st0" d="M33.98,17.06c-7.71.73-6.84,11.72.74,11.5,7.7-.22,7.09-12.24-.74-11.5Z"/>
</svg>