<svg width="162" height="87" viewBox="0 0 162 87" fill="none" xmlns="http://www.w3.org/2000/svg">
<path d="M86.7969 43.4512C86.7969 34.9466 84.275 26.633 79.5501 19.5617C74.8252 12.4903 68.1095 6.97892 60.2523 3.72435C52.395 0.469784 43.7492 -0.38176 35.408 1.2774C27.0668 2.93657 19.4049 7.03192 13.3913 13.0456C7.37763 19.0592 3.28227 26.7211 1.62311 35.0623C-0.0360566 43.4035 0.815487 52.0493 4.07006 59.9066C7.32462 67.7638 12.836 74.4795 19.9074 79.2044C26.9787 83.9293 35.2923 86.4512 43.7969 86.4512V83.6433C35.8476 83.6433 28.0769 81.2861 21.4673 76.8697C14.8577 72.4534 9.70621 66.1762 6.66416 58.832C3.62211 51.4879 2.82617 43.4066 4.37699 35.6101C5.92781 27.8136 9.75575 20.652 15.3767 15.031C20.9977 9.41004 28.1593 5.58211 35.9558 4.03129C43.7523 2.48046 51.8336 3.2764 59.1777 6.31845C66.5219 9.3605 72.7991 14.512 77.2154 21.1216C81.6318 27.7312 83.989 35.5019 83.989 43.4512H86.7969Z" fill="#D8E0ED"/>
<path d="M21.4634 57.2659C20.9575 57.2659 20.5472 57.676 20.5472 58.182C20.5472 58.688 20.9575 59.0981 21.4634 59.0981H25.6736C26.2581 59.6972 27.6803 61.0084 29.875 62.117H21.4634C20.9575 62.117 20.5472 62.5271 20.5472 63.0331C20.5472 63.5391 20.9575 63.9492 21.4634 63.9492H37.5798C37.5999 63.9493 37.6197 63.9498 37.6398 63.9498H44.9289C45.4348 63.9498 45.845 63.5396 45.845 63.0337C45.845 62.5277 45.4348 62.1175 44.9289 62.1175H37.652C37.6482 62.1175 37.6444 62.117 37.6405 62.117C34.7564 62.117 32.0552 61.3595 29.612 59.8655C27.7734 58.7411 26.7786 57.5974 26.7703 57.5877C26.7664 57.5831 26.7618 57.5791 26.7578 57.5745C26.7479 57.5634 26.738 57.5521 26.7275 57.5415C23.9234 54.6782 22.3791 50.8999 22.3791 46.9029C22.3791 38.5135 29.2043 31.6883 37.5937 31.6883C38.9246 31.6862 40.2508 31.8448 41.539 32.1822V33.6522C41.539 34.017 41.7556 34.3471 42.0903 34.4925L43.2128 34.9802C43.6572 35.1734 43.8789 35.71 43.7011 36.1618L43.6603 36.2655C42.7154 35.8176 41.7925 35.3689 40.7628 35.1002C39.7296 34.8305 38.6614 34.7025 37.5938 34.7072C30.9742 34.7072 25.5695 40.0085 25.4022 46.5885C25.3995 46.6929 25.3982 46.7977 25.3982 46.9028C25.3982 53.6276 30.8691 59.0985 37.5938 59.0985H37.6879H49.2075H49.208H49.2084H60.1823C60.6881 59.0985 61.0984 58.6884 61.0984 58.1824V57.4884L65.0587 60.6201L61.0984 63.7517V63.0338C61.0984 62.5278 60.6881 62.1176 60.1823 62.1176H53.0535C52.5476 62.1176 52.1374 62.5278 52.1374 63.0338C52.1374 63.5397 52.5476 63.9499 53.0535 63.9499H59.2662V65.644C59.2662 65.9953 59.4669 66.3155 59.7831 66.4685C60.0961 66.6201 60.4779 66.5782 60.7505 66.3626L67.1041 61.3388C67.3237 61.165 67.452 60.9002 67.452 60.6202C67.452 60.3401 67.3238 60.0753 67.1041 59.9016L60.7505 54.8776C60.4752 54.6598 60.0995 54.6186 59.7831 54.7717C59.467 54.9247 59.2662 55.245 59.2662 55.5962V57.2664H51.2165C53.4973 54.3023 54.7339 50.6908 54.7339 46.9029C54.7339 45.5514 54.5747 44.2138 54.2611 42.9118H54.6319C54.9965 42.9118 55.3265 42.6956 55.472 42.3612L55.9598 41.24C56.1524 40.7989 56.6942 40.5644 57.1472 40.7278L58.207 41.1089C58.541 41.229 58.9141 41.1454 59.1648 40.8946L61.8747 38.1847C62.1254 37.9339 62.209 37.5607 62.089 37.227L61.7077 36.1662C61.5447 35.7142 61.7793 35.1711 62.2191 34.98L63.3413 34.4917C63.6757 34.3462 63.892 34.0163 63.892 33.6516V29.8195C63.892 29.455 63.6759 29.1251 63.3416 28.9796L62.2203 28.4913C61.7871 28.2747 61.5448 27.7805 61.7305 27.3101L62.1785 26.1704C62.3119 25.8312 62.2314 25.4452 61.9737 25.1875L59.2639 22.4777C59.0062 22.2199 58.62 22.1395 58.2807 22.273L57.1417 22.7211C56.6891 22.8994 56.1541 22.6764 55.9604 22.2326L55.4721 21.1095C55.3266 20.775 54.9967 20.5586 54.6319 20.5586H50.7998C50.435 20.5586 50.1048 20.7751 49.9595 21.1098L49.4726 22.231C49.2818 22.6688 48.7357 22.9063 48.2852 22.7438L47.2252 22.3618C46.8911 22.2413 46.5176 22.3249 46.2667 22.576L43.5568 25.2867C43.3061 25.5376 43.2227 25.9106 43.3426 26.2445L43.724 27.305C43.8861 27.7548 43.6498 28.3014 43.2119 28.4912L42.0907 28.9786C41.7562 29.124 41.5397 29.454 41.5397 29.8188V30.2957C40.2452 29.9955 38.9219 29.8555 37.5938 29.856C28.1941 29.856 20.5469 37.5032 20.5469 46.9029C20.5469 50.6903 21.7841 54.3014 24.0653 57.266H21.4634V57.2659ZM27.2303 46.9029C27.2303 46.8136 27.2314 46.7246 27.2337 46.6359C27.3737 41.1332 31.824 36.6828 37.3267 36.5429C39.4811 36.4881 41.7845 37.0559 43.5357 38.3566C46.286 40.3993 48.0504 43.4169 48.0504 46.903C48.0504 52.6008 43.2715 57.2915 37.5937 57.2664C31.8793 57.2664 27.2303 52.6173 27.2303 46.9029ZM52.9016 46.903C52.9016 50.7739 51.4539 54.439 48.8168 57.2665H44.1151C47.6646 55.0519 49.8827 51.0902 49.8827 46.903C49.8827 44.7587 49.3119 42.6259 48.2292 40.774C48.693 40.5779 49.2637 40.7617 49.4717 41.24L49.9593 42.3609C50.1025 42.69 50.441 42.912 50.7997 42.912H52.3703C52.7231 44.2078 52.9016 45.5472 52.9016 46.903ZM43.3719 30.4195L43.9415 30.1718C45.2567 29.6015 45.9346 28.0348 45.4478 26.6844L45.2632 26.1712L47.151 24.2827L47.6636 24.4675C49.016 24.955 50.5792 24.2773 51.1525 22.9619L51.4006 22.3909H54.0311L54.2805 22.9645C54.8639 24.3005 56.4541 24.9612 57.8126 24.4262L58.3926 24.1979L60.2536 26.0589L60.0257 26.6388C59.4898 27.997 60.1507 29.5904 61.4887 30.1714L62.0597 30.42V33.0514L61.4885 33.2999C60.1738 33.8712 59.4967 35.4368 59.9837 36.787L60.1682 37.3001L58.2801 39.1881L57.7678 39.0039C56.413 38.5157 54.8562 39.1888 54.2801 40.508L54.0314 41.0796L51.4003 41.0794L51.1522 40.5084C50.4456 38.8872 48.7224 38.6102 47.2279 39.1989L47.0387 39.2733L45.1782 37.4128L45.354 36.9657C45.9261 35.5596 45.3726 33.9218 43.9429 33.2994L43.372 33.0515V30.4195H43.3719Z" fill="url(#paint0_linear_3316_2296)"/>
<path d="M43.1036 42.8386C42.7459 42.4809 42.1658 42.4809 41.808 42.8386L36.0516 48.595L33.6558 46.199C33.298 45.8413 32.7181 45.8413 32.3601 46.199C32.0024 46.5568 32.0024 47.1369 32.3601 47.4946L35.4038 50.5383C35.5757 50.7101 35.8086 50.8066 36.0516 50.8066C36.2945 50.8066 36.5275 50.7101 36.6994 50.5383L43.1036 44.1341C43.4614 43.7765 43.4614 43.1964 43.1036 42.8386Z" fill="url(#paint1_linear_3316_2296)"/>
<path d="M52.7154 37.0115C54.8313 37.0115 56.7883 35.6945 57.5942 33.7391C58.4266 31.7193 57.8951 29.3396 56.2899 27.8588C54.5019 26.2095 51.7336 26.0062 49.7297 27.3878C47.8575 28.6786 47.0024 31.0936 47.6668 33.2717C48.336 35.4653 50.4222 37.0115 52.7154 37.0115ZM56.1591 31.7347C56.159 33.4689 54.805 34.9776 53.0783 35.1599C51.3707 35.3401 49.7476 34.1847 49.3603 32.5113C48.9057 30.5472 50.3019 28.5555 52.3041 28.3154C54.3249 28.0731 56.1591 29.7011 56.1591 31.7347Z" fill="url(#paint2_linear_3316_2296)"/>
<path d="M49.3424 62.1877C48.9833 62.038 48.5511 62.1391 48.2983 62.4357C48.0491 62.728 48.0068 63.15 48.1953 63.485C48.6132 64.2276 49.7735 64.0096 49.8979 63.1685C49.9587 62.7574 49.7255 62.3472 49.3424 62.1877Z" fill="url(#paint3_linear_3316_2296)"/>
<rect x="83.7969" y="42.4512" width="58" height="3" fill="#D8E0ED"/>
<rect x="143.797" y="35.4492" width="16.0036" height="16.0036" rx="8.0018" fill="white" stroke="#65ACB7" stroke-width="4"/>
<defs>
<linearGradient id="paint0_linear_3316_2296" x1="43.9994" y1="20.5586" x2="43.9994" y2="66.5588" gradientUnits="userSpaceOnUse">
<stop stop-color="#395D6B"/>
<stop offset="1" stop-color="#6FB6D1"/>
</linearGradient>
<linearGradient id="paint1_linear_3316_2296" x1="37.7319" y1="42.5703" x2="37.7319" y2="50.8066" gradientUnits="userSpaceOnUse">
<stop stop-color="#395D6B"/>
<stop offset="1" stop-color="#6FB6D1"/>
</linearGradient>
<linearGradient id="paint2_linear_3316_2296" x1="52.7136" y1="26.4727" x2="52.7136" y2="37.0115" gradientUnits="userSpaceOnUse">
<stop stop-color="#395D6B"/>
<stop offset="1" stop-color="#6FB6D1"/>
</linearGradient>
<linearGradient id="paint3_linear_3316_2296" x1="48.9928" y1="62.1191" x2="48.9928" y2="63.9374" gradientUnits="userSpaceOnUse">
<stop stop-color="#395D6B"/>
<stop offset="1" stop-color="#6FB6D1"/>
</linearGradient>
</defs>
</svg>
