<svg width="161" height="87" viewBox="0 0 161 87" fill="none" xmlns="http://www.w3.org/2000/svg">
<rect x="2.26562" y="35.4492" width="16.0036" height="16.0036" rx="8.0018" fill="white" stroke="#65ACB7" stroke-width="4"/>
<path d="M118 86.4512C126.505 86.4512 134.818 83.9293 141.89 79.2044C148.961 74.4795 154.472 67.7638 157.727 59.9066C160.981 52.0493 161.833 43.4035 160.174 35.0623C158.515 26.7211 154.419 19.0592 148.406 13.0456C142.392 7.03192 134.73 2.93657 126.389 1.2774C118.048 -0.381762 109.402 0.469782 101.545 3.72435C93.6874 6.97892 86.9717 12.4903 82.2468 19.5616C77.5219 26.633 75 34.9466 75 43.4512L77.8078 43.4512C77.8078 35.5019 80.1651 27.7312 84.5814 21.1216C88.9978 14.512 95.275 9.3605 102.619 6.31845C109.963 3.2764 118.045 2.48046 125.841 4.03129C133.638 5.58211 140.799 9.41004 146.42 15.031C152.041 20.652 155.869 27.8136 157.42 35.6101C158.971 43.4066 158.175 51.4879 155.133 58.832C152.091 66.1762 146.939 72.4534 140.33 76.8697C133.72 81.2861 125.949 83.6433 118 83.6433L118 86.4512Z" fill="#D8E0ED"/>
<rect x="20.2695" y="42.4512" width="58" height="3" fill="#D8E0ED"/>
<path fill-rule="evenodd" clip-rule="evenodd" d="M107.575 51.8912L108.327 50.7642C108.766 50.1052 109 49.3312 109 48.5402V45.3102C109 43.7922 108.142 42.4042 106.784 41.7252L106.11 41.3882C105.43 41.0482 105 40.3522 105 39.5922C105 38.9602 105 38.2692 105 37.6972C105 36.6342 104.578 35.6142 103.826 34.8632L101.709 32.7462C102.997 30.3932 104.941 28.4482 107.295 27.1602L109.893 29.7582C110.602 30.4672 111 31.4282 111 32.4312V33.4862C111 35.0692 111.895 36.5162 113.311 37.2242L113.312 37.2252C115.035 38.0872 117.116 37.7492 118.479 36.3872C118.685 36.1802 118.895 35.9702 119.099 35.7662C119.895 34.9702 121.015 34.5862 122.133 34.7252L127.399 35.3842C127.701 36.3772 127.895 37.4172 127.968 38.4902C128.005 39.0412 128.482 39.4582 129.033 39.4202C129.584 39.3832 130 38.9062 129.963 38.3552C129.399 30.0352 122.462 23.4512 114 23.4512C111.512 23.4512 109.155 24.0202 107.054 25.0352L107.04 25.0432C101.692 27.6332 98 33.1142 98 39.4512C98 47.1872 103.502 53.6472 110.802 55.1312C111.343 55.2412 111.872 54.8912 111.982 54.3502C112.092 53.8092 111.742 53.2812 111.201 53.1712C109.92 52.9112 108.703 52.4752 107.575 51.8912Z" stroke="url(#paint0_linear_3083_2355)" stroke-width="2" stroke-linecap="round" stroke-linejoin="round"/>
<path fill-rule="evenodd" clip-rule="evenodd" d="M129.327 57.1932L136.293 64.1582C136.683 64.5482 137.317 64.5482 137.707 64.1582C138.097 63.7682 138.097 63.1342 137.707 62.7442L130.742 55.7782C132.153 54.0542 133 51.8512 133 49.4512C133 43.9322 128.519 39.4512 123 39.4512C117.481 39.4512 113 43.9322 113 49.4512C113 54.9702 117.481 59.4512 123 59.4512C125.4 59.4512 127.603 58.6042 129.327 57.1932ZM119 49.4832C119 47.2582 120.807 45.4512 123.032 45.4512C123.584 45.4512 124.032 45.0032 124.032 44.4512C124.032 43.8992 123.584 43.4512 123.032 43.4512C119.703 43.4512 117 46.1542 117 49.4832C117 50.0352 117.448 50.4832 118 50.4832C118.552 50.4832 119 50.0352 119 49.4832Z" stroke="url(#paint1_linear_3083_2355)" stroke-width="2" stroke-linecap="round" stroke-linejoin="round"/>
<defs>
<linearGradient id="paint0_linear_3083_2355" x1="113.983" y1="23.4512" x2="113.983" y2="55.1514" gradientUnits="userSpaceOnUse">
<stop stop-color="#395D6B"/>
<stop offset="1" stop-color="#6FB6D1"/>
</linearGradient>
<linearGradient id="paint1_linear_3083_2355" x1="125.5" y1="39.4512" x2="125.5" y2="64.4507" gradientUnits="userSpaceOnUse">
<stop stop-color="#395D6B"/>
<stop offset="1" stop-color="#6FB6D1"/>
</linearGradient>
</defs>
</svg>
