<svg width="161" height="87" viewBox="0 0 161 87" fill="none" xmlns="http://www.w3.org/2000/svg">
<path d="M86 43.4512C86 34.9466 83.4781 26.633 78.7532 19.5617C74.0283 12.4903 67.3126 6.97892 59.4554 3.72435C51.5982 0.469784 42.9523 -0.38176 34.6111 1.2774C26.2699 2.93657 18.6081 7.03192 12.5944 13.0456C6.58075 19.0592 2.4854 26.7211 0.826233 35.0623C-0.832932 43.4035 0.0186119 52.0493 3.27318 59.9066C6.52775 67.7638 12.0392 74.4795 19.1105 79.2044C26.1818 83.9293 34.4954 86.4512 43 86.4512V83.6433C35.0507 83.6433 27.28 81.2861 20.6704 76.8697C14.0609 72.4534 8.90933 66.1762 5.86728 58.832C2.82523 51.4879 2.02929 43.4066 3.58012 35.6101C5.13094 27.8136 8.95887 20.652 14.5798 15.031C20.2008 9.41004 27.3624 5.58211 35.1589 4.03129C42.9554 2.48046 51.0367 3.2764 58.3809 6.31845C65.725 9.3605 72.0022 14.512 76.4186 21.1216C80.8349 27.7312 83.1922 35.5019 83.1922 43.4512H86Z" fill="#D8E0ED"/>
<g clip-path="url(#clip0_3083_2364)">
<path d="M42.9995 21.1777C36.8177 21.1777 31.7268 25.8323 31.0723 31.7959C33.8359 30.7777 35.945 30.9959 36.1632 30.9959C37.1086 28.0868 39.7995 25.9777 42.9995 25.9777C46.1995 25.9777 48.9632 28.0868 49.8359 30.9959C49.9086 30.9959 52.1632 30.7777 54.9268 31.7959C54.1995 25.8323 49.1086 21.1777 42.9995 21.1777Z" stroke="url(#paint0_linear_3083_2364)" stroke-width="2" stroke-linecap="round" stroke-linejoin="round"/>
<path d="M42.9991 28.3789C40.3809 28.3789 38.1991 30.5607 38.1991 33.1789C38.1991 35.7971 40.3809 37.9789 42.9991 37.9789C45.6173 37.9789 47.7991 35.7971 47.7991 33.1789C47.7991 30.5607 45.6173 28.3789 42.9991 28.3789ZM49.8354 57.9062C48.89 60.8153 46.1991 62.9244 42.9991 62.9244C39.7991 62.9244 37.0354 60.8153 36.1627 57.9062C35.8718 57.9062 34.0536 58.1971 31.1445 57.1062C31.7263 63.0698 36.8173 67.7244 42.9991 67.7244C49.1809 67.7244 54.2718 63.0698 54.9263 57.1062C52.2354 58.1244 49.9809 57.9062 49.8354 57.9062Z" stroke="url(#paint1_linear_3083_2364)" stroke-width="2" stroke-linecap="round" stroke-linejoin="round"/>
<path d="M42.9992 50.9239C40.381 50.9239 38.1992 53.1057 38.1992 55.7239C38.1992 58.3421 40.381 60.5239 42.9992 60.5239C45.6174 60.5239 47.7992 58.3421 47.7992 55.7239C47.7992 53.1057 45.6174 50.9239 42.9992 50.9239ZM65.2538 44.4512C65.2538 37.833 59.8719 32.4512 53.2538 32.4512C53.181 32.4512 53.1083 32.4512 53.0356 32.4512V37.2512C53.1083 37.2512 53.181 37.2512 53.2538 37.2512C57.2538 37.2512 60.4538 40.4512 60.4538 44.4512C60.4538 48.4512 57.2538 51.6512 53.2538 51.6512C53.181 51.6512 53.1083 51.6512 53.0356 51.6512V56.4512C59.8719 56.5239 65.2538 51.0694 65.2538 44.4512Z" stroke="url(#paint2_linear_3083_2364)" stroke-width="2" stroke-linecap="round" stroke-linejoin="round"/>
<path d="M53.2552 49.2512C55.8734 49.2512 58.0552 47.0694 58.0552 44.4512C58.0552 41.833 55.8734 39.6512 53.2552 39.6512C50.637 39.6512 48.4552 41.833 48.4552 44.4512C48.4552 47.0694 50.637 49.2512 53.2552 49.2512ZM20.7461 44.4512C20.7461 51.0694 26.1279 56.5239 32.9643 56.4512V51.6512C28.7461 51.7239 25.5461 48.3784 25.5461 44.4512C25.5461 40.4512 28.7461 37.2512 32.7461 37.2512C32.8188 37.2512 32.8915 37.2512 32.9643 37.2512V32.4512C32.8915 32.4512 32.8188 32.4512 32.7461 32.4512C26.1279 32.4512 20.7461 37.833 20.7461 44.4512Z" stroke="url(#paint3_linear_3083_2364)" stroke-width="2" stroke-linecap="round" stroke-linejoin="round"/>
<path d="M37.5453 44.4504C37.5453 41.8322 35.3635 39.6504 32.7453 39.6504C30.1271 39.6504 27.9453 41.8322 27.9453 44.4504C27.9453 47.0686 30.1271 49.2504 32.7453 49.2504C35.3635 49.2504 37.5453 47.0686 37.5453 44.4504Z" stroke="url(#paint4_linear_3083_2364)" stroke-width="2" stroke-linecap="round" stroke-linejoin="round"/>
</g>
<rect x="83" y="42.4512" width="58" height="3" fill="#D8E0ED"/>
<rect x="143" y="35.4492" width="16.0036" height="16.0036" rx="8.0018" fill="white" stroke="#65ACB7" stroke-width="4"/>
<defs>
<linearGradient id="paint0_linear_3083_2364" x1="42.9995" y1="21.1777" x2="42.9995" y2="31.7959" gradientUnits="userSpaceOnUse">
<stop stop-color="#395D6B"/>
<stop offset="1" stop-color="#6FB6D1"/>
</linearGradient>
<linearGradient id="paint1_linear_3083_2364" x1="43.0354" y1="28.3789" x2="43.0354" y2="67.7244" gradientUnits="userSpaceOnUse">
<stop stop-color="#395D6B"/>
<stop offset="1" stop-color="#6FB6D1"/>
</linearGradient>
<linearGradient id="paint2_linear_3083_2364" x1="51.7265" y1="32.4512" x2="51.7265" y2="60.5239" gradientUnits="userSpaceOnUse">
<stop stop-color="#395D6B"/>
<stop offset="1" stop-color="#6FB6D1"/>
</linearGradient>
<linearGradient id="paint3_linear_3083_2364" x1="39.4006" y1="32.4512" x2="39.4006" y2="56.4519" gradientUnits="userSpaceOnUse">
<stop stop-color="#395D6B"/>
<stop offset="1" stop-color="#6FB6D1"/>
</linearGradient>
<linearGradient id="paint4_linear_3083_2364" x1="32.7453" y1="39.6504" x2="32.7453" y2="49.2504" gradientUnits="userSpaceOnUse">
<stop stop-color="#395D6B"/>
<stop offset="1" stop-color="#6FB6D1"/>
</linearGradient>
<clipPath id="clip0_3083_2364">
<rect width="48" height="48" fill="white" transform="translate(19 20.4512)"/>
</clipPath>
</defs>
</svg>
