<svg width="161" height="87" viewBox="0 0 161 87" fill="none" xmlns="http://www.w3.org/2000/svg">
<rect x="2.26562" y="35.4492" width="16.0036" height="16.0036" rx="8.0018" fill="white" stroke="#65ACB7" stroke-width="4"/>
<path d="M118 86.4512C126.505 86.4512 134.818 83.9293 141.89 79.2044C148.961 74.4795 154.472 67.7638 157.727 59.9066C160.981 52.0493 161.833 43.4035 160.174 35.0623C158.515 26.7211 154.419 19.0592 148.406 13.0456C142.392 7.03192 134.73 2.93657 126.389 1.2774C118.048 -0.381762 109.402 0.469782 101.545 3.72435C93.6874 6.97892 86.9717 12.4903 82.2468 19.5616C77.5219 26.633 75 34.9466 75 43.4512L77.8078 43.4512C77.8078 35.5019 80.1651 27.7312 84.5814 21.1216C88.9978 14.512 95.275 9.3605 102.619 6.31845C109.963 3.2764 118.045 2.48046 125.841 4.03129C133.638 5.58211 140.799 9.41004 146.42 15.031C152.041 20.652 155.869 27.8136 157.42 35.6101C158.971 43.4066 158.175 51.4879 155.133 58.832C152.091 66.1762 146.939 72.4534 140.33 76.8697C133.72 81.2861 125.949 83.6433 118 83.6433L118 86.4512Z" fill="#D8E0ED"/>
<rect x="20.2695" y="42.4512" width="58" height="3" fill="#D8E0ED"/>
<path d="M139.2 23.7964C139 23.1964 138.4 22.5964 137.8 22.3964C129.4 20.1964 120.8 22.7964 115 29.5964L112.8 32.1964L107.4 30.9964C104.8 29.9964 102 31.1964 100.8 33.5964L96.3996 41.3964C95.9996 41.9964 95.9996 42.5964 96.3996 43.1964C96.5996 43.7964 97.1996 44.1964 97.7996 44.3964L104 45.7964C103.4 47.3964 103.2 48.9964 102.8 50.5964C102.8 51.1964 103 51.7964 103.4 52.1964L109.6 58.3964C110 58.7964 110.4 58.9964 111 58.9964H111.2C113 58.7964 114.6 58.5964 116.2 57.9964L117.4 63.9964C117.6 64.5964 118 65.1964 118.6 65.3964C118.8 65.5964 119.2 65.5964 119.4 65.5964C119.8 65.5964 120 65.5964 120.4 65.3964L128.2 60.9964C130.4 59.7964 131.6 56.9964 131 54.3964L129.6 48.7964L132 46.5964C138.6 40.9964 141.4 31.9964 139.2 23.7964ZM108.6 37.1964C107.4 38.7964 106.2 40.3964 105.4 41.9964L101.2 40.9964L104.2 35.5964C104.6 34.7964 105.4 34.5964 106.4 34.7964L109.8 35.5964L108.6 37.1964ZM126 57.3964L120.6 60.3964L119.8 56.3964C121.6 55.5964 123.2 54.3964 124.6 53.1964L126 51.7964L126.8 55.1964C127.2 56.1964 126.6 57.1964 126 57.3964ZM127.4 37.1964C125.8 37.1964 124.4 35.7964 124.4 34.1964C124.4 32.5964 125.8 31.1964 127.4 31.1964C129 31.1964 130.4 32.5964 130.4 34.1964C130.4 35.7964 129.2 37.1964 127.4 37.1964Z" stroke="url(#paint0_linear_3083_2375)" stroke-width="2" stroke-linecap="round" stroke-linejoin="round"/>
<defs>
<linearGradient id="paint0_linear_3083_2375" x1="118.019" y1="21.6328" x2="118.019" y2="65.5964" gradientUnits="userSpaceOnUse">
<stop stop-color="#395D6B"/>
<stop offset="1" stop-color="#6FB6D1"/>
</linearGradient>
</defs>
</svg>
