<svg width="48" height="48" viewBox="0 0 48 48" fill="none" xmlns="http://www.w3.org/2000/svg">
<g clip-path="url(#clip0_3359_7752)">
<path fill-rule="evenodd" clip-rule="evenodd" d="M5.60052 24.6589C5.31534 25.6372 4.41115 26.353 3.34122 26.353C2.04259 26.353 0.988281 25.2987 0.988281 24C0.988281 22.7014 2.04259 21.6471 3.34122 21.6471C4.41115 21.6471 5.31534 22.3629 5.60052 23.3412H9.6071V22.6269C9.6071 21.7651 10.3061 21.0661 11.1679 21.0661C13.2872 21.0661 14.3494 18.4995 12.8514 17.0016C12.2422 16.3922 12.2422 15.404 12.8514 14.7948L13.3551 14.2912L11.8818 12.8113H8.65906C8.37012 13.784 7.46885 14.4942 6.40306 14.4942C5.10442 14.4942 4.05012 13.4399 4.05012 12.1412C4.05012 10.8426 5.10442 9.78828 6.40306 9.78828C7.47713 9.78828 8.38414 10.5095 8.66565 11.4937H11.4967V8.59948C10.5038 8.32362 9.77407 7.41238 9.77407 6.33209C9.77407 5.03346 10.8284 3.97915 12.127 3.97915C13.4256 3.97915 14.48 5.03346 14.48 6.33209C14.48 7.39158 13.7781 8.28852 12.8144 8.58282V11.8805L14.2868 13.3594L14.7948 12.8514C15.404 12.2422 16.3922 12.2422 17.0016 12.8514C18.4995 14.3494 21.0661 13.2872 21.0661 11.1679C21.0661 10.3061 21.7651 9.6071 22.6269 9.6071H23.3412V5.60052C22.3629 5.31534 21.6471 4.41115 21.6471 3.34122C21.6471 2.04259 22.7014 0.988281 24 0.988281C25.2987 0.988281 26.353 2.04259 26.353 3.34122C26.353 4.41115 25.6372 5.31534 24.6589 5.60052V9.6071H25.3732C26.235 9.6071 26.934 10.3061 26.934 11.1679C26.934 13.2872 29.5006 14.3494 30.9985 12.8514C31.6075 12.2425 32.5981 12.2425 33.2069 12.8514L33.7588 13.4037L35.238 11.9311V8.49633C34.3982 8.13689 33.8091 7.30273 33.8091 6.33209C33.8091 5.03346 34.8634 3.97915 36.162 3.97915C37.4607 3.97915 38.515 5.03346 38.515 6.33209C38.515 7.49661 37.6672 8.46471 36.5556 8.65219V11.5459H39.5302C39.7162 10.4326 40.6851 9.58282 41.851 9.58282C43.1496 9.58282 44.2039 10.6371 44.2039 11.9358C44.2039 13.2344 43.1496 14.2887 41.851 14.2887C40.8817 14.2887 40.0486 13.7014 39.6883 12.8636H36.1688L34.6901 14.3359L35.1487 14.7948C35.7579 15.404 35.7579 16.3922 35.1487 17.0016C33.6507 18.4995 34.7141 21.0661 36.8322 21.0661C37.6968 21.0661 38.393 21.7651 38.393 22.6269V23.3412H42.3996C42.6848 22.3629 43.5889 21.6471 44.6589 21.6471C45.9575 21.6471 47.0118 22.7014 47.0118 24C47.0118 25.2987 45.9575 26.353 44.6589 26.353C43.5889 26.353 42.6848 25.6372 42.3996 24.6589H38.393V25.3732C38.393 26.235 37.6968 26.934 36.8322 26.934C34.7141 26.934 33.6507 29.5006 35.1487 30.9985C35.7576 31.6075 35.7576 32.5981 35.1487 33.2069L34.5968 33.7589L36.1183 35.2872H39.7905C40.1916 34.5621 40.9644 34.0706 41.851 34.0706C43.1496 34.0706 44.2039 35.1249 44.2039 36.4236C44.2039 37.7222 43.1496 38.7765 41.851 38.7765C40.6133 38.7765 39.5976 37.8189 39.5049 36.6048H36.5034V39.5959C37.6405 39.7615 38.515 40.7415 38.515 41.9243C38.515 43.2229 37.4607 44.2772 36.162 44.2772C34.8634 44.2772 33.8091 43.2229 33.8091 41.9243C33.8091 40.9739 34.3738 40.1543 35.1857 39.7831V36.2181L33.665 34.6907L33.2069 35.1487C32.5981 35.7576 31.6075 35.7576 30.9985 35.1487C29.5006 33.6507 26.934 34.7141 26.934 36.8322C26.934 37.6968 26.235 38.393 25.3732 38.393H24.6589V42.3996C25.6372 42.6848 26.353 43.5889 26.353 44.6589C26.353 45.9575 25.2987 47.0118 24 47.0118C22.7014 47.0118 21.6471 45.9575 21.6471 44.6589C21.6471 43.5889 22.3629 42.6848 23.3412 42.3996V38.393H22.6269C21.7651 38.393 21.0661 37.6968 21.0661 36.8322C21.0661 34.7116 18.5008 33.6494 17.0016 35.1487C16.3922 35.7579 15.404 35.7579 14.795 35.1488L14.2911 34.6453L12.7621 36.1675V39.6582C13.7526 39.9356 14.48 40.8457 14.48 41.9243C14.48 43.2229 13.4256 44.2772 12.127 44.2772C10.8284 44.2772 9.77407 43.2229 9.77407 41.9243C9.77407 40.8629 10.4783 39.9648 11.4445 39.672C11.4445 38.6432 11.4445 36.5526 11.4445 36.5526H8.75252C8.68541 37.7913 7.6584 38.7765 6.40306 38.7765C5.10442 38.7765 4.05012 37.7222 4.05012 36.4236C4.05012 35.1249 5.10442 34.0706 6.40306 34.0706C7.26819 34.0706 8.02489 34.5386 8.43374 35.235H11.8313L13.3589 33.714L12.8514 33.2069C12.2425 32.5981 12.2425 31.6075 12.8514 30.9985C14.3494 29.5006 13.2872 26.934 11.1679 26.934C10.3061 26.934 9.6071 26.235 9.6071 25.3732V24.6589H5.60052ZM4.37652 24C4.37652 23.4287 3.91261 22.9648 3.34122 22.9648C2.76983 22.9648 2.30593 23.4287 2.30593 24C2.30593 24.5714 2.76983 25.0353 3.34122 25.0353C3.91261 25.0353 4.37652 24.5714 4.37652 24ZM15.7264 13.7831L13.7831 15.7264C13.6883 15.8212 13.6883 15.975 13.7831 16.0698C16.1102 18.3968 14.4601 22.3838 11.1679 22.3838C11.0336 22.3838 10.9248 22.4927 10.9248 22.6269V25.3732C10.9248 25.5074 11.0336 25.6163 11.1679 25.6163C14.4601 25.6163 16.1102 29.6032 13.7831 31.9303C13.688 32.0254 13.688 32.1801 13.7831 32.2752L15.7264 34.217C15.8212 34.3118 15.975 34.3118 16.0698 34.217C18.3988 31.888 22.3838 33.538 22.3838 36.8322C22.3838 36.9668 22.4927 37.0753 22.6269 37.0753H25.3732C25.5074 37.0753 25.6163 36.9668 25.6163 36.8322C25.6163 33.542 29.6032 31.8899 31.9303 34.217C32.0254 34.312 32.1801 34.312 32.2752 34.217L34.217 32.2752C34.312 32.1801 34.312 32.0254 34.217 31.9303C31.8899 29.6032 33.542 25.6163 36.8322 25.6163C36.9668 25.6163 37.0753 25.5074 37.0753 25.3732V22.6269C37.0753 22.4927 36.9668 22.3838 36.8322 22.3838C33.542 22.3838 31.8899 18.3968 34.217 16.0698C34.3118 15.975 34.3118 15.8212 34.217 15.7264L32.2752 13.7831C32.1801 13.688 32.0254 13.688 31.9303 13.7831C29.6032 16.1102 25.6163 14.4601 25.6163 11.1679C25.6163 11.0336 25.5074 10.9248 25.3732 10.9248H22.6269C22.4927 10.9248 22.3838 11.0336 22.3838 11.1679C22.3838 14.4601 18.3968 16.1102 16.0698 13.7831C15.975 13.6883 15.8212 13.6883 15.7264 13.7831ZM7.43835 12.1412C7.43835 11.5698 6.97445 11.1059 6.40306 11.1059C5.83167 11.1059 5.36776 11.5698 5.36776 12.1412C5.36776 12.7126 5.83167 13.1765 6.40306 13.1765C6.97068 13.1765 7.43223 12.7187 7.43826 12.1525C7.43835 12.1488 7.43835 12.145 7.43835 12.1412ZM24 4.37652C24.5714 4.37652 25.0353 3.91261 25.0353 3.34122C25.0353 2.76983 24.5714 2.30593 24 2.30593C23.4287 2.30593 22.9648 2.76983 22.9648 3.34122C22.9648 3.91261 23.4287 4.37652 24 4.37652ZM43.6236 24C43.6236 24.5714 44.0875 25.0353 44.6589 25.0353C45.2303 25.0353 45.6942 24.5714 45.6942 24C45.6942 23.4287 45.2303 22.9648 44.6589 22.9648C44.0875 22.9648 43.6236 23.4287 43.6236 24ZM24 43.6236C23.4287 43.6236 22.9648 44.0875 22.9648 44.6589C22.9648 45.2303 23.4287 45.6942 24 45.6942C24.5714 45.6942 25.0353 45.2303 25.0353 44.6589C25.0353 44.0875 24.5714 43.6236 24 43.6236ZM12.127 5.2968C11.5556 5.2968 11.0917 5.76071 11.0917 6.33209C11.0917 6.90348 11.5556 7.36739 12.127 7.36739C12.6984 7.36739 13.1623 6.90348 13.1623 6.33209C13.1623 5.76071 12.6984 5.2968 12.127 5.2968ZM35.1267 6.33209C35.1267 6.90348 35.5906 7.36739 36.162 7.36739C36.7334 7.36739 37.1973 6.90348 37.1973 6.33209C37.1973 5.76071 36.7334 5.2968 36.162 5.2968C35.5906 5.2968 35.1267 5.76071 35.1267 6.33209ZM40.8157 11.9358C40.8157 12.5072 41.2796 12.9711 41.851 12.9711C42.4224 12.9711 42.8863 12.5072 42.8863 11.9358C42.8863 11.3644 42.4224 10.9005 41.851 10.9005C41.2796 10.9005 40.8157 11.3644 40.8157 11.9358ZM41.851 35.3883C41.2796 35.3883 40.8157 35.8522 40.8157 36.4236C40.8157 36.995 41.2796 37.4589 41.851 37.4589C42.4224 37.4589 42.8863 36.995 42.8863 36.4236C42.8863 35.8522 42.4224 35.3883 41.851 35.3883ZM5.36776 36.4236C5.36776 36.995 5.83167 37.4589 6.40306 37.4589C6.97445 37.4589 7.43835 36.995 7.43835 36.4236C7.43835 35.8522 6.97445 35.3883 6.40306 35.3883C5.83167 35.3883 5.36776 35.8522 5.36776 36.4236ZM24.0009 31.9059C19.6461 31.9059 16.0958 28.3537 16.0958 24.0009C16.0958 19.6461 19.6461 16.0958 24.0009 16.0958C28.3537 16.0958 31.9059 19.6461 31.9059 24.0009C31.9059 28.3537 28.3537 31.9059 24.0009 31.9059ZM24.0009 30.5883C27.6282 30.5883 30.5883 27.6282 30.5883 24.0009C30.5883 20.3719 27.6282 17.4134 24.0009 17.4134C20.3719 17.4134 17.4134 20.3719 17.4134 24.0009C17.4134 27.6282 20.3719 30.5883 24.0009 30.5883ZM19.9561 24.7951C19.3465 24.1894 19.3432 23.2027 19.9489 22.593C20.5547 21.9833 21.5414 21.9801 22.151 22.5858L23.1166 23.545L25.9406 21.1551C26.5966 20.6 27.5799 20.6817 28.1351 21.3378C28.6903 21.9938 28.6084 22.9772 27.9524 23.5323L24.0382 26.8448C23.4214 27.3668 22.5079 27.3303 21.9347 26.7609L19.9561 24.7951ZM20.8848 23.8604L22.8634 25.8261C22.9516 25.9137 23.0921 25.9193 23.187 25.839L27.1012 22.5265C27.2021 22.4411 27.2146 22.2899 27.1293 22.189C27.0439 22.0881 26.8927 22.0755 26.7918 22.1609L23.5065 24.9412C23.2455 25.162 22.8591 25.1466 22.6165 24.9056L21.2224 23.5205C21.1286 23.4274 20.9768 23.4279 20.8837 23.5216C20.7905 23.6154 20.791 23.7672 20.8848 23.8604ZM11.0917 41.9243C11.0917 42.4957 11.5556 42.9596 12.127 42.9596C12.6984 42.9596 13.1623 42.4957 13.1623 41.9243C13.1623 41.3529 12.6984 40.889 12.127 40.889C11.5556 40.889 11.0917 41.3529 11.0917 41.9243ZM36.162 40.889C35.5906 40.889 35.1267 41.3529 35.1267 41.9243C35.1267 42.4957 35.5906 42.9596 36.162 42.9596C36.7334 42.9596 37.1973 42.4957 37.1973 41.9243C37.1973 41.3529 36.7334 40.889 36.162 40.889Z" fill="url(#paint0_linear_3359_7752)"/>
</g>
<defs>
<linearGradient id="paint0_linear_3359_7752" x1="1.00018" y1="0.95825" x2="47.0257" y2="0.95825" gradientUnits="userSpaceOnUse">
<stop stop-color="#62C4AA"/>
<stop offset="1" stop-color="#4C89D5"/>
</linearGradient>
<clipPath id="clip0_3359_7752">
<rect width="48" height="48" fill="white"/>
</clipPath>
</defs>
</svg>
