<svg width="48" height="48" viewBox="0 0 48 48" fill="none" xmlns="http://www.w3.org/2000/svg">
<g clip-path="url(#clip0_3359_7727)">
<path d="M47.5553 33.2472L42.9843 22.091C42.5254 20.971 41.241 20.4331 40.1208 20.8919L37.9812 21.7686C37.4396 21.9905 37.0164 22.411 36.7897 22.9525C36.6288 23.3366 36.5831 23.7483 36.648 24.1485L35.6179 24.7363C34.1715 25.5619 31.7538 25.7471 29.9943 25.1672C28.0672 24.532 26.0223 24.7648 23.9037 25.8576C21.7867 24.7651 19.7394 24.5322 17.8131 25.1671C16.0534 25.747 13.6359 25.5618 12.1894 24.7362L11.3355 24.2489C11.5483 23.2332 11.0135 22.1756 10.0195 21.7684L7.87992 20.8917C7.33833 20.6698 6.7417 20.6725 6.2002 20.8992C5.65861 21.126 5.23814 21.5492 5.01633 22.0907L0.445169 33.2472C-0.0137368 34.3673 0.524107 35.6518 1.64423 36.1108L3.78389 36.9875C4.05539 37.0988 4.33654 37.1514 4.61329 37.1514C5.18667 37.1514 5.74017 36.9241 6.15004 36.5245C8.26233 37.6861 9.46383 38.5668 11.089 39.7582C11.7468 40.2404 12.4923 40.7869 13.387 41.416C16.8087 43.822 20.5584 45.6821 22.0117 46.3702L23.9071 47.2676C24.4693 47.5867 24.9993 47.722 25.4775 47.722C26.4071 47.722 27.1395 47.2102 27.5249 46.5427C27.6784 46.2766 27.7809 45.9753 27.8231 45.6618C28.0738 45.7445 28.3348 45.787 28.5984 45.787C28.8169 45.787 29.0371 45.7582 29.2543 45.7C29.9023 45.5263 30.4429 45.1123 30.7767 44.5342C30.9886 44.167 31.101 43.7603 31.1104 43.3461C31.2297 43.3629 31.35 43.372 31.4711 43.372C31.6996 43.372 31.9299 43.3419 32.1569 43.281C32.8344 43.0994 33.3996 42.6667 33.7484 42.0625C33.9823 41.6575 34.0999 41.2065 34.0977 40.7489C34.2146 40.765 34.3326 40.7736 34.4511 40.7736C34.6797 40.7736 34.9099 40.7435 35.1369 40.6826C35.8143 40.5011 36.3795 40.0683 36.7285 39.464C36.9568 39.0685 37.074 38.6145 37.0746 38.1573L41.6838 36.3435C42.102 36.8558 42.732 37.1516 43.3875 37.1515C43.6641 37.1515 43.9455 37.0989 44.217 36.9877L46.3566 36.111C47.4766 35.652 48.0142 34.3673 47.5553 33.2472ZM5.25933 35.2197C5.11401 35.5745 4.70714 35.7448 4.35248 35.5994L2.21292 34.7229C1.85817 34.5775 1.68783 34.1707 1.83314 33.8159L6.40411 22.6596C6.47414 22.4888 6.60736 22.355 6.77929 22.283C6.86658 22.2464 6.95808 22.2282 7.04948 22.2282C7.13817 22.2282 7.22676 22.2455 7.31095 22.28L9.45051 23.1566C9.80517 23.302 9.97551 23.7088 9.8302 24.0635L5.25933 35.2197ZM35.4292 38.7139C35.2807 38.9711 35.0389 39.1557 34.7485 39.2335C34.458 39.3115 34.1564 39.2725 33.8991 39.1239L32.7904 38.4837C32.7904 38.4837 32.7897 38.4833 32.7893 38.4831C32.7895 38.4832 32.7891 38.483 32.7893 38.4831L28.9884 36.2887C28.6295 36.0815 28.171 36.2045 27.9639 36.5632C27.7568 36.9219 27.8797 37.3806 28.2384 37.5877L32.0399 39.7825C32.2963 39.9307 32.4803 40.1724 32.5582 40.4631C32.6362 40.754 32.5975 41.0556 32.4492 41.3123C32.3007 41.5695 32.0589 41.7541 31.7685 41.8319C31.4779 41.9097 31.1762 41.8708 30.9191 41.7223L29.8599 41.1108C29.8599 41.1108 29.8593 41.1105 29.8591 41.1103C29.8592 41.1104 29.859 41.1103 29.8591 41.1103L25.9465 38.8513C25.5878 38.6441 25.1291 38.7671 24.922 39.1258C24.7149 39.4845 24.8378 39.9432 25.1965 40.1503L29.11 42.4099C29.3401 42.543 29.5054 42.7601 29.5754 43.0212C29.6454 43.2827 29.6106 43.5535 29.4776 43.7842C29.3442 44.0153 29.127 44.1811 28.866 44.251C28.605 44.3209 28.334 44.2861 28.1028 44.1525L26.6058 43.2882C26.6058 43.2882 26.6051 43.2878 26.6046 43.2875C26.6048 43.2876 26.6044 43.2874 26.6046 43.2875L23.1472 41.2914C22.7885 41.0843 22.3298 41.2072 22.1227 41.5659C21.9156 41.9246 22.0385 42.3833 22.3972 42.5904L25.8553 44.5869C26.4866 44.9517 26.3853 45.5164 26.2259 45.7926C25.9995 46.1848 25.4611 46.4328 24.6295 45.9527C24.6119 45.9426 24.5938 45.9331 24.5754 45.9244L22.6537 45.0145C21.2353 44.3429 17.5768 42.5284 14.2499 40.189C13.3673 39.5684 12.6281 39.0265 11.9759 38.5484C10.3062 37.3244 9.07129 36.4193 6.88233 35.2152L10.7943 25.6673L11.4458 26.0392C13.2809 27.0865 16.0922 27.3138 18.2825 26.5919C19.5705 26.1673 20.9048 26.2326 22.3315 26.7898L17.001 30.1134C16.3879 30.4956 16.0261 31.0677 15.982 31.7246C15.9343 32.4346 16.2793 33.1858 16.8824 33.6853C18.9619 35.4073 20.8695 34.4753 22.5526 33.653C23.5861 33.1481 24.6548 32.626 25.8207 32.6191H25.8457C27.1172 32.6191 28.1101 33.1935 29.2586 33.8579L34.9851 37.1642C35.3554 37.436 35.4309 37.6004 35.5462 37.8977C35.6107 38.1768 35.5687 38.4721 35.4292 38.7139ZM36.6315 36.7195C36.4665 36.4719 36.2248 36.2078 35.8322 35.9254C35.8119 35.9108 35.7909 35.8972 35.7692 35.8846L30.0098 32.5593C28.7773 31.8463 27.5056 31.1099 25.8119 31.1189C24.3039 31.1278 23.0237 31.7533 21.8942 32.305C20.106 33.1785 19.1136 33.5852 17.8392 32.5298C17.6081 32.3383 17.4631 32.0551 17.4786 31.8249C17.4827 31.7624 17.4956 31.5723 17.7945 31.3859L23.8035 27.6394C25.8745 26.3482 27.746 26.0053 29.5247 26.5917C31.7152 27.3137 34.5265 27.0862 36.3615 26.039L37.1697 25.5777L41.0262 34.99L36.6315 36.7195ZM45.7876 34.7228L43.6481 35.5994C43.2933 35.7448 42.8865 35.5745 42.7412 35.2197L38.1703 24.0635C38.1002 23.8926 38.1014 23.7039 38.1734 23.5318C38.2454 23.3598 38.3791 23.2266 38.55 23.1566L40.6896 22.28C40.7738 22.2455 40.8623 22.2282 40.951 22.2282C41.0424 22.2282 41.134 22.2465 41.2212 22.283C41.3931 22.3551 41.5264 22.4888 41.5964 22.6597L46.1673 33.8159C46.3126 34.1707 46.1423 34.5775 45.7876 34.7228ZM17.757 6.31989L20.5471 8.37752L19.4994 11.6823C19.3566 12.1328 19.5176 12.6219 19.8998 12.8995C20.0921 13.0392 20.3178 13.1091 20.5437 13.1091C20.7669 13.1091 20.9902 13.0407 21.1811 12.904L24.0002 10.8864L26.8192 12.904C27.2034 13.1792 27.7184 13.1773 28.1007 12.8996C28.4829 12.622 28.6439 12.1328 28.5011 11.6823L27.4533 8.37761L30.2435 6.31989C30.6238 6.03939 30.7811 5.54908 30.6351 5.09992C30.4891 4.65048 30.0735 4.34617 29.601 4.34289L26.1343 4.31823L25.0395 1.02883C24.8904 0.580516 24.4727 0.279297 24.0002 0.279297C23.5277 0.279297 23.11 0.580516 22.9608 1.02883L21.866 4.31823L18.3994 4.34289C17.9269 4.34617 17.5113 4.6503 17.3652 5.09992C17.2193 5.54917 17.3769 6.03939 17.757 6.31989ZM22.4136 5.8143C22.7346 5.81205 23.0185 5.6057 23.1198 5.3012L24.0003 2.65586L24.8807 5.3012C24.9822 5.6058 25.266 5.81205 25.587 5.8143L28.375 5.83417L26.1312 7.48895C25.8728 7.67945 25.7643 8.0133 25.8614 8.3192L26.704 10.9768L24.4367 9.3542C24.3062 9.26074 24.1532 9.21405 24.0002 9.21405C23.8472 9.21405 23.6942 9.26074 23.5637 9.3542L21.2965 10.9768L22.1391 8.3192C22.2361 8.0132 22.1277 7.67945 21.8693 7.48895L19.6255 5.83417L22.4136 5.8143ZM31.2662 13.2691L33.7574 15.1063L32.8219 18.0569C32.6833 18.4942 32.8394 18.9691 33.2104 19.2386C33.3971 19.3742 33.6163 19.4421 33.8355 19.4421C34.0521 19.4421 34.2689 19.3757 34.4544 19.243L36.9716 17.4415L39.4889 19.2431C39.8618 19.51 40.3618 19.5082 40.7326 19.2386C41.1037 18.9691 41.2599 18.4943 41.1213 18.0569L40.1858 15.1062L42.6771 13.2689C43.0462 12.9967 43.1989 12.5207 43.0572 12.0845C42.9154 11.6483 42.512 11.353 42.0534 11.3499L38.958 11.3278L37.9805 8.39073C37.8357 7.95555 37.4302 7.66314 36.9716 7.66314C36.513 7.66314 36.1074 7.95555 35.9625 8.39073L34.985 11.3278L31.8898 11.3499C31.431 11.3531 31.0275 11.6485 30.8859 12.0846C30.7442 12.5206 30.897 12.9967 31.2662 13.2691ZM35.5326 12.824C35.8536 12.8217 36.1375 12.6154 36.2389 12.3109L36.9716 10.1093L37.7043 12.3109C37.8058 12.6155 38.0896 12.8217 38.4106 12.824L40.731 12.8405L38.8635 14.2177C38.6052 14.4082 38.4967 14.742 38.5937 15.0479L39.295 17.2598L37.4082 15.9093C37.2776 15.8158 37.1247 15.7691 36.9717 15.7691C36.8187 15.7691 36.6657 15.8159 36.5352 15.9093L34.6484 17.2598L35.3496 15.0479C35.4466 14.7419 35.3382 14.4082 35.0798 14.2177L33.2124 12.8405L35.5326 12.824ZM5.32354 13.2691L7.81476 15.1063L6.87923 18.0571C6.74067 18.4944 6.89686 18.9692 7.26783 19.2386C7.45448 19.3742 7.67358 19.4421 7.89286 19.4421C8.10951 19.4421 8.32636 19.3757 8.51179 19.243L11.0289 17.4415L13.5462 19.2431C13.919 19.51 14.4189 19.5082 14.7901 19.2385C15.1611 18.969 15.3173 18.4942 15.1787 18.0569L14.2432 15.1062L16.7346 13.2689C17.1037 12.9967 17.2564 12.5207 17.1146 12.0842C16.9726 11.6482 16.5693 11.353 16.1109 11.3499L13.0155 11.3278L12.038 8.39073C11.8932 7.95555 11.4877 7.66314 11.029 7.66314C10.5703 7.66314 10.165 7.95545 10.02 8.39055L9.04261 11.3278L5.94736 11.3499C5.48854 11.3531 5.08514 11.6485 4.94348 12.0846C4.80173 12.5207 4.95445 12.9968 5.32354 13.2691ZM9.58992 12.824C9.91092 12.8217 10.1948 12.6154 10.2962 12.3109L11.0289 10.1092L11.7616 12.3109C11.8631 12.6155 12.147 12.8217 12.468 12.824L14.7883 12.8405L12.9209 14.2177C12.6625 14.4082 12.554 14.742 12.651 15.0479L13.3524 17.2598L11.4655 15.9093C11.335 15.8158 11.182 15.7691 11.029 15.7691C10.876 15.7691 10.723 15.8158 10.5925 15.9093L8.70567 17.2598L9.40701 15.0479C9.50404 14.7419 9.39558 14.4082 9.1372 14.2177L7.26979 12.8405L9.58992 12.824ZM29.5887 15.6145C29.8816 15.9073 29.8815 16.3822 29.5887 16.675L23.5417 22.7219C23.4005 22.8631 23.2095 22.9416 23.0115 22.9416C22.991 22.9416 22.9706 22.9407 22.95 22.939C22.7305 22.921 22.53 22.8074 22.4017 22.6284L19.528 18.617C19.2868 18.2802 19.3642 17.8118 19.7009 17.5705C20.0375 17.3292 20.5061 17.4067 20.7474 17.7433L23.1062 21.036L28.5281 15.6142C28.821 15.3212 29.296 15.3216 29.5887 15.6145Z" fill="white"/>
</g>
<defs>
<clipPath id="clip0_3359_7727">
<rect width="48" height="48" fill="white"/>
</clipPath>
</defs>
</svg>
