<svg width="48" height="48" viewBox="0 0 48 48" fill="none" xmlns="http://www.w3.org/2000/svg">
<g clip-path="url(#clip0_3359_7742)">
<path d="M43.7231 8.29049C37.1189 6.48093 30.4759 3.66328 24.5122 0.142226C24.1954 -0.0448046 23.8023 -0.0448046 23.4856 0.142226C17.3499 3.76444 11.0658 6.42965 4.27412 8.29049C3.83537 8.41059 3.53125 8.8094 3.53125 9.26437V19.5812C3.53125 30.2052 8.4324 37.2375 12.5441 41.2661C16.9706 45.6034 22.1268 48.002 23.9989 48.002C25.8708 48.002 31.0271 45.6034 35.4535 41.2661C39.5651 37.2376 44.466 30.2053 44.466 19.5812V9.26427C44.466 8.8094 44.1619 8.41059 43.7231 8.29049ZM42.4466 19.5811C42.4466 29.5038 37.8753 36.0659 34.0402 39.8235C29.6873 44.0887 25.0332 45.9824 23.9989 45.9824C22.9646 45.9824 18.3103 44.0887 13.9573 39.8235C10.1222 36.0658 5.55072 29.5038 5.55072 19.5811V10.0308C12.0455 8.18671 18.0941 5.61319 23.9991 2.18166C29.7566 5.52215 36.107 8.22365 42.4466 10.0304V19.5811Z" fill="url(#paint0_linear_3359_7742)"/>
<path d="M15.051 9.91727C14.8466 9.39836 14.2604 9.14346 13.7414 9.34792C11.9377 10.0586 10.0863 10.7128 8.23878 11.2924C7.81775 11.4246 7.53125 11.8146 7.53125 12.2558V16.1549C7.53125 16.7125 7.98341 17.1646 8.54094 17.1646C9.09847 17.1646 9.55062 16.7125 9.55062 16.1549V12.9937C11.208 12.4574 12.8637 11.8643 14.4817 11.2267C15.0006 11.0224 15.2555 10.4362 15.051 9.91727Z" fill="url(#paint1_linear_3359_7742)"/>
<path d="M16.9651 10.1097C17.1006 10.1097 17.2381 10.0824 17.37 10.0248L17.3886 10.0167C17.8994 9.79287 18.1295 9.19821 17.9056 8.68756C17.6816 8.17672 17.0835 7.94562 16.5732 8.16931L16.5569 8.17634C16.0458 8.39956 15.815 8.99375 16.0382 9.50468C16.2039 9.88399 16.5756 10.1097 16.9651 10.1097Z" fill="url(#paint2_linear_3359_7742)"/>
<path d="M36.0304 32.5591C35.5638 32.2541 34.9381 32.3852 34.6328 32.852C33.8008 34.1255 32.8246 35.345 31.7311 36.4763C30.8319 37.4065 29.8575 38.2735 28.8349 39.053C28.3916 39.3911 28.3063 40.0246 28.6442 40.4682C28.8431 40.7287 29.1437 40.8658 29.4479 40.8658C29.6614 40.8658 29.8766 40.7984 30.0594 40.6589C31.1624 39.8178 32.2133 38.8829 33.1829 37.8799C34.3651 36.657 35.4217 35.337 36.3234 33.9566C36.6285 33.4897 36.4972 32.864 36.0304 32.5591Z" fill="url(#paint3_linear_3359_7742)"/>
<path d="M26.4878 40.6365L26.4298 40.6706C25.9473 40.9501 25.7824 41.5677 26.0618 42.0503C26.249 42.3737 26.5879 42.5543 26.9365 42.5543C27.1081 42.5543 27.2823 42.5105 27.4414 42.4181L27.5082 42.3789C27.9895 42.097 28.1511 41.4786 27.8693 40.9974C27.5873 40.5163 26.9687 40.355 26.4878 40.6365Z" fill="url(#paint4_linear_3359_7742)"/>
<path d="M17.1188 21.9417C16.4989 21.3216 15.6743 20.9804 14.7974 20.9804C13.9205 20.9804 13.0958 21.3217 12.4756 21.9417C11.1956 23.222 11.1956 25.3051 12.4756 26.5852L18.4377 32.5472C19.0578 33.167 19.8823 33.5084 20.7593 33.5084C21.6364 33.5084 22.4609 33.167 23.0811 32.547L35.5274 20.1006C36.8073 18.82 36.8073 16.7372 35.5272 15.4574C34.9071 14.8373 34.0826 14.4961 33.2055 14.4961C32.3285 14.4961 31.5039 14.8374 30.8838 15.4574L20.7592 25.5819L17.1188 21.9417ZM32.3118 16.8854C32.5504 16.6468 32.8679 16.5155 33.2056 16.5155C33.5435 16.5155 33.8607 16.6468 34.0995 16.8854C34.5921 17.3781 34.5921 18.18 34.0993 18.6728L21.6532 31.1191C21.4146 31.3577 21.097 31.489 20.7593 31.489C20.4217 31.489 20.1041 31.3577 19.8654 31.1191L13.9035 25.1573C13.4107 24.6645 13.4107 23.8626 13.9033 23.3699C14.142 23.1313 14.4595 22.9998 14.7973 22.9998C15.1351 22.9998 15.4524 23.1311 15.691 23.3697L20.0452 27.724C20.2347 27.9133 20.4914 28.0197 20.7592 28.0197C21.0271 28.0197 21.2838 27.9134 21.4731 27.724L32.3118 16.8854Z" fill="url(#paint5_linear_3359_7742)"/>
</g>
<defs>
<linearGradient id="paint0_linear_3359_7742" x1="3.54184" y1="-0.0293683" x2="44.4784" y2="-0.0293683" gradientUnits="userSpaceOnUse">
<stop stop-color="#62C4AA"/>
<stop offset="1" stop-color="#4C89D5"/>
</linearGradient>
<linearGradient id="paint1_linear_3359_7742" x1="7.53321" y1="9.2722" x2="15.1239" y2="9.2722" gradientUnits="userSpaceOnUse">
<stop stop-color="#62C4AA"/>
<stop offset="1" stop-color="#4C89D5"/>
</linearGradient>
<linearGradient id="paint2_linear_3359_7742" x1="15.9537" y1="8.08266" x2="17.9918" y2="8.08266" gradientUnits="userSpaceOnUse">
<stop stop-color="#62C4AA"/>
<stop offset="1" stop-color="#4C89D5"/>
</linearGradient>
<linearGradient id="paint3_linear_3359_7742" x1="28.4396" y1="32.389" x2="36.4904" y2="32.389" gradientUnits="userSpaceOnUse">
<stop stop-color="#62C4AA"/>
<stop offset="1" stop-color="#4C89D5"/>
</linearGradient>
<linearGradient id="paint4_linear_3359_7742" x1="25.9263" y1="40.4967" x2="28.0085" y2="40.4967" gradientUnits="userSpaceOnUse">
<stop stop-color="#62C4AA"/>
<stop offset="1" stop-color="#4C89D5"/>
</linearGradient>
<linearGradient id="paint5_linear_3359_7742" x1="11.5221" y1="14.4837" x2="36.4948" y2="14.4837" gradientUnits="userSpaceOnUse">
<stop stop-color="#62C4AA"/>
<stop offset="1" stop-color="#4C89D5"/>
</linearGradient>
<clipPath id="clip0_3359_7742">
<rect width="48" height="48" fill="white"/>
</clipPath>
</defs>
</svg>
