<svg width="48" height="48" viewBox="0 0 48 48" fill="none" xmlns="http://www.w3.org/2000/svg">
<path d="M35.1931 20.9026C35.1318 20.6728 35.0242 20.4578 34.8769 20.271C34.7296 20.0841 34.5458 19.9292 34.3366 19.8159L33.7253 19.4791C33.6834 19.4602 33.6479 19.4295 33.6231 19.3908C33.5984 19.352 33.5854 19.3069 33.5858 19.2609C33.6456 18.8433 33.6759 18.422 33.6766 18.0001C33.6763 17.578 33.6459 17.1565 33.5858 16.7386C33.5859 16.6927 33.5992 16.6478 33.624 16.6093C33.6489 16.5707 33.6843 16.5401 33.7261 16.5211L34.3373 16.1844C34.5465 16.071 34.7304 15.9162 34.8776 15.7293C35.0249 15.5425 35.1325 15.3275 35.1938 15.0976C35.2545 14.8738 35.2688 14.64 35.2361 14.4105C35.2033 14.181 35.1241 13.9605 35.0033 13.7626L33.3113 10.9621C33.062 10.5639 32.6698 10.276 32.2151 10.1575C31.7604 10.0389 31.2776 10.0988 30.8656 10.3246L30.2483 10.6651C30.1846 10.6954 30.1137 10.7071 30.0436 10.6989C29.9736 10.6907 29.9073 10.6628 29.8523 10.6186C29.1921 10.135 28.4737 9.7361 27.7141 9.43138C27.6143 9.39163 27.4981 9.30313 27.4981 9.18388V8.50888C27.4916 8.03638 27.2978 7.58578 26.9593 7.25603C26.6209 6.92628 26.1654 6.74433 25.6928 6.75013H22.3103C21.8381 6.74453 21.3829 6.92646 21.0446 7.25603C20.7063 7.5856 20.5126 8.0359 20.5058 8.50813V9.18313C20.5058 9.30238 20.3896 9.39088 20.2891 9.43138C19.5297 9.7357 18.8115 10.1343 18.1516 10.6179C18.0966 10.6621 18.0303 10.6899 17.9603 10.6981C17.8902 10.7064 17.8193 10.6947 17.7556 10.6644L17.1383 10.3239C16.7262 10.0981 16.2433 10.0384 15.7885 10.1569C15.3338 10.2754 14.9415 10.5632 14.6918 10.9614L13.0013 13.7626C12.8803 13.9604 12.8009 14.1809 12.768 14.4104C12.7351 14.64 12.7495 14.8738 12.8101 15.0976C12.8714 15.3275 12.979 15.5425 13.1263 15.7293C13.2736 15.9162 13.4574 16.071 13.6666 16.1844L14.2778 16.5211C14.3198 16.5401 14.3553 16.5708 14.38 16.6095C14.4048 16.6483 14.4178 16.6934 14.4173 16.7394C14.3576 17.157 14.3273 17.5783 14.3266 18.0001C14.3269 18.4223 14.3573 18.8438 14.4173 19.2616C14.4173 19.3075 14.404 19.3524 14.3792 19.391C14.3543 19.4295 14.3189 19.4601 14.2771 19.4791L13.6658 19.8159C13.4567 19.9292 13.2728 20.0841 13.1256 20.271C12.9783 20.4578 12.8707 20.6728 12.8093 20.9026C12.7487 21.1264 12.7344 21.3602 12.7671 21.5898C12.7999 21.8193 12.8791 22.0397 12.9998 22.2376L14.6918 25.0381C14.9412 25.4364 15.3334 25.7243 15.7881 25.8428C16.2428 25.9613 16.7256 25.9015 17.1376 25.6756L17.7548 25.3351C17.8185 25.3049 17.8895 25.2932 17.9595 25.3014C18.0296 25.3096 18.0959 25.3374 18.1508 25.3816C18.8111 25.8653 19.5295 26.2642 20.2891 26.5689C20.3888 26.6086 20.5051 26.6971 20.5051 26.8164V27.4914C20.5116 27.9639 20.7054 28.4145 21.0439 28.7442C21.3823 29.074 21.8378 29.2559 22.3103 29.2501H25.6928C26.1651 29.2557 26.6203 29.0738 26.9586 28.7442C27.2969 28.4147 27.4906 27.9644 27.4973 27.4921V26.8171C27.4973 26.6979 27.6136 26.6094 27.7141 26.5689C28.4735 26.2646 29.1917 25.8659 29.8516 25.3824C29.9065 25.3382 29.9729 25.3104 30.0429 25.3021C30.1129 25.2939 30.1839 25.3056 30.2476 25.3359L30.8648 25.6764C31.2769 25.9027 31.7599 25.9627 32.2149 25.8442C32.6698 25.7256 33.0621 25.4375 33.3113 25.0389L35.0018 22.2384C35.123 22.0405 35.2024 21.8199 35.2353 21.5902C35.2682 21.3606 35.2538 21.1266 35.1931 20.9026ZM33.7178 21.4621L32.0266 24.2626C31.9789 24.3303 31.9078 24.378 31.8271 24.3964C31.7464 24.4148 31.6617 24.4027 31.5893 24.3624L30.9721 24.0219C30.6578 23.8534 30.302 23.778 29.9464 23.8045C29.5908 23.8311 29.2501 23.9585 28.9643 24.1719C28.4062 24.5812 27.7987 24.9183 27.1561 25.1754C26.8205 25.301 26.5304 25.5247 26.3236 25.8173C26.1169 26.11 26.0029 26.4581 25.9966 26.8164V27.4914C25.9899 27.5658 25.9542 27.6345 25.8972 27.6828C25.8403 27.7311 25.7666 27.755 25.6921 27.7494H22.3096C22.2351 27.755 22.1614 27.7311 22.1044 27.6828C22.0475 27.6345 22.0118 27.5658 22.0051 27.4914V26.8164C21.9989 26.4583 21.8851 26.1103 21.6784 25.8178C21.4717 25.5252 21.1818 25.3016 20.8463 25.1761C20.2034 24.9187 19.5956 24.5811 19.0373 24.1711C18.7092 23.9292 18.3126 23.7979 17.9048 23.7961C17.5988 23.796 17.2976 23.8734 17.0296 24.0211L16.4123 24.3616C16.34 24.4014 16.2556 24.4132 16.1751 24.3948C16.0946 24.3764 16.0237 24.3291 15.9758 24.2619L14.2838 21.4614C14.2679 21.4361 14.2573 21.4078 14.2529 21.3782C14.2485 21.3486 14.2504 21.3185 14.2583 21.2896C14.2679 21.2549 14.2847 21.2227 14.3076 21.1949C14.3304 21.1671 14.3589 21.1444 14.3911 21.1284L15.0023 20.7909C15.3103 20.6252 15.5609 20.3703 15.7214 20.0597C15.8819 19.749 15.9447 19.3971 15.9016 19.0501C15.8519 18.7023 15.8268 18.3515 15.8266 18.0001C15.8271 17.6488 15.8522 17.298 15.9016 16.9501C15.9448 16.6028 15.882 16.2506 15.7214 15.9396C15.5608 15.6287 15.3098 15.3736 15.0016 15.2079L14.3903 14.8711C14.3581 14.8551 14.3297 14.8324 14.3068 14.8046C14.2839 14.7769 14.2672 14.7446 14.2576 14.7099C14.2496 14.681 14.2478 14.6508 14.2523 14.6212C14.2569 14.5916 14.2676 14.5633 14.2838 14.5381L15.9766 11.7376C16.0246 11.6703 16.0957 11.623 16.1763 11.6046C16.2569 11.5862 16.3414 11.5981 16.4138 11.6379L17.0311 11.9784C17.3454 12.1469 17.7012 12.2223 18.0568 12.1957C18.4124 12.1692 18.7531 12.0417 19.0388 11.8284C19.5969 11.4191 20.2045 11.0819 20.8471 10.8249C21.1827 10.6993 21.4728 10.4756 21.6795 10.1829C21.8863 9.89028 22.0003 9.54217 22.0066 9.18388V8.50888C22.0131 8.43451 22.0486 8.36567 22.1054 8.31726C22.1623 8.26884 22.2359 8.24473 22.3103 8.25013H25.6928C25.7673 8.24451 25.841 8.26843 25.898 8.31671C25.955 8.36499 25.9907 8.43375 25.9973 8.50813V9.18313C26.0035 9.54126 26.1174 9.88922 26.324 10.1818C26.5307 10.4743 26.8206 10.6979 27.1561 10.8234C27.799 11.0808 28.4069 11.4185 28.9651 11.8284C29.2508 12.0417 29.5915 12.1692 29.9471 12.1957C30.3027 12.2223 30.6586 12.1469 30.9728 11.9784L31.5901 11.6379C31.6623 11.5976 31.7469 11.5855 31.8275 11.604C31.9081 11.6224 31.979 11.67 32.0266 11.7376L33.7186 14.5381C33.7346 14.5634 33.7451 14.5917 33.7495 14.6213C33.7539 14.6509 33.752 14.6811 33.7441 14.7099C33.7345 14.7446 33.7177 14.7769 33.6949 14.8046C33.672 14.8324 33.6435 14.8551 33.6113 14.8711L33.0001 15.2086C32.6922 15.3744 32.4416 15.6295 32.2812 15.9403C32.1209 16.2511 32.0583 16.6031 32.1016 16.9501C32.1513 17.2979 32.1764 17.6488 32.1766 18.0001C32.1761 18.3515 32.151 18.7023 32.1016 19.0501C32.0584 19.3974 32.1212 19.7497 32.2818 20.0606C32.4424 20.3716 32.6933 20.6267 33.0016 20.7924L33.6128 21.1291C33.645 21.1452 33.6735 21.1679 33.6964 21.1956C33.7192 21.2234 33.736 21.2557 33.7456 21.2904C33.7534 21.3193 33.7549 21.3496 33.7501 21.3792C33.7453 21.4088 33.7343 21.4371 33.7178 21.4621Z" fill="#FBFBFB"/>
<path d="M24 12.75C22.9617 12.75 21.9466 13.0579 21.0833 13.6348C20.2199 14.2117 19.547 15.0316 19.1496 15.9909C18.7523 16.9502 18.6483 18.0058 18.8509 19.0242C19.0535 20.0426 19.5535 20.9781 20.2877 21.7123C21.0219 22.4465 21.9574 22.9466 22.9758 23.1491C23.9942 23.3517 25.0498 23.2477 26.0091 22.8504C26.9684 22.453 27.7883 21.7801 28.3652 20.9167C28.9421 20.0534 29.25 19.0384 29.25 18C29.2484 16.6081 28.6948 15.2737 27.7106 14.2894C26.7263 13.3052 25.3919 12.7516 24 12.75ZM24 21.75C23.2583 21.75 22.5333 21.5301 21.9166 21.118C21.2999 20.706 20.8193 20.1203 20.5355 19.4351C20.2516 18.7498 20.1774 17.9958 20.3221 17.2684C20.4668 16.541 20.8239 15.8728 21.3484 15.3483C21.8728 14.8239 22.541 14.4667 23.2684 14.3221C23.9958 14.1774 24.7498 14.2516 25.4351 14.5355C26.1203 14.8193 26.706 15.2999 27.118 15.9166C27.5301 16.5333 27.75 17.2583 27.75 18C27.7488 18.9942 27.3533 19.9473 26.6503 20.6503C25.9473 21.3533 24.9942 21.7488 24 21.75Z" fill="#FBFBFB"/>
<path d="M22.499 46.499V35.999C22.499 35.8001 22.4199 35.6094 22.2793 35.4688L20.7793 33.9688L19.7188 35.0293L20.999 36.3095V46.499H22.499Z" fill="#FBFBFB"/>
<path d="M19.5 32.25C19.5 31.805 19.368 31.37 19.1208 31C18.8736 30.63 18.5222 30.3416 18.111 30.1713C17.6999 30.001 17.2475 29.9564 16.811 30.0432C16.3746 30.1301 15.9737 30.3443 15.659 30.659C15.3443 30.9737 15.1301 31.3746 15.0432 31.811C14.9564 32.2475 15.001 32.6999 15.1713 33.111C15.3416 33.5222 15.63 33.8736 16 34.1208C16.37 34.368 16.805 34.5 17.25 34.5C17.8467 34.5 18.419 34.2629 18.841 33.841C19.2629 33.419 19.5 32.8467 19.5 32.25ZM16.5 32.25C16.5 32.1017 16.544 31.9567 16.6264 31.8333C16.7088 31.71 16.8259 31.6139 16.963 31.5571C17.1 31.5003 17.2508 31.4855 17.3963 31.5144C17.5418 31.5434 17.6754 31.6148 17.7803 31.7197C17.8852 31.8246 17.9567 31.9582 17.9856 32.1037C18.0145 32.2492 17.9997 32.4 17.9429 32.537C17.8861 32.6741 17.79 32.7912 17.6667 32.8736C17.5433 32.956 17.3983 33 17.25 33C17.0511 33 16.8603 32.921 16.7197 32.7803C16.579 32.6397 16.5 32.4489 16.5 32.25Z" fill="#FBFBFB"/>
<path d="M9.75 37.5C9.75 37.945 9.88196 38.38 10.1292 38.75C10.3764 39.12 10.7278 39.4084 11.139 39.5787C11.5501 39.749 12.0025 39.7936 12.439 39.7068C12.8754 39.62 13.2763 39.4057 13.591 39.091C13.9057 38.7763 14.12 38.3754 14.2068 37.939C14.2936 37.5025 14.249 37.0501 14.0787 36.639C13.9084 36.2278 13.62 35.8764 13.25 35.6292C12.88 35.382 12.445 35.25 12 35.25C11.4033 35.25 10.831 35.4871 10.409 35.909C9.98705 36.331 9.75 36.9033 9.75 37.5ZM12.75 37.5C12.75 37.6483 12.706 37.7933 12.6236 37.9167C12.5412 38.04 12.4241 38.1361 12.287 38.1929C12.15 38.2497 11.9992 38.2645 11.8537 38.2356C11.7082 38.2067 11.5746 38.1352 11.4697 38.0303C11.3648 37.9254 11.2933 37.7918 11.2644 37.6463C11.2355 37.5008 11.2503 37.35 11.3071 37.213C11.3639 37.0759 11.46 36.9588 11.5833 36.8764C11.7067 36.794 11.8517 36.75 12 36.75C12.1989 36.75 12.3897 36.829 12.5303 36.9697C12.671 37.1103 12.75 37.3011 12.75 37.5Z" fill="#FBFBFB"/>
<path d="M17.249 46.499V41.249C17.249 41.0501 17.1699 40.8594 17.0293 40.7188L15.5293 39.2188L14.4688 40.2793L15.749 41.5595V46.499H17.249Z" fill="#FBFBFB"/>
<path d="M25.7197 35.4688C25.5791 35.6094 25.5 35.8001 25.5 35.999V46.499H27V36.3095L28.2803 35.0293L27.2197 33.9688L25.7197 35.4688Z" fill="#FBFBFB"/>
<path d="M33 32.25C33 31.805 32.868 31.37 32.6208 31C32.3736 30.63 32.0222 30.3416 31.611 30.1713C31.1999 30.001 30.7475 29.9564 30.311 30.0432C29.8746 30.1301 29.4737 30.3443 29.159 30.659C28.8443 30.9737 28.6301 31.3746 28.5432 31.811C28.4564 32.2475 28.501 32.6999 28.6713 33.111C28.8416 33.5222 29.13 33.8736 29.5 34.1208C29.87 34.368 30.305 34.5 30.75 34.5C31.3467 34.5 31.919 34.2629 32.341 33.841C32.7629 33.419 33 32.8467 33 32.25ZM30 32.25C30 32.1017 30.044 31.9567 30.1264 31.8333C30.2088 31.71 30.3259 31.6139 30.463 31.5571C30.6 31.5003 30.7508 31.4855 30.8963 31.5144C31.0418 31.5434 31.1754 31.6148 31.2803 31.7197C31.3852 31.8246 31.4567 31.9582 31.4856 32.1037C31.5145 32.2492 31.4997 32.4 31.4429 32.537C31.3861 32.6741 31.29 32.7912 31.1667 32.8736C31.0433 32.956 30.8983 33 30.75 33C30.5511 33 30.3603 32.921 30.2197 32.7803C30.079 32.6397 30 32.4489 30 32.25Z" fill="#FBFBFB"/>
<path d="M36 39.75C36.445 39.75 36.88 39.618 37.25 39.3708C37.62 39.1236 37.9084 38.7722 38.0787 38.361C38.249 37.9499 38.2936 37.4975 38.2068 37.061C38.12 36.6246 37.9057 36.2237 37.591 35.909C37.2763 35.5943 36.8754 35.3801 36.439 35.2932C36.0025 35.2064 35.5501 35.251 35.139 35.4213C34.7278 35.5916 34.3764 35.88 34.1292 36.25C33.882 36.62 33.75 37.055 33.75 37.5C33.75 38.0967 33.9871 38.669 34.409 39.091C34.831 39.5129 35.4033 39.75 36 39.75ZM36 36.75C36.1483 36.75 36.2933 36.794 36.4167 36.8764C36.54 36.9588 36.6361 37.0759 36.6929 37.213C36.7497 37.35 36.7645 37.5008 36.7356 37.6463C36.7067 37.7918 36.6352 37.9254 36.5303 38.0303C36.4254 38.1352 36.2918 38.2067 36.1463 38.2356C36.0008 38.2645 35.85 38.2497 35.713 38.1929C35.5759 38.1361 35.4588 38.04 35.3764 37.9167C35.294 37.7933 35.25 37.6483 35.25 37.5C35.25 37.3011 35.329 37.1103 35.4697 36.9697C35.6103 36.829 35.8011 36.75 36 36.75Z" fill="#FBFBFB"/>
<path d="M32.25 41.5595L33.5303 40.2793L32.4697 39.2188L30.9697 40.7188C30.8291 40.8594 30.75 41.0501 30.75 41.249V46.499H32.25V41.5595Z" fill="#FBFBFB"/>
<path d="M1.90034 14.7302L4.08434 15.8845C3.03537 19.0146 2.74234 22.3487 3.22922 25.6138C3.7161 28.879 4.96906 31.9825 6.88559 34.6705L8.10734 33.8005C6.35204 31.3393 5.19596 28.5021 4.73123 25.515C4.2665 22.5279 4.50599 19.4736 5.43059 16.5955L7.20509 17.5337C7.32512 17.5972 7.46012 17.6268 7.59568 17.6195C7.73124 17.6123 7.86229 17.5683 7.97484 17.4924C8.0874 17.4165 8.17724 17.3115 8.23478 17.1885C8.29233 17.0656 8.31542 16.9293 8.30159 16.7942L7.77659 11.689C9.69316 8.80947 12.3417 6.49204 15.4501 4.9747C18.5586 3.45737 22.0149 2.79483 25.4641 3.05513C28.9133 3.31543 32.2311 4.48919 35.0766 6.45586C37.9221 8.42252 40.1929 11.1112 41.6556 14.2457L39.7521 14.7407C39.6207 14.7748 39.5009 14.8439 39.4057 14.9407C39.3105 15.0375 39.2433 15.1583 39.2114 15.2902C39.1794 15.4222 39.1839 15.5604 39.2243 15.69C39.2647 15.8196 39.3396 15.9358 39.4408 16.0262L43.2426 19.4192C43.4127 20.4374 43.499 21.4679 43.5006 22.5002C43.51 26.5572 42.2449 30.5147 39.8841 33.814L41.1058 34.6855C43.648 31.1318 45.0103 26.8696 45.0006 22.5002C44.9992 21.3929 44.9079 20.2875 44.7276 19.195L46.4586 14.2037C46.5032 14.0752 46.5121 13.937 46.4842 13.8038C46.4563 13.6707 46.3927 13.5476 46.3002 13.4478C46.2078 13.3481 46.0899 13.2753 45.9593 13.2374C45.8286 13.1994 45.6901 13.1977 45.5586 13.2325L43.1293 13.8632C41.5862 10.4412 39.1534 7.49572 36.0846 5.3338C33.0158 3.17187 29.4233 1.87265 25.6815 1.57154C21.9397 1.27043 18.1856 1.97846 14.8106 3.62183C11.4356 5.2652 8.5631 7.78375 6.49259 10.915L1.89284 13.4072C1.77339 13.4719 1.67375 13.5678 1.60457 13.6847C1.53538 13.8016 1.49924 13.9351 1.50001 14.071C1.50078 14.2068 1.53843 14.3399 1.60894 14.456C1.67945 14.5721 1.78016 14.6669 1.90034 14.7302ZM44.5821 15.0362L43.6386 17.7587L41.4876 15.8402L44.5821 15.0362ZM6.37559 12.6857L6.66884 15.5522L3.84134 14.0582L6.37559 12.6857Z" fill="#FBFBFB"/>
</svg>
